STARTFONT 2.1
COMMENT $Xorg: $
COMMENT ISO10646-1 extension by Markus Kuhn <mkuhn@acm.org>, 2001-03-20
COMMENT  (c) Copyright Bigelow & Holmes 1986, 1985. Lucida is a registered
COMMENT  trademark of Bigelow & Holmes. See LEGAL NOTICE file for terms 
COMMENT  of the license. 
FONT -B&H-Lucida-Medium-I-Normal-Sans-34-240-100-100-P-192-ISO10646-1
SIZE 24 100 100
FONTBOUNDINGBOX 66 54 -22 -16
STARTPROPERTIES 22
COMMENT Begin LogicalFontDescription
FONTNAME_REGISTRY ""
FOUNDRY "B&H"
FAMILY_NAME "Lucida"
WEIGHT_NAME "Medium"
SLANT "I"
SETWIDTH_NAME "Normal"
ADD_STYLE_NAME "Sans"
PIXEL_SIZE 34
POINT_SIZE 240
RESOLUTION_X 100
RESOLUTION_Y 100
SPACING "P"
AVERAGE_WIDTH 192
CHARSET_REGISTRY "ISO10646"
CHARSET_ENCODING "1"
COMMENT END LogicalFontDescription
FONT_ASCENT 31
FONT_DESCENT 8
DEFAULT_CHAR 0
COPYRIGHT "Copyright Bigelow & Holmes 1986, 1985."
FACE_NAME "Lucida Sans Italic"
X_HEIGHT 18
CAP_HEIGHT 25
ENDPROPERTIES
CHARS 723
STARTCHAR char0
ENCODING 0
SWIDTH 735 0
DWIDTH 25 0
BBX 23 25 3 0
BITMAP
AAAAAA
000000
800002
000000
800002
000000
800002
000000
800002
000000
800002
000000
800002
000000
800002
000000
800002
000000
800002
000000
800002
000000
800002
000000
AAAAAA
ENDCHAR
STARTCHAR space
ENCODING 32
SWIDTH 316 0
DWIDTH 11 0
BBX 1 1 0 0
BITMAP
00
ENDCHAR
STARTCHAR exclam
ENCODING 33
SWIDTH 193 0
DWIDTH 11 0
BBX 8 25 4 0
BITMAP
07
0F
0F
0E
0E
0E
0E
1C
1C
1C
1C
1C
18
38
38
38
30
30
00
00
00
00
70
F0
E0
ENDCHAR
STARTCHAR quotedbl
ENCODING 34
SWIDTH 361 0
DWIDTH 12 0
BBX 9 8 6 18
BITMAP
E380
E380
E380
E380
E380
E380
E380
E380
ENDCHAR
STARTCHAR numbersign
ENCODING 35
SWIDTH 633 0
DWIDTH 21 0
BBX 21 25 3 0
BITMAP
000C38
001870
001870
0030E0
0030E0
0061C0
0061C0
3FFFF8
3FFFF8
3FFFF8
018300
018600
030600
030C00
060C00
FFFFE0
FFFFE0
FFFFE0
0C3800
187000
187000
30E000
30E000
61C000
E3C000
ENDCHAR
STARTCHAR dollar
ENCODING 36
SWIDTH 633 0
DWIDTH 21 0
BBX 17 30 5 -3
BITMAP
003000
003000
00FE00
03FF80
07FF80
0F6100
1E6000
1C6000
1C4000
1C4000
1CC000
0EC000
0FC000
078000
01E000
01F000
01F800
01BC00
011C00
031C00
031C00
031C00
031C00
423800
FEF000
FFE000
7FC000
060000
060000
040000
ENDCHAR
STARTCHAR percent
ENCODING 37
SWIDTH 741 0
DWIDTH 25 0
BBX 26 25 2 0
BITMAP
03E003C0
07F00700
0FF80600
1E380C00
1C181C00
38183800
38387000
3830E000
3871C000
1FE38000
1FE70000
0F8E0000
001C7800
0039FC00
0033FE00
00678E00
00E70600
01C60600
038E0600
070E0600
0E0E0E00
1C0F1C00
3807FC00
7007F800
E003E000
ENDCHAR
STARTCHAR ampersand
ENCODING 38
SWIDTH 701 0
DWIDTH 24 0
BBX 20 25 3 0
BITMAP
001E00
007F80
00FF80
01E3C0
01C1C0
01C180
03C380
01C780
01CF00
01FE00
03F800
0FE000
1FF070
3C7070
787070
F078F0
F038E0
E03DE0
E01FC0
F01FC0
F00F80
7C3F00
7FFF80
3FF380
0FC3C0
ENDCHAR
STARTCHAR quotesingle
ENCODING 39
SWIDTH 217 0
DWIDTH 7 0
BBX 4 9 6 17
BITMAP
F0
F0
F0
F0
F0
F0
70
60
60
ENDCHAR
STARTCHAR parenleft
ENCODING 40
SWIDTH 325 0
DWIDTH 11 0
BBX 11 32 3 -6
BITMAP
0020
0060
00E0
01C0
0380
0700
0600
0E00
1C00
1C00
3800
3800
7800
7000
7000
F000
F000
E000
E000
E000
E000
E000
E000
E000
E000
6000
7000
7000
3800
3C00
1800
0800
ENDCHAR
STARTCHAR parenright
ENCODING 41
SWIDTH 325 0
DWIDTH 11 0
BBX 11 32 1 -6
BITMAP
0200
0300
0380
0380
01C0
01C0
00E0
00E0
00E0
00E0
00E0
00E0
00E0
00E0
00E0
00E0
00E0
01E0
01C0
01C0
0380
0380
0780
0700
0E00
0E00
1C00
3800
7000
E000
C000
8000
ENDCHAR
STARTCHAR asterisk
ENCODING 42
SWIDTH 470 0
DWIDTH 16 0
BBX 13 12 5 13
BITMAP
0380
0300
0300
4308
7278
FDF8
0400
0F00
1B80
7180
71C0
2100
ENDCHAR
STARTCHAR plus
ENCODING 43
SWIDTH 633 0
DWIDTH 21 0
BBX 20 21 3 0
BITMAP
003800
003800
003800
003800
003800
007000
007000
007000
007000
FFFFF0
FFFFF0
FFFFF0
00E000
00E000
00E000
00E000
01C000
01C000
01C000
01C000
01C000
ENDCHAR
STARTCHAR comma
ENCODING 44
SWIDTH 316 0
DWIDTH 11 0
BBX 6 12 2 -7
BITMAP
3C
3C
7C
78
78
18
38
38
30
70
E0
C0
ENDCHAR
STARTCHAR hyphen
ENCODING 45
SWIDTH 313 0
DWIDTH 11 0
BBX 8 3 3 9
BITMAP
FF
FF
FF
ENDCHAR
STARTCHAR period
ENCODING 46
SWIDTH 316 0
DWIDTH 11 0
BBX 5 4 3 0
BITMAP
78
78
F0
F0
ENDCHAR
STARTCHAR slash
ENCODING 47
SWIDTH 482 0
DWIDTH 16 0
BBX 22 32 0 -6
BITMAP
00001C
000038
000038
000070
0000E0
0000E0
0001C0
0001C0
000380
000700
000700
000E00
000E00
001C00
003800
003800
007000
007000
00E000
01C000
01C000
038000
038000
070000
0E0000
0E0000
1C0000
1C0000
380000
700000
700000
E00000
ENDCHAR
STARTCHAR zero
ENCODING 48
SWIDTH 633 0
DWIDTH 21 0
BBX 18 25 4 0
BITMAP
007C00
01FF00
03FF80
078780
0F03C0
1E01C0
1C01C0
3801C0
3801C0
7801C0
7001C0
7001C0
F003C0
F003C0
E00380
E00380
E00780
E00700
E00F00
F00E00
701C00
787C00
3FF800
3FE000
0F8000
ENDCHAR
STARTCHAR one
ENCODING 49
SWIDTH 633 0
DWIDTH 21 0
BBX 8 25 9 0
BITMAP
7F
7F
7F
0E
0E
0E
0E
1E
1C
1C
1C
1C
3C
38
38
38
38
78
70
70
70
70
F0
E0
E0
ENDCHAR
STARTCHAR two
ENCODING 50
SWIDTH 633 0
DWIDTH 21 0
BBX 19 25 3 0
BITMAP
00FE00
03FF80
07FFC0
0703E0
0401E0
0001E0
0001E0
0001E0
0001C0
0003C0
000780
000F00
001E00
003C00
00F800
01E000
03C000
078000
1E0000
1C0000
380000
780000
FFFE00
FFFE00
FFFE00
ENDCHAR
STARTCHAR three
ENCODING 51
SWIDTH 633 0
DWIDTH 21 0
BBX 17 25 4 0
BITMAP
03FC00
07FF00
07FF80
040F80
000380
000380
000380
000700
000F00
003E00
07F800
07E000
0FF800
007E00
001E00
000E00
000F00
000E00
000E00
001E00
003C00
407C00
FFF800
FFE000
7F8000
ENDCHAR
STARTCHAR four
ENCODING 52
SWIDTH 633 0
DWIDTH 21 0
BBX 18 25 3 0
BITMAP
0003C0
0007C0
000F80
001F80
003F80
007B80
007380
00E700
01C700
038700
070700
0F0700
1E0E00
3C0E00
380E00
700E00
FFFFC0
FFFFC0
FFFFC0
001C00
001C00
001C00
003800
003800
003800
ENDCHAR
STARTCHAR five
ENCODING 53
SWIDTH 633 0
DWIDTH 21 0
BBX 18 25 5 0
BITMAP
07FFC0
07FFC0
07FFC0
060000
0E0000
0E0000
0C0000
0C0000
0C0000
1FC000
1FF800
1FFC00
007E00
001E00
000E00
000E00
000E00
000E00
001E00
001E00
003C00
40F800
FFF000
FFE000
7F8000
ENDCHAR
STARTCHAR six
ENCODING 54
SWIDTH 633 0
DWIDTH 21 0
BBX 18 25 4 0
BITMAP
003F80
00FFC0
03FFC0
07C0C0
0F0000
1E0000
1C0000
3C0000
380000
79F800
7FFE00
7FFF00
FE0F00
F80700
F00780
F00780
E00700
E00700
E00700
F00E00
701E00
783C00
3FF800
1FF000
0FC000
ENDCHAR
STARTCHAR seven
ENCODING 55
SWIDTH 633 0
DWIDTH 21 0
BBX 19 25 5 0
BITMAP
1FFFE0
1FFFE0
1FFFE0
0003C0
0007C0
000F80
001F00
003E00
007C00
00F800
00F000
01E000
03C000
07C000
078000
0F0000
1F0000
1E0000
3C0000
3C0000
780000
780000
700000
F00000
F00000
ENDCHAR
STARTCHAR eight
ENCODING 56
SWIDTH 633 0
DWIDTH 21 0
BBX 18 25 4 0
BITMAP
007E00
01FF00
07FF80
0F83C0
0E01C0
1E01C0
1E0180
1E0380
1E0700
0F1E00
07FC00
07F000
0FF800
1F7C00
3C3E00
780F00
700F00
E00700
E00700
E00F00
F00E00
F83E00
7FFC00
3FF000
0FC000
ENDCHAR
STARTCHAR nine
ENCODING 57
SWIDTH 633 0
DWIDTH 21 0
BBX 18 25 4 0
BITMAP
007C00
01FF00
07FF80
0F8780
0E03C0
1C01C0
3C01C0
3801C0
3801C0
3801C0
3803C0
3C07C0
3E0FC0
1FFFC0
0FFB80
07E780
000780
000700
000F00
001E00
003C00
C07800
FFF000
FFE000
3F8000
ENDCHAR
STARTCHAR colon
ENCODING 58
SWIDTH 316 0
DWIDTH 11 0
BBX 7 18 4 0
BITMAP
0E
1E
1C
00
00
00
00
00
00
00
00
00
00
00
00
70
F0
E0
ENDCHAR
STARTCHAR semicolon
ENCODING 59
SWIDTH 316 0
DWIDTH 11 0
BBX 8 24 3 -6
BITMAP
07
0F
0E
00
00
00
00
00
00
00
00
00
00
00
00
38
78
78
30
30
30
60
C0
80
ENDCHAR
STARTCHAR less
ENCODING 60
SWIDTH 633 0
DWIDTH 21 0
BBX 22 21 3 0
BITMAP
000004
00001C
00007C
0001F8
0007C0
001F00
007C00
03F000
0FC000
3F0000
FC0000
7E0000
1F8000
07E000
03F000
00FC00
003F00
001F80
0007E0
0001C0
000040
ENDCHAR
STARTCHAR equal
ENCODING 61
SWIDTH 633 0
DWIDTH 21 0
BBX 21 9 2 5
BITMAP
7FFFF8
7FFFF8
7FFFF8
000000
000000
000000
FFFFF0
FFFFF0
FFFFF0
ENDCHAR
STARTCHAR greater
ENCODING 62
SWIDTH 633 0
DWIDTH 21 0
BBX 22 21 1 0
BITMAP
080000
0E0000
1F8000
07C000
03F000
00FC00
003F00
001F80
0007E0
0001F8
0000FC
0003F0
000FC0
003F00
00FC00
03E000
0F8000
3E0000
780000
E00000
800000
ENDCHAR
STARTCHAR question
ENCODING 63
SWIDTH 464 0
DWIDTH 16 0
BBX 14 25 5 0
BITMAP
1FC0
7FF0
7FF8
4078
0038
003C
0038
0038
0070
00F0
01E0
03C0
0700
0E00
1C00
3C00
3800
3800
7800
0000
0000
0000
7000
F000
E000
ENDCHAR
STARTCHAR at
ENCODING 64
SWIDTH 858 0
DWIDTH 29 0
BBX 26 25 4 0
BITMAP
000FE000
007FF800
01FFFE00
03F01F00
07800780
0E000380
1C0FF1C0
383FE0C0
307FE0C0
60E060C0
61C0E0C0
C180C0C0
C381C0C0
C302C1C0
C3078380
C39D8780
C3F9FF00
C3F1FC00
61E0F800
70000000
38000000
3E030000
1FFF0000
07FF0000
01FC0000
ENDCHAR
STARTCHAR A
ENCODING 65
SWIDTH 687 0
DWIDTH 23 0
BBX 22 25 1 0
BITMAP
000380
0007C0
000FC0
000FC0
001FC0
001DC0
003DE0
0039E0
0071E0
0070E0
00E0E0
01E0E0
01C0F0
03C0F0
038070
078070
07FFF0
0FFFF8
0FFFF8
1C0078
3C0078
380038
78003C
70003C
E0003C
ENDCHAR
STARTCHAR B
ENCODING 66
SWIDTH 593 0
DWIDTH 20 0
BBX 18 25 3 0
BITMAP
07FE00
07FF80
0FFF80
0F07C0
0F03C0
0E03C0
0E03C0
1E0380
1E0780
1C0F00
1C3E00
1FF800
3FF800
3FFE00
3C3F00
380F00
380700
780780
780780
780700
700F00
703F00
FFFE00
FFFC00
FFE000
ENDCHAR
STARTCHAR C
ENCODING 67
SWIDTH 679 0
DWIDTH 23 0
BBX 22 25 4 0
BITMAP
001FF0
007FFC
01FFFC
03E00C
0FC000
0F0000
1E0000
3E0000
3C0000
780000
780000
700000
F00000
F00000
F00000
F00000
F00000
F00000
F00000
F80000
780040
7E03C0
3FFFC0
1FFF00
03F800
ENDCHAR
STARTCHAR D
ENCODING 68
SWIDTH 743 0
DWIDTH 25 0
BBX 23 25 3 0
BITMAP
07FFC0
07FFF0
0FFFF8
0F01FC
0E007C
0E003E
0E001E
1E001E
1E001E
1C001E
1C001E
1C001E
3C001E
3C001C
38003C
38003C
380078
780078
7800F0
7001E0
7003E0
700FC0
FFFF80
FFFE00
FFF000
ENDCHAR
STARTCHAR E
ENCODING 69
SWIDTH 547 0
DWIDTH 19 0
BBX 19 25 3 0
BITMAP
07FFE0
07FFE0
0FFFE0
0F0000
0F0000
0F0000
0E0000
1E0000
1E0000
1E0000
1E0000
1FFE00
3FFE00
3FFE00
3C0000
3C0000
380000
780000
780000
780000
700000
700000
FFFE00
FFFE00
FFFE00
ENDCHAR
STARTCHAR F
ENCODING 70
SWIDTH 536 0
DWIDTH 18 0
BBX 19 25 3 0
BITMAP
07FFE0
07FFE0
0FFFE0
0F0000
0F0000
0E0000
0E0000
1E0000
1E0000
1E0000
1C0000
1FFE00
3FFE00
3FFC00
3C0000
380000
380000
780000
780000
780000
700000
700000
F00000
F00000
F00000
ENDCHAR
STARTCHAR G
ENCODING 71
SWIDTH 702 0
DWIDTH 24 0
BBX 22 25 4 0
BITMAP
001FF0
007FFC
01FFFC
03F00C
0F8000
0F0000
1E0000
3C0000
3C0000
780000
780000
700000
F00000
F00000
F000F0
F000E0
F000E0
F000E0
F001E0
F801E0
7C01C0
7E03C0
3FFFC0
1FFFC0
03FC00
ENDCHAR
STARTCHAR H
ENCODING 72
SWIDTH 735 0
DWIDTH 25 0
BBX 24 25 3 0
BITMAP
07000F
07000F
0F000F
0F000E
0F000E
0E001E
0E001E
1E001E
1E001C
1E003C
1FFFFC
1FFFFC
3FFFFC
3C0038
3C0038
380078
380078
780078
780070
780070
7000F0
7000F0
F000F0
F000E0
F000E0
ENDCHAR
STARTCHAR I
ENCODING 73
SWIDTH 289 0
DWIDTH 10 0
BBX 8 25 3 0
BITMAP
0F
0F
0F
0E
0E
0E
1E
1E
1C
1C
1C
3C
3C
3C
38
38
38
78
78
70
70
70
F0
F0
F0
ENDCHAR
STARTCHAR J
ENCODING 74
SWIDTH 408 0
DWIDTH 14 0
BBX 16 31 0 -6
BITMAP
000F
000F
000F
000E
000E
001E
001E
001E
001C
001C
001C
003C
003C
003C
0038
0038
0078
0078
0078
0070
0070
0070
00F0
00F0
00E0
00E0
01E0
C3C0
FF80
FF00
FE00
ENDCHAR
STARTCHAR K
ENCODING 75
SWIDTH 635 0
DWIDTH 22 0
BBX 21 25 3 0
BITMAP
070078
0700F0
0F01E0
0F03C0
0E0780
0E0F00
0E1E00
1E3C00
1E7800
1CF000
1DE000
1FC000
3FC000
3DC000
38E000
38F000
387000
787800
783C00
781C00
701E00
700F00
F00700
F00780
F003C0
ENDCHAR
STARTCHAR L
ENCODING 76
SWIDTH 545 0
DWIDTH 19 0
BBX 15 25 3 0
BITMAP
0700
0F00
0F00
0F00
0E00
0E00
0E00
1E00
1E00
1C00
1C00
1C00
3C00
3C00
3800
3800
3800
7800
7800
7000
7000
7000
FFFE
FFFE
FFFE
ENDCHAR
STARTCHAR M
ENCODING 77
SWIDTH 828 0
DWIDTH 28 0
BBX 27 25 3 0
BITMAP
07C003E0
07C007E0
0FC007E0
0FC00FC0
0FC00FC0
0FE01DC0
0FE01FC0
1CE03BC0
1CE03B80
1CE07380
1CE06380
1CE0E780
38F1C780
38F1C700
38738700
38738700
38770F00
70770F00
707E0E00
707C0E00
707C0E00
70380E00
E0381E00
E0001C00
E0001C00
ENDCHAR
STARTCHAR N
ENCODING 78
SWIDTH 741 0
DWIDTH 25 0
BBX 24 25 3 0
BITMAP
078007
078007
0F8007
0FC00E
0FC00E
0FE00E
0EE00E
1CF00E
1CF01C
1C781C
1C781C
1C381C
383C1C
381C38
381E38
381E38
380F38
700F38
700770
7007F0
7003F0
7003F0
E001F0
E001E0
E001E0
ENDCHAR
STARTCHAR O
ENCODING 79
SWIDTH 777 0
DWIDTH 26 0
BBX 24 25 4 0
BITMAP
001FC0
007FF8
01FFFC
03F07E
07C01E
0F001E
1E000F
3C000F
3C000F
78000F
78000F
70000F
F0000F
F0000E
F0001E
F0001E
F0003C
F0003C
F00078
7800F0
7C03E0
7E0FC0
3FFF80
1FFE00
03F800
ENDCHAR
STARTCHAR P
ENCODING 80
SWIDTH 575 0
DWIDTH 20 0
BBX 19 25 3 0
BITMAP
07FF00
07FFC0
0FFFC0
0F03E0
0F01E0
0E01E0
0E01E0
1E01E0
1E01C0
1E03C0
1C0780
1C1F00
3FFE00
3FF800
3FE000
380000
380000
780000
780000
780000
700000
700000
F00000
F00000
F00000
ENDCHAR
STARTCHAR Q
ENCODING 81
SWIDTH 777 0
DWIDTH 26 0
BBX 24 32 4 -7
BITMAP
001FC0
007FF0
01FFFC
03F07C
07C01E
0F001E
1E000F
3C000F
3C000F
78000F
78000F
70000F
F0000F
F0000E
F0001E
F0001E
F0003C
F0003C
F00078
7800F0
7C03F0
7E0FE0
3FFF80
1FFF00
03FE00
000F00
0007C0
0003F8
0001FF
0000FE
00003C
000008
ENDCHAR
STARTCHAR R
ENCODING 82
SWIDTH 632 0
DWIDTH 21 0
BBX 19 25 3 0
BITMAP
07FF00
07FFC0
0FFFE0
0F03E0
0F01E0
0E01E0
0E01E0
1E01C0
1E01C0
1E0380
1E0700
1C1E00
3FFC00
3FF000
3FF800
3C3800
383C00
781C00
781E00
780E00
700F00
700700
F00780
F00380
F003C0
ENDCHAR
STARTCHAR S
ENCODING 83
SWIDTH 553 0
DWIDTH 19 0
BBX 19 25 2 0
BITMAP
007F80
01FFE0
03FFE0
07C060
0F0000
0F0000
0F0000
0F0000
0F0000
078000
07E000
03F000
00F800
007C00
003E00
001F00
000F00
000700
000700
000F00
400F00
F03E00
FFFC00
FFF800
1FE000
ENDCHAR
STARTCHAR T
ENCODING 84
SWIDTH 623 0
DWIDTH 21 0
BBX 21 25 5 0
BITMAP
FFFFF8
FFFFF8
FFFFF8
00F000
00F000
00F000
00E000
00E000
01E000
01E000
01E000
01C000
01C000
03C000
03C000
03C000
038000
038000
038000
078000
078000
070000
070000
070000
0F0000
ENDCHAR
STARTCHAR U
ENCODING 85
SWIDTH 693 0
DWIDTH 24 0
BBX 21 25 4 0
BITMAP
1E0038
1E0038
1E0078
1C0070
3C0070
3C0070
3C0070
3C00F0
3800E0
7800E0
7800E0
7800E0
7801E0
7001C0
F001C0
F001C0
F001C0
F00380
F00380
F00780
F80700
7C1E00
7FFE00
3FF800
0FE000
ENDCHAR
STARTCHAR V
ENCODING 86
SWIDTH 687 0
DWIDTH 23 0
BBX 22 25 5 0
BITMAP
F0003C
F00038
F00078
700070
7000F0
7800E0
7801C0
7803C0
380380
380780
3C0700
3C0F00
3C0E00
3C1E00
1C1C00
1E3800
1E3800
1E7000
1EF000
0EE000
0FE000
0FC000
0FC000
0F8000
070000
ENDCHAR
STARTCHAR W
ENCODING 87
SWIDTH 886 0
DWIDTH 30 0
BBX 29 25 6 0
BITMAP
E0070038
E00F0070
E00F0070
E01F00E0
E01F00E0
F01F01C0
F03F01C0
F0370380
F0770380
F0770700
70E70700
70E70E00
71C78E00
71C79C00
71879C00
7387B800
7387B800
7707F800
7707F000
7E07F000
7E03E000
7C03E000
7C03C000
7803C000
78038000
ENDCHAR
STARTCHAR X
ENCODING 88
SWIDTH 620 0
DWIDTH 21 0
BBX 25 25 0 0
BITMAP
03C00780
03C00F00
01E01E00
01E03C00
00E07800
00F07000
0070E000
0079E000
007BC000
003F8000
003F0000
001E0000
001E0000
003F0000
007F0000
00F78000
01E78000
03C38000
0383C000
0701C000
0F01E000
1E01E000
3C00F000
7800F000
F0007800
ENDCHAR
STARTCHAR Y
ENCODING 89
SWIDTH 608 0
DWIDTH 21 0
BBX 20 25 5 0
BITMAP
F000F0
7001E0
7803C0
780380
3C0780
3C0F00
1C1E00
1E3C00
0E3800
0F7800
0FF000
07E000
07C000
03C000
038000
078000
078000
078000
070000
070000
0F0000
0F0000
0E0000
0E0000
1E0000
ENDCHAR
STARTCHAR Z
ENCODING 90
SWIDTH 578 0
DWIDTH 20 0
BBX 22 25 1 0
BITMAP
03FFFC
07FFFC
07FFFC
000078
0000F0
0001E0
0003C0
000780
000F80
001F00
001E00
003C00
007800
00F000
01E000
03E000
07C000
0F8000
0F0000
1E0000
3C0000
780000
FFFFC0
FFFFC0
FFFFC0
ENDCHAR
STARTCHAR bracketleft
ENCODING 91
SWIDTH 325 0
DWIDTH 11 0
BBX 13 32 2 -6
BITMAP
03F8
03F8
03F8
0380
0700
0700
0700
0700
0700
0E00
0E00
0E00
0E00
0E00
1C00
1C00
1C00
1C00
1C00
3800
3800
3800
3800
3800
7000
7000
7000
7000
7000
FE00
FE00
FE00
ENDCHAR
STARTCHAR backslash
ENCODING 92
SWIDTH 482 0
DWIDTH 16 0
BBX 10 32 5 -6
BITMAP
E000
E000
6000
6000
7000
7000
3000
3000
3800
3800
3800
1800
1800
1C00
1C00
0C00
0C00
0E00
0E00
0600
0600
0700
0700
0700
0300
0300
0380
0380
0180
0180
01C0
01C0
ENDCHAR
STARTCHAR bracketright
ENCODING 93
SWIDTH 325 0
DWIDTH 11 0
BBX 13 32 1 -6
BITMAP
03F8
03F8
03F8
0070
0070
0070
0070
0070
00E0
00E0
00E0
00E0
00E0
01C0
01C0
01C0
01C0
01C0
0380
0380
0380
0380
0380
0700
0700
0700
0700
0700
0E00
FE00
FE00
FE00
ENDCHAR
STARTCHAR asciicircum
ENCODING 94
SWIDTH 633 0
DWIDTH 21 0
BBX 20 21 2 4
BITMAP
000400
000400
000E00
001E00
001E00
003F00
007F00
007300
00F300
01E380
01C380
03C180
0781C0
0701C0
0F00C0
1E00C0
1C00E0
3C00E0
780060
700070
F00070
ENDCHAR
STARTCHAR underscore
ENCODING 95
SWIDTH 500 0
DWIDTH 17 0
BBX 14 3 1 -4
BITMAP
FFFC
FFFC
FFFC
ENDCHAR
STARTCHAR grave
ENCODING 96
SWIDTH 572 0
DWIDTH 19 0
BBX 6 5 11 21
BITMAP
F0
70
38
38
1C
ENDCHAR
STARTCHAR a
ENCODING 97
SWIDTH 608 0
DWIDTH 21 0
BBX 18 18 3 0
BITMAP
007FC0
01FFC0
03FFC0
078380
0F0380
1E0380
3C0780
380780
780F00
701F00
F03F00
F07F00
F0FF00
F1FE00
F3EE00
FFCE00
7F1E00
3C1E00
ENDCHAR
STARTCHAR b
ENCODING 98
SWIDTH 608 0
DWIDTH 21 0
BBX 18 26 3 0
BITMAP
070000
070000
070000
0F0000
0F0000
0E0000
0E0000
0E0000
1E0F00
1E3F80
1CFFC0
1DF3C0
1FE1C0
3FC3C0
3F83C0
3F03C0
3E0380
3C0780
780700
780F00
701E00
703C00
707800
FFF000
FFE000
FF8000
ENDCHAR
STARTCHAR c
ENCODING 99
SWIDTH 503 0
DWIDTH 17 0
BBX 15 18 3 0
BITMAP
00FE
03FE
07FE
0F82
1E00
3C00
7800
7000
7000
F000
F000
F000
F000
F008
F838
7FF8
3FF0
1F80
ENDCHAR
STARTCHAR d
ENCODING 100
SWIDTH 608 0
DWIDTH 21 0
BBX 20 26 3 0
BITMAP
000070
0000F0
0000E0
0000E0
0000E0
0000E0
0001E0
0001C0
007FC0
01FFC0
03FFC0
07C3C0
0F0380
1E0380
3C0380
380780
780F80
701F00
F03F00
F07F00
F0FF00
F1FF00
F3EE00
FFCE00
7F0E00
3C1E00
ENDCHAR
STARTCHAR e
ENCODING 101
SWIDTH 529 0
DWIDTH 18 0
BBX 15 18 3 0
BITMAP
00F8
03FC
0FFE
1F1E
1C0E
381C
781C
7078
71F0
FFC0
FE00
E000
E002
F00C
F83C
7FFC
3FF0
1FC0
ENDCHAR
STARTCHAR f
ENCODING 102
SWIDTH 383 0
DWIDTH 13 0
BBX 17 34 2 -7
BITMAP
001F80
007F80
00FF80
01F080
01C000
03C000
038000
078000
070000
3FF800
3FF800
3FF800
0F0000
0E0000
0E0000
0E0000
0E0000
1E0000
1C0000
1C0000
1C0000
1C0000
3C0000
380000
380000
380000
380000
780000
700000
700000
700000
700000
F00000
E00000
ENDCHAR
STARTCHAR g
ENCODING 103
SWIDTH 608 0
DWIDTH 21 0
BBX 19 25 2 -7
BITMAP
003FE0
00FFE0
01FFE0
03E1C0
0781C0
0F01C0
1E01C0
1E03C0
3C0780
3C0780
380F80
381B80
783F80
387700
38E700
3FC700
3F8700
1E0F00
000E00
000E00
801C00
F03C00
FFF800
FFF000
1FC000
ENDCHAR
STARTCHAR h
ENCODING 104
SWIDTH 620 0
DWIDTH 21 0
BBX 18 26 3 0
BITMAP
078000
070000
070000
070000
0F0000
0F0000
0E0000
0E0000
0E0F80
1E3FC0
1E7FC0
1CF3C0
1DE1C0
1FC3C0
3F83C0
3F8380
3F0380
3E0380
3C0780
780780
780700
700700
700700
700F00
F00F00
E00E00
ENDCHAR
STARTCHAR i
ENCODING 105
SWIDTH 289 0
DWIDTH 10 0
BBX 8 25 3 0
BITMAP
07
0F
0E
00
00
00
00
1E
1C
1C
1C
1C
3C
38
38
38
38
78
78
70
70
70
F0
F0
E0
ENDCHAR
STARTCHAR j
ENCODING 106
SWIDTH 325 0
DWIDTH 11 0
BBX 16 32 -3 -7
BITMAP
0007
000F
000E
0000
0000
0000
0000
001E
001C
001C
001C
001C
003C
003C
0038
0038
0038
0078
0078
0070
0070
0070
00F0
00F0
00E0
00E0
01E0
01C0
C780
FF80
FF00
FC00
ENDCHAR
STARTCHAR k
ENCODING 107
SWIDTH 572 0
DWIDTH 20 0
BBX 18 26 3 0
BITMAP
078000
070000
070000
070000
0F0000
0F0000
0E0000
0E0000
0E03C0
1E0F00
1E1E00
1C3C00
1C7800
1CF000
3DE000
3BC000
3F8000
3BC000
39E000
78E000
70F000
707800
703C00
703C00
F01E00
E00F00
ENDCHAR
STARTCHAR l
ENCODING 108
SWIDTH 289 0
DWIDTH 10 0
BBX 9 26 3 0
BITMAP
0380
0780
0700
0700
0700
0700
0F00
0E00
0E00
0E00
1E00
1C00
1C00
1C00
1C00
3C00
3800
3800
3800
7800
7800
7000
7000
7000
F000
E000
ENDCHAR
STARTCHAR m
ENCODING 109
SWIDTH 934 0
DWIDTH 32 0
BBX 28 18 3 0
BITMAP
0E0F01E0
1E3F87F0
1C7F9FF0
1CF7BEF0
1DE3BC70
1FC7F8F0
3F87F0F0
3F07E0E0
3E07C0E0
3E07C0E0
3C0F81E0
780F01C0
780E01C0
700E01C0
700E01C0
701E03C0
E01E0380
E01C0380
ENDCHAR
STARTCHAR n
ENCODING 110
SWIDTH 620 0
DWIDTH 21 0
BBX 18 18 3 0
BITMAP
0E0F80
1E3FC0
1E7FC0
1CF3C0
1DE1C0
1FC3C0
3F83C0
3F8380
3F0380
3E0380
3C0780
7C0780
780700
700700
700700
700F00
F00F00
E00E00
ENDCHAR
STARTCHAR o
ENCODING 111
SWIDTH 566 0
DWIDTH 19 0
BBX 17 18 3 0
BITMAP
00F800
03FE00
0FFF00
1F0F00
1C0780
380780
780780
700780
700700
F00700
F00700
F00E00
F01E00
F03C00
F07800
7FF000
3FE000
1F8000
ENDCHAR
STARTCHAR p
ENCODING 112
SWIDTH 608 0
DWIDTH 21 0
BBX 19 25 2 -7
BITMAP
070780
0F1FC0
0E7FE0
0EF9E0
0EF1E0
0FE1E0
0FC1E0
1F81E0
1F01C0
1E03C0
1E0380
1C0780
380F00
381E00
383C00
3FF800
3FF000
7FC000
700000
700000
700000
700000
F00000
F00000
E00000
ENDCHAR
STARTCHAR q
ENCODING 113
SWIDTH 608 0
DWIDTH 21 0
BBX 18 25 3 -7
BITMAP
007FC0
01FFC0
03FFC0
078380
0F0380
1E0380
3C0780
380F80
780F00
701F00
F03F00
F07F00
F0FF00
F1FE00
F3EE00
FFCE00
7F0E00
3C1E00
001C00
001C00
001C00
001C00
003C00
003800
003800
ENDCHAR
STARTCHAR r
ENCODING 114
SWIDTH 478 0
DWIDTH 16 0
BBX 15 18 3 0
BITMAP
1E0E
1C3E
1C7C
1CE0
1DC0
3F80
3F80
3F00
3E00
3C00
7C00
7800
7000
7000
7000
F000
F000
E000
ENDCHAR
STARTCHAR s
ENCODING 115
SWIDTH 489 0
DWIDTH 17 0
BBX 14 18 3 0
BITMAP
03F0
0FFC
0FFC
1E0C
1C00
1E00
1E00
0F80
07C0
03E0
01E0
00F0
0070
8070
E0F0
FFF0
FFE0
3F80
ENDCHAR
STARTCHAR t
ENCODING 116
SWIDTH 383 0
DWIDTH 13 0
BBX 11 23 4 0
BITMAP
0E00
0E00
0E00
0E00
1E00
FFE0
FFE0
FFE0
1C00
1C00
3C00
3800
3800
3800
3800
7000
7000
7000
7000
7800
7F00
7F00
1E00
ENDCHAR
STARTCHAR u
ENCODING 117
SWIDTH 620 0
DWIDTH 21 0
BBX 17 18 4 0
BITMAP
1C0380
1C0780
380780
380700
380700
380700
380F00
701F00
703E00
703E00
707E00
70FE00
E1FE00
E1FC00
F3DC00
FF9C00
FE1C00
7C3C00
ENDCHAR
STARTCHAR v
ENCODING 118
SWIDTH 545 0
DWIDTH 18 0
BBX 17 18 5 0
BITMAP
E00380
E00700
E00E00
F00E00
701C00
703800
703800
707000
707000
70E000
71C000
79C000
3B8000
3F0000
3F0000
3E0000
3E0000
3C0000
ENDCHAR
STARTCHAR w
ENCODING 119
SWIDTH 795 0
DWIDTH 27 0
BBX 25 18 4 0
BITMAP
E03C0380
E03C0700
E07C0700
E07C0E00
E0FC0E00
F0EC1C00
71EE1C00
71CE3800
73CE7800
738E7000
738EF000
770EE000
770FE000
7E0FC000
7E0FC000
7C0F8000
7C0F8000
380F0000
ENDCHAR
STARTCHAR x
ENCODING 120
SWIDTH 541 0
DWIDTH 18 0
BBX 20 18 1 0
BITMAP
0F00F0
0701E0
0383C0
038380
01C700
01CE00
00FC00
00F800
007000
00F800
01F800
03BC00
071C00
0E1E00
1E0E00
3C0F00
780700
F00780
ENDCHAR
STARTCHAR y
ENCODING 121
SWIDTH 548 0
DWIDTH 19 0
BBX 19 25 3 -7
BITMAP
7801E0
7801C0
3803C0
380780
380700
380F00
3C0E00
3C1C00
1C3C00
1C3800
1C7800
1EF000
1EE000
1FE000
0FC000
0F8000
0F8000
0F0000
0F0000
0E0000
1C0000
1C0000
380000
700000
F00000
ENDCHAR
STARTCHAR z
ENCODING 122
SWIDTH 536 0
DWIDTH 18 0
BBX 18 18 2 0
BITMAP
0FFFC0
0FFFC0
1FFF80
000F80
001F00
003E00
007C00
00F800
01F000
03E000
07C000
0F8000
1F0000
3E0000
7C0000
7FFF00
FFFF00
FFFE00
ENDCHAR
STARTCHAR braceleft
ENCODING 123
SWIDTH 325 0
DWIDTH 11 0
BBX 12 32 3 -6
BITMAP
0030
01F0
03E0
03E0
0780
0700
0700
0700
0700
0700
0700
0700
0E00
0E00
1C00
F800
F000
F000
3800
1800
1800
3800
3800
3800
7000
7000
7000
E000
E000
7C00
7C00
1C00
ENDCHAR
STARTCHAR bar
ENCODING 124
SWIDTH 233 0
DWIDTH 8 0
BBX 9 32 2 -6
BITMAP
0380
0380
0300
0300
0300
0700
0700
0600
0600
0600
0E00
0E00
0C00
0C00
0C00
1C00
1C00
1800
1800
1800
3800
3800
3000
3000
3000
7000
7000
6000
6000
6000
E000
E000
ENDCHAR
STARTCHAR braceright
ENCODING 125
SWIDTH 325 0
DWIDTH 11 0
BBX 12 32 1 -6
BITMAP
0300
03C0
03E0
00E0
00E0
00E0
00E0
01C0
01C0
01C0
0380
0380
0380
01C0
01F0
00E0
03E0
0780
0700
0E00
0E00
0E00
0E00
0E00
0E00
0E00
1E00
3C00
FC00
F800
F000
C000
ENDCHAR
STARTCHAR asciitilde
ENCODING 126
SWIDTH 633 0
DWIDTH 21 0
BBX 21 7 2 6
BITMAP
0F0000
3FC038
3FF030
70F870
607FE0
E01FE0
000780
ENDCHAR
STARTCHAR space
ENCODING 160
SWIDTH 316 0
DWIDTH 11 0
BBX 1 1 0 0
BITMAP
00
ENDCHAR
STARTCHAR exclamdown
ENCODING 161
SWIDTH 193 0
DWIDTH 11 0
BBX 8 25 3 -7
BITMAP
07
0F
0E
00
00
00
00
0C
0C
1C
1C
1C
18
38
38
38
38
38
70
70
70
70
F0
F0
E0
ENDCHAR
STARTCHAR cent
ENCODING 162
SWIDTH 633 0
DWIDTH 21 0
BBX 16 25 6 0
BITMAP
0030
0020
0020
00FF
03FE
07FE
0F60
1C40
3CC0
78C0
70C0
70C0
F080
F080
F180
F180
F180
F108
7938
7FF8
3FF8
1FE0
0300
0200
0600
ENDCHAR
STARTCHAR sterling
ENCODING 163
SWIDTH 633 0
DWIDTH 21 0
BBX 19 25 4 0
BITMAP
000FC0
003FE0
007FE0
00F060
00E000
01E000
01C000
01C000
01C000
03C000
038000
1FF800
1FF800
3FF000
078000
070000
070000
070000
0F0000
0E0000
0C0000
180000
7FFE00
FFFC00
FFFC00
ENDCHAR
STARTCHAR currency
ENCODING 164
SWIDTH 633 0
DWIDTH 21 0
BBX 24 21 1 2
BITMAP
040006
0E000E
1E001F
0F1E3C
07FFF8
03FFF0
03E1E0
0380E0
0700E0
060060
0600E0
0E00E0
0601C0
0601C0
078780
0FFFC0
1DFFE0
38F8E0
7000F0
E00078
400020
ENDCHAR
STARTCHAR yen
ENCODING 165
SWIDTH 633 0
DWIDTH 21 0
BBX 20 25 6 0
BITMAP
F000F0
7801E0
3803C0
3C0780
1E0F00
1E1E00
0F3C00
0F7800
07F000
07E000
03C000
7FFC00
7FFC00
7FFC00
038000
078000
FFFC00
FFF800
FFF800
070000
070000
0F0000
0F0000
0E0000
0E0000
ENDCHAR
STARTCHAR brokenbar
ENCODING 166
SWIDTH 233 0
DWIDTH 8 0
BBX 9 32 2 -6
BITMAP
0380
0380
0300
0300
0300
0700
0700
0600
0600
0600
0E00
0E00
0C00
0000
0000
0000
0000
0000
0000
3800
3800
3800
3000
3000
7000
7000
7000
6000
6000
E000
E000
E000
ENDCHAR
STARTCHAR section
ENCODING 167
SWIDTH 633 0
DWIDTH 21 0
BBX 18 32 3 -7
BITMAP
007F80
01FFC0
03FFC0
0780C0
0F0000
0E0000
0E0000
0E0000
070000
07C000
03E000
0FF800
0E7E00
1C1F00
1C0F00
3C0700
3C0700
1E0700
1F0700
0FCE00
07FC00
01F800
007C00
001E00
000E00
000E00
000E00
401E00
F03C00
FFF800
FFF000
1FC000
ENDCHAR
STARTCHAR dieresis
ENCODING 168
SWIDTH 566 0
DWIDTH 19 0
BBX 10 3 10 22
BITMAP
61C0
E1C0
E380
ENDCHAR
STARTCHAR copyright
ENCODING 169
SWIDTH 858 0
DWIDTH 29 0
BBX 25 25 4 0
BITMAP
007F0000
03FFE000
07FFF000
0F80F800
1E001C00
38000E00
700F8700
603FE300
60F04380
C1C00180
C1800180
C3800180
C3000180
C3000180
C3800180
C3C10180
63FF0380
61FF0300
707E0700
38000E00
1E001C00
0F80F800
07FFF000
03FFE000
007F0000
ENDCHAR
STARTCHAR ordfeminine
ENCODING 170
SWIDTH 392 0
DWIDTH 13 0
BBX 13 14 4 11
BITMAP
0380
0FF8
1FF8
3C78
3830
7070
70F0
E1F0
E3F0
E760
EEE0
FCE0
F8E0
71E0
ENDCHAR
STARTCHAR guillemotleft
ENCODING 171
SWIDTH 527 0
DWIDTH 18 0
BBX 16 16 4 1
BITMAP
0102
0387
078E
0F1C
1E38
3C78
78F0
F3E0
E1C0
71E0
30E0
38F0
1870
1C38
0C38
0610
ENDCHAR
STARTCHAR logicalnot
ENCODING 172
SWIDTH 633 0
DWIDTH 21 0
BBX 20 9 3 5
BITMAP
FFFFF0
FFFFF0
FFFFF0
000060
000060
000060
0000E0
0000E0
0000C0
ENDCHAR
STARTCHAR hyphen
ENCODING 173
SWIDTH 313 0
DWIDTH 11 0
BBX 8 3 3 9
BITMAP
FF
FF
FF
ENDCHAR
STARTCHAR registered
ENCODING 174
SWIDTH 633 0
DWIDTH 21 0
BBX 14 15 7 10
BITMAP
0FC0
1FF0
3878
77D8
67EC
C46C
C444
CF84
CF84
CD8C
6C8C
78D8
3878
1FF0
0FC0
ENDCHAR
STARTCHAR macron
ENCODING 175
SWIDTH 566 0
DWIDTH 19 0
BBX 10 3 10 22
BITMAP
FFC0
FFC0
FFC0
ENDCHAR
STARTCHAR degree
ENCODING 176
SWIDTH 269 0
DWIDTH 9 0
BBX 6 6 6 19
BITMAP
78
F8
CC
CC
F8
78
ENDCHAR
STARTCHAR plusminus
ENCODING 177
SWIDTH 633 0
DWIDTH 21 0
BBX 22 21 1 0
BITMAP
000E00
000C00
000C00
000C00
001C00
001C00
1FFFFC
3FFFFC
3FFFFC
003800
003800
003800
003000
003000
007000
000000
000000
000000
FFFFF0
FFFFF0
FFFFF0
ENDCHAR
STARTCHAR twosuperior
ENCODING 178
SWIDTH 392 0
DWIDTH 13 0
BBX 11 15 -19 10
BITMAP
0F80
1FC0
10E0
0060
0060
00C0
00C0
0380
0700
0C00
1800
3000
6000
FF80
FF80
ENDCHAR
STARTCHAR threesuperior
ENCODING 179
SWIDTH 392 0
DWIDTH 13 0
BBX 10 15 -19 10
BITMAP
1F80
1FC0
10C0
00C0
00C0
0180
1F00
1F00
0380
0180
0180
0180
8380
FF00
FC00
ENDCHAR
STARTCHAR acute
ENCODING 180
SWIDTH 566 0
DWIDTH 19 0
BBX 8 5 12 21
BITMAP
0F
1C
38
70
E0
ENDCHAR
STARTCHAR mu
ENCODING 181
SWIDTH 627 0
DWIDTH 21 0
BBX 19 24 2 -6
BITMAP
0F00E0
0E01E0
0E01E0
0E01C0
0E01C0
1E01C0
1C03C0
1C03C0
1C0780
1C0780
1C0F80
381B80
383F80
387700
38F700
3FE700
7FCF00
7F0F00
700000
700000
700000
F00000
E00000
E00000
ENDCHAR
STARTCHAR paragraph
ENCODING 182
SWIDTH 633 0
DWIDTH 21 0
BBX 15 31 5 -6
BITMAP
1FFE
7FFE
7FFE
FFCC
FFCC
FFCC
FF8C
FF8C
FF98
7F98
3F98
1F18
0718
0310
0330
0330
0730
0630
0630
0660
0660
0E60
0C60
0C60
0CC0
0CC0
0CC0
18C0
18C0
1980
1980
ENDCHAR
STARTCHAR periodcentered
ENCODING 183
SWIDTH 316 0
DWIDTH 21 0
BBX 5 4 10 9
BITMAP
78
78
F0
F0
ENDCHAR
STARTCHAR cedilla
ENCODING 184
SWIDTH 566 0
DWIDTH 19 0
BBX 5 8 7 -7
BITMAP
10
30
70
38
18
38
F8
F0
ENDCHAR
STARTCHAR onesuperior
ENCODING 185
SWIDTH 392 0
DWIDTH 13 0
BBX 5 15 -22 10
BITMAP
78
F8
18
30
30
30
30
30
60
60
60
60
60
C0
C0
ENDCHAR
STARTCHAR ordmasculine
ENCODING 186
SWIDTH 392 0
DWIDTH 13 0
BBX 13 14 4 11
BITMAP
03E0
07F0
1FF8
3C78
3838
7038
7038
E038
E070
E0F0
F1E0
FFC0
7F80
3E00
ENDCHAR
STARTCHAR guillemotright
ENCODING 187
SWIDTH 527 0
DWIDTH 18 0
BBX 16 16 2 1
BITMAP
0830
3C70
1C38
0E3C
0F1C
071E
078E
038F
07CF
0F1E
1E3C
3C78
38F0
71E0
E1C0
4080
ENDCHAR
STARTCHAR onequarter
ENCODING 188
SWIDTH 865 0
DWIDTH 30 0
BBX 26 25 14 0
BITMAP
3C0003C0
7C000780
0C000F00
18001E00
18001C00
18003800
18007000
1800E000
3001C000
30038000
30070380
300F0780
301E0F00
603C1F00
60381B00
00703300
00E06200
01C0C200
03818600
0703FF80
0E03FF80
1E000600
3C000400
78000C00
F0000C00
ENDCHAR
STARTCHAR onehalf
ENCODING 189
SWIDTH 865 0
DWIDTH 30 0
BBX 26 25 14 0
BITMAP
3C0003C0
7C000780
0C000F00
18001E00
18001C00
18003800
18007000
1800E000
3001C000
30038000
30071F00
300F3F80
301E21C0
603C00C0
603800C0
00700180
00E00180
01C00700
03800E00
07001800
0E003000
1E006000
3C00C000
7801FF00
F001FF00
ENDCHAR
STARTCHAR threequarters
ENCODING 190
SWIDTH 865 0
DWIDTH 30 0
BBX 28 25 16 0
BITMAP
1F8000F0
1FC001E0
10C003C0
00C00780
00C00700
01800E00
1F001C00
1F003800
03807000
0180E000
0181C0E0
0183C1E0
838783C0
FF0F07C0
FC0E06C0
001C0CC0
00381880
00703080
00E06180
01C0FFE0
0380FFE0
07800180
0F000100
1E000300
3C000300
ENDCHAR
STARTCHAR questiondown
ENCODING 191
SWIDTH 464 0
DWIDTH 16 0
BBX 13 25 1 -7
BITMAP
0038
0038
0038
0000
0000
0000
0070
0070
00F0
00E0
01C0
03C0
0780
0F00
1C00
3C00
7800
7000
F000
F000
F000
F818
7FF8
7FF0
1FE0
ENDCHAR
STARTCHAR Agrave
ENCODING 192
SWIDTH 687 0
DWIDTH 23 0
BBX 22 32 1 0
BITMAP
000780
000380
0001C0
0001C0
0000E0
000000
000000
000380
0007C0
000FC0
000FC0
001FC0
001DC0
003DE0
0039E0
0071E0
0070E0
00E0E0
01E0E0
01C0F0
03C0F0
038070
078070
07FFF0
0FFFF8
0FFFF8
1C0078
3C0078
380038
78003C
70003C
E0003C
ENDCHAR
STARTCHAR Aacute
ENCODING 193
SWIDTH 687 0
DWIDTH 23 0
BBX 22 32 1 0
BITMAP
000078
0000E0
0001C0
000380
000700
000000
000000
000380
0007C0
000FC0
000FC0
001FC0
001DC0
003DE0
0039E0
0071E0
0070E0
00E0E0
01E0E0
01C0F0
03C0F0
038070
078070
07FFF0
0FFFF8
0FFFF8
1C0078
3C0078
380038
78003C
70003C
E0003C
ENDCHAR
STARTCHAR Acircumflex
ENCODING 194
SWIDTH 687 0
DWIDTH 23 0
BBX 22 32 1 0
BITMAP
0001E0
0003E0
000670
000C70
003838
000000
000000
000380
0007C0
000FC0
000FC0
001FC0
001DC0
003DE0
0039E0
0071E0
0070E0
00E0E0
01E0E0
01C0F0
03C0F0
038070
078070
07FFF0
0FFFF8
0FFFF8
1C0078
3C0078
380038
78003C
70003C
E0003C
ENDCHAR
STARTCHAR Atilde
ENCODING 195
SWIDTH 687 0
DWIDTH 23 0
BBX 22 30 1 0
BITMAP
00078C
000FF8
0018F0
000000
000000
000380
0007C0
000FC0
000FC0
001FC0
001DC0
003DE0
0039E0
0071E0
0070E0
00E0E0
01E0E0
01C0F0
03C0F0
038070
078070
07FFF0
0FFFF8
0FFFF8
1C0078
3C0078
380038
78003C
70003C
E0003C
ENDCHAR
STARTCHAR Adieresis
ENCODING 196
SWIDTH 687 0
DWIDTH 23 0
BBX 22 30 1 0
BITMAP
000C38
001C38
001C70
000000
000000
000380
0007C0
000FC0
000FC0
001FC0
001DC0
003DE0
0039E0
0071E0
0070E0
00E0E0
01E0E0
01C0F0
03C0F0
038070
078070
07FFF0
0FFFF8
0FFFF8
1C0078
3C0078
380038
78003C
70003C
E0003C
ENDCHAR
STARTCHAR Aring
ENCODING 197
SWIDTH 687 0
DWIDTH 23 0
BBX 22 32 1 0
BITMAP
0001C0
000360
000220
000360
0001C0
000000
000000
000380
0007C0
000FC0
000FC0
001FC0
001DC0
003DE0
0039E0
0071E0
0070E0
00E0E0
01E0E0
01C0F0
03C0F0
038070
078070
07FFF0
0FFFF8
0FFFF8
1C0078
3C0078
380038
78003C
70003C
E0003C
ENDCHAR
STARTCHAR AE
ENCODING 198
SWIDTH 893 0
DWIDTH 30 0
BBX 34 25 0 0
BITMAP
00001FFFC0
00003FFFC0
00007FFFC0
0000FE0000
0000FE0000
0001FE0000
0003DC0000
00079C0000
00073C0000
000E3C0000
001E3C0000
003C3FFC00
00383FFC00
00707FFC00
00F0780000
01E0780000
01FFF00000
03FFF00000
07FFF00000
0F00F00000
0E00F00000
1C00E00000
3800FFFC00
7001FFFC00
F001FFFC00
ENDCHAR
STARTCHAR Ccedilla
ENCODING 199
SWIDTH 679 0
DWIDTH 23 0
BBX 22 32 4 -7
BITMAP
001FF0
007FFC
01FFFC
03E00C
0FC000
0F0000
1E0000
3E0000
3C0000
780000
780000
700000
F00000
F00000
F00000
F00000
F00000
F00000
F00000
F80000
780040
7E03C0
3FFFC0
1FFF00
03F800
018000
038000
01C000
00C000
01C000
07C000
078000
ENDCHAR
STARTCHAR Egrave
ENCODING 200
SWIDTH 547 0
DWIDTH 19 0
BBX 19 32 3 0
BITMAP
00F000
007000
003800
003800
001C00
000000
000000
07FFE0
07FFE0
0FFFE0
0F0000
0F0000
0F0000
0E0000
1E0000
1E0000
1E0000
1E0000
1FFE00
3FFE00
3FFE00
3C0000
3C0000
380000
780000
780000
780000
700000
700000
FFFE00
FFFE00
FFFE00
ENDCHAR
STARTCHAR Eacute
ENCODING 201
SWIDTH 547 0
DWIDTH 19 0
BBX 19 32 3 0
BITMAP
000780
000E00
001C00
003800
007000
000000
000000
07FFE0
07FFE0
0FFFE0
0F0000
0F0000
0F0000
0E0000
1E0000
1E0000
1E0000
1E0000
1FFE00
3FFE00
3FFE00
3C0000
3C0000
380000
780000
780000
780000
700000
700000
FFFE00
FFFE00
FFFE00
ENDCHAR
STARTCHAR Ecircumflex
ENCODING 202
SWIDTH 547 0
DWIDTH 19 0
BBX 19 32 3 0
BITMAP
003C00
007C00
00CE00
018E00
070700
000000
000000
07FFE0
07FFE0
0FFFE0
0F0000
0F0000
0F0000
0E0000
1E0000
1E0000
1E0000
1E0000
1FFE00
3FFE00
3FFE00
3C0000
3C0000
380000
780000
780000
780000
700000
700000
FFFE00
FFFE00
FFFE00
ENDCHAR
STARTCHAR Edieresis
ENCODING 203
SWIDTH 547 0
DWIDTH 19 0
BBX 19 30 3 0
BITMAP
018700
038700
038E00
000000
000000
07FFE0
07FFE0
0FFFE0
0F0000
0F0000
0F0000
0E0000
1E0000
1E0000
1E0000
1E0000
1FFE00
3FFE00
3FFE00
3C0000
3C0000
380000
780000
780000
780000
700000
700000
FFFE00
FFFE00
FFFE00
ENDCHAR
STARTCHAR Igrave
ENCODING 204
SWIDTH 289 0
DWIDTH 10 0
BBX 9 32 3 0
BITMAP
1E00
0E00
0700
0700
0380
0000
0000
0F00
0F00
0F00
0E00
0E00
0E00
1E00
1E00
1C00
1C00
1C00
3C00
3C00
3C00
3800
3800
3800
7800
7800
7000
7000
7000
F000
F000
F000
ENDCHAR
STARTCHAR Iacute
ENCODING 205
SWIDTH 289 0
DWIDTH 10 0
BBX 12 32 3 0
BITMAP
00F0
01C0
0380
0700
0E00
0000
0000
0F00
0F00
0F00
0E00
0E00
0E00
1E00
1E00
1C00
1C00
1C00
3C00
3C00
3C00
3800
3800
3800
7800
7800
7000
7000
7000
F000
F000
F000
ENDCHAR
STARTCHAR Icircumflex
ENCODING 206
SWIDTH 289 0
DWIDTH 10 0
BBX 12 32 3 0
BITMAP
03C0
07C0
0CE0
18E0
7070
0000
0000
0F00
0F00
0F00
0E00
0E00
0E00
1E00
1E00
1C00
1C00
1C00
3C00
3C00
3C00
3800
3800
3800
7800
7800
7000
7000
7000
F000
F000
F000
ENDCHAR
STARTCHAR Idieresis
ENCODING 207
SWIDTH 289 0
DWIDTH 10 0
BBX 12 30 3 0
BITMAP
1870
3870
38E0
0000
0000
0F00
0F00
0F00
0E00
0E00
0E00
1E00
1E00
1C00
1C00
1C00
3C00
3C00
3C00
3800
3800
3800
7800
7800
7000
7000
7000
F000
F000
F000
ENDCHAR
STARTCHAR Eth
ENCODING 208
SWIDTH 743 0
DWIDTH 25 0
BBX 25 25 2 0
BITMAP
03FFF000
03FFFC00
03FFFE00
03807F00
07801F00
07800F80
07800780
07000780
07000780
0F000780
0F000780
FFF80780
FFF80780
FFF80700
0E000F00
1E000F00
1E001E00
1C001E00
1C003C00
1C007800
3C00F000
3C03E000
3FFFC000
3FFF8000
7FFC0000
ENDCHAR
STARTCHAR Ntilde
ENCODING 209
SWIDTH 741 0
DWIDTH 25 0
BBX 24 30 3 0
BITMAP
001E30
003FE0
0063C0
000000
000000
078007
078007
0F8007
0FC00E
0FC00E
0FE00E
0EE00E
1CF00E
1CF01C
1C781C
1C781C
1C381C
383C1C
381C38
381E38
381E38
380F38
700F38
700770
7007F0
7003F0
7003F0
E001F0
E001E0
E001E0
ENDCHAR
STARTCHAR Ograve
ENCODING 210
SWIDTH 777 0
DWIDTH 26 0
BBX 24 32 4 0
BITMAP
001E00
000E00
000700
000700
000380
000000
000000
001FC0
007FF8
01FFFC
03F07E
07C01E
0F001E
1E000F
3C000F
3C000F
78000F
78000F
70000F
F0000F
F0000E
F0001E
F0001E
F0003C
F0003C
F00078
7800F0
7C03E0
7E0FC0
3FFF80
1FFE00
03F800
ENDCHAR
STARTCHAR Oacute
ENCODING 211
SWIDTH 777 0
DWIDTH 26 0
BBX 24 32 4 0
BITMAP
0000F0
0001C0
000380
000700
000E00
000000
000000
001FC0
007FF8
01FFFC
03F07E
07C01E
0F001E
1E000F
3C000F
3C000F
78000F
78000F
70000F
F0000F
F0000E
F0001E
F0001E
F0003C
F0003C
F00078
7800F0
7C03E0
7E0FC0
3FFF80
1FFE00
03F800
ENDCHAR
STARTCHAR Ocircumflex
ENCODING 212
SWIDTH 777 0
DWIDTH 26 0
BBX 24 32 4 0
BITMAP
0003C0
0007C0
000CE0
0018E0
007070
000000
000000
001FC0
007FF8
01FFFC
03F07E
07C01E
0F001E
1E000F
3C000F
3C000F
78000F
78000F
70000F
F0000F
F0000E
F0001E
F0001E
F0003C
F0003C
F00078
7800F0
7C03E0
7E0FC0
3FFF80
1FFE00
03F800
ENDCHAR
STARTCHAR Otilde
ENCODING 213
SWIDTH 777 0
DWIDTH 26 0
BBX 24 30 4 0
BITMAP
001E30
003FE0
0063C0
000000
000000
001FC0
007FF8
01FFFC
03F07E
07C01E
0F001E
1E000F
3C000F
3C000F
78000F
78000F
70000F
F0000F
F0000E
F0001E
F0001E
F0003C
F0003C
F00078
7800F0
7C03E0
7E0FC0
3FFF80
1FFE00
03F800
ENDCHAR
STARTCHAR Odieresis
ENCODING 214
SWIDTH 777 0
DWIDTH 26 0
BBX 24 30 4 0
BITMAP
001870
003870
0038E0
000000
000000
001FC0
007FF8
01FFFC
03F07E
07C01E
0F001E
1E000F
3C000F
3C000F
78000F
78000F
70000F
F0000F
F0000E
F0001E
F0001E
F0003C
F0003C
F00078
7800F0
7C03E0
7E0FC0
3FFF80
1FFE00
03F800
ENDCHAR
STARTCHAR multiply
ENCODING 215
SWIDTH 633 0
DWIDTH 21 0
BBX 23 21 1 0
BITMAP
040004
1C000E
0E001C
070038
0780F0
0381E0
01C3C0
00E780
007F00
007E00
003800
007C00
01FE00
03CF00
078700
0F0780
1E03C0
3801E0
7000F0
E000F0
400040
ENDCHAR
STARTCHAR Oslash
ENCODING 216
SWIDTH 777 0
DWIDTH 26 0
BBX 28 25 6 0
BITMAP
0007F0F0
001FFFE0
007FFFC0
00FC1F80
01F00F80
03C01F80
07803FC0
0F007BC0
0F00F3C0
1E01E3C0
1E03C3C0
1C0783C0
3C0F03C0
3C1E0380
3C3C0780
3C780780
3CF00F00
3DE00F00
3FC01E00
1F803C00
1F00F800
1F83F000
3FFFE000
7FFF8000
F0FE0000
ENDCHAR
STARTCHAR Ugrave
ENCODING 217
SWIDTH 693 0
DWIDTH 24 0
BBX 21 32 4 0
BITMAP
007800
003800
001C00
001C00
000E00
000000
000000
1E0038
1E0038
1E0078
1C0070
3C0070
3C0070
3C0070
3C00F0
3800E0
7800E0
7800E0
7800E0
7801E0
7001C0
F001C0
F001C0
F001C0
F00380
F00380
F00780
F80700
7C1E00
7FFE00
3FF800
0FE000
ENDCHAR
STARTCHAR Uacute
ENCODING 218
SWIDTH 693 0
DWIDTH 24 0
BBX 21 32 4 0
BITMAP
0003C0
000700
000E00
001C00
003800
000000
000000
1E0038
1E0038
1E0078
1C0070
3C0070
3C0070
3C0070
3C00F0
3800E0
7800E0
7800E0
7800E0
7801E0
7001C0
F001C0
F001C0
F001C0
F00380
F00380
F00780
F80700
7C1E00
7FFE00
3FF800
0FE000
ENDCHAR
STARTCHAR Ucircumflex
ENCODING 219
SWIDTH 693 0
DWIDTH 24 0
BBX 21 32 4 0
BITMAP
000F00
001F00
003380
006380
01C1C0
000000
000000
1E0038
1E0038
1E0078
1C0070
3C0070
3C0070
3C0070
3C00F0
3800E0
7800E0
7800E0
7800E0
7801E0
7001C0
F001C0
F001C0
F001C0
F00380
F00380
F00780
F80700
7C1E00
7FFE00
3FF800
0FE000
ENDCHAR
STARTCHAR Udieresis
ENCODING 220
SWIDTH 693 0
DWIDTH 24 0
BBX 21 30 4 0
BITMAP
00C380
01C380
01C700
000000
000000
1E0038
1E0038
1E0078
1C0070
3C0070
3C0070
3C0070
3C00F0
3800E0
7800E0
7800E0
7800E0
7801E0
7001C0
F001C0
F001C0
F001C0
F00380
F00380
F00780
F80700
7C1E00
7FFE00
3FF800
0FE000
ENDCHAR
STARTCHAR Yacute
ENCODING 221
SWIDTH 608 0
DWIDTH 21 0
BBX 20 32 5 0
BITMAP
000F00
001C00
003800
007000
00E000
000000
000000
F000F0
7001E0
7803C0
780380
3C0780
3C0F00
1C1E00
1E3C00
0E3800
0F7800
0FF000
07E000
07C000
03C000
038000
078000
078000
078000
070000
070000
0F0000
0F0000
0E0000
0E0000
1E0000
ENDCHAR
STARTCHAR Thorn
ENCODING 222
SWIDTH 575 0
DWIDTH 20 0
BBX 18 25 3 0
BITMAP
078000
070000
0F0000
0F0000
0F0000
0FFE00
0FFF80
1FFF80
1E07C0
1E03C0
1C03C0
1C03C0
3C03C0
3C0380
3C0780
380F00
383E00
7FFC00
7FF000
7FC000
700000
700000
F00000
F00000
F00000
ENDCHAR
STARTCHAR germandbls
ENCODING 223
SWIDTH 595 0
DWIDTH 20 0
BBX 18 34 2 -7
BITMAP
003E00
00FF00
01FF80
03C780
038380
038380
078780
070700
071E00
073C00
0F7800
0F7000
0E7000
0E7800
0E7800
0E3E00
1E1F00
1C0F80
1C0780
1C03C0
1C01C0
3C01C0
3801C0
3883C0
38FF80
39FF00
78FC00
780000
700000
700000
700000
F00000
F00000
E00000
ENDCHAR
STARTCHAR agrave
ENCODING 224
SWIDTH 608 0
DWIDTH 21 0
BBX 18 25 3 0
BITMAP
007800
003800
001C00
001C00
000E00
000000
000000
007FC0
01FFC0
03FFC0
078380
0F0380
1E0380
3C0780
380780
780F00
701F00
F03F00
F07F00
F0FF00
F1FE00
F3EE00
FFCE00
7F1E00
3C1E00
ENDCHAR
STARTCHAR aacute
ENCODING 225
SWIDTH 608 0
DWIDTH 21 0
BBX 18 25 3 0
BITMAP
0003C0
000700
000E00
001C00
003800
000000
000000
007FC0
01FFC0
03FFC0
078380
0F0380
1E0380
3C0780
380780
780F00
701F00
F03F00
F07F00
F0FF00
F1FE00
F3EE00
FFCE00
7F1E00
3C1E00
ENDCHAR
STARTCHAR acircumflex
ENCODING 226
SWIDTH 608 0
DWIDTH 21 0
BBX 18 25 3 0
BITMAP
000F00
001F00
003380
006380
01C1C0
000000
000000
007FC0
01FFC0
03FFC0
078380
0F0380
1E0380
3C0780
380780
780F00
701F00
F03F00
F07F00
F0FF00
F1FE00
F3EE00
FFCE00
7F1E00
3C1E00
ENDCHAR
STARTCHAR atilde
ENCODING 227
SWIDTH 608 0
DWIDTH 21 0
BBX 18 23 3 0
BITMAP
0078C0
00FF80
018F00
000000
000000
007FC0
01FFC0
03FFC0
078380
0F0380
1E0380
3C0780
380780
780F00
701F00
F03F00
F07F00
F0FF00
F1FE00
F3EE00
FFCE00
7F1E00
3C1E00
ENDCHAR
STARTCHAR adieresis
ENCODING 228
SWIDTH 608 0
DWIDTH 21 0
BBX 18 23 3 0
BITMAP
00C380
01C380
01C700
000000
000000
007FC0
01FFC0
03FFC0
078380
0F0380
1E0380
3C0780
380780
780F00
701F00
F03F00
F07F00
F0FF00
F1FE00
F3EE00
FFCE00
7F1E00
3C1E00
ENDCHAR
STARTCHAR aring
ENCODING 229
SWIDTH 608 0
DWIDTH 21 0
BBX 18 25 3 0
BITMAP
001C00
003600
002200
003600
001C00
000000
000000
007FC0
01FFC0
03FFC0
078380
0F0380
1E0380
3C0780
380780
780F00
701F00
F03F00
F07F00
F0FF00
F1FE00
F3EE00
FFCE00
7F1E00
3C1E00
ENDCHAR
STARTCHAR ae
ENCODING 230
SWIDTH 893 0
DWIDTH 30 0
BBX 27 18 3 0
BITMAP
007FCFC0
01FFFFE0
03FFFFE0
07C3F0E0
0F03E0E0
1E03C0E0
3C0781C0
380F83C0
780F1F00
701FFE00
F03FF000
F07F0000
F0F70020
F1F70060
F3E783E0
FFC7FFE0
7F83FF80
3E00FC00
ENDCHAR
STARTCHAR ccedilla
ENCODING 231
SWIDTH 503 0
DWIDTH 17 0
BBX 15 25 3 -7
BITMAP
00FE
03FE
07FE
0F82
1E00
3C00
7800
7000
7000
F000
F000
F000
F000
F008
F838
7FF8
3FF0
1F80
0600
0E00
0700
0300
0700
1F00
1E00
ENDCHAR
STARTCHAR egrave
ENCODING 232
SWIDTH 529 0
DWIDTH 18 0
BBX 15 25 3 0
BITMAP
00F0
0070
0038
0038
001C
0000
0000
00F8
03FC
0FFE
1F1E
1C0E
381C
781C
7078
71F0
FFC0
FE00
E000
E002
F00C
F83C
7FFC
3FF0
1FC0
ENDCHAR
STARTCHAR eacute
ENCODING 233
SWIDTH 529 0
DWIDTH 18 0
BBX 16 25 3 0
BITMAP
000F
001C
0038
0070
00E0
0000
0000
00F8
03FC
0FFE
1F1E
1C0E
381C
781C
7078
71F0
FFC0
FE00
E000
E002
F00C
F83C
7FFC
3FF0
1FC0
ENDCHAR
STARTCHAR ecircumflex
ENCODING 234
SWIDTH 529 0
DWIDTH 18 0
BBX 16 25 3 0
BITMAP
003C
007C
00CE
018E
0707
0000
0000
00F8
03FC
0FFE
1F1E
1C0E
381C
781C
7078
71F0
FFC0
FE00
E000
E002
F00C
F83C
7FFC
3FF0
1FC0
ENDCHAR
STARTCHAR edieresis
ENCODING 235
SWIDTH 529 0
DWIDTH 18 0
BBX 16 23 3 0
BITMAP
0187
0387
038E
0000
0000
00F8
03FC
0FFE
1F1E
1C0E
381C
781C
7078
71F0
FFC0
FE00
E000
E002
F00C
F83C
7FFC
3FF0
1FC0
ENDCHAR
STARTCHAR igrave
ENCODING 236
SWIDTH 289 0
DWIDTH 10 0
BBX 9 25 3 0
BITMAP
1E00
0E00
0700
0700
0380
0000
0000
0E00
1E00
1C00
1C00
1C00
1C00
3C00
3800
3800
3800
3800
7800
7000
7000
7000
7000
F000
E000
ENDCHAR
STARTCHAR iacute
ENCODING 237
SWIDTH 289 0
DWIDTH 10 0
BBX 12 25 3 0
BITMAP
00F0
01C0
0380
0700
0E00
0000
0000
0E00
1E00
1C00
1C00
1C00
1C00
3C00
3800
3800
3800
3800
7800
7000
7000
7000
7000
F000
E000
ENDCHAR
STARTCHAR icircumflex
ENCODING 238
SWIDTH 289 0
DWIDTH 10 0
BBX 12 25 3 0
BITMAP
03C0
07C0
0CE0
18E0
7070
0000
0000
0E00
1E00
1C00
1C00
1C00
1C00
3C00
3800
3800
3800
3800
7800
7000
7000
7000
7000
F000
E000
ENDCHAR
STARTCHAR idieresis
ENCODING 239
SWIDTH 289 0
DWIDTH 10 0
BBX 12 23 3 0
BITMAP
1870
3870
38E0
0000
0000
0E00
1E00
1C00
1C00
1C00
1C00
3C00
3800
3800
3800
3800
7800
7000
7000
7000
7000
F000
E000
ENDCHAR
STARTCHAR eth
ENCODING 240
SWIDTH 556 0
DWIDTH 19 0
BBX 16 26 3 0
BITMAP
0FC6
0FFE
1FFF
00FC
01FC
07FE
03CE
010F
00FF
03FF
0FFF
1F0F
1C07
3C07
7807
7007
7007
F007
F006
F00E
F01E
F03C
F878
7FF0
3FE0
1F80
ENDCHAR
STARTCHAR ntilde
ENCODING 241
SWIDTH 620 0
DWIDTH 21 0
BBX 18 23 3 0
BITMAP
0078C0
00FF80
018F00
000000
000000
0E0F80
1E3FC0
1E7FC0
1CF3C0
1DE1C0
1FC3C0
3F83C0
3F8380
3F0380
3E0380
3C0780
7C0780
780700
700700
700700
700F00
F00F00
E00E00
ENDCHAR
STARTCHAR ograve
ENCODING 242
SWIDTH 566 0
DWIDTH 19 0
BBX 17 25 3 0
BITMAP
00F000
007000
003800
003800
001C00
000000
000000
00F800
03FE00
0FFF00
1F0F00
1C0780
380780
780780
700780
700700
F00700
F00700
F00E00
F01E00
F03C00
F07800
7FF000
3FE000
1F8000
ENDCHAR
STARTCHAR oacute
ENCODING 243
SWIDTH 566 0
DWIDTH 19 0
BBX 17 25 3 0
BITMAP
000780
000E00
001C00
003800
007000
000000
000000
00F800
03FE00
0FFF00
1F0F00
1C0780
380780
780780
700780
700700
F00700
F00700
F00E00
F01E00
F03C00
F07800
7FF000
3FE000
1F8000
ENDCHAR
STARTCHAR ocircumflex
ENCODING 244
SWIDTH 566 0
DWIDTH 19 0
BBX 17 25 3 0
BITMAP
001E00
003E00
006700
00C700
038380
000000
000000
00F800
03FE00
0FFF00
1F0F00
1C0780
380780
780780
700780
700700
F00700
F00700
F00E00
F01E00
F03C00
F07800
7FF000
3FE000
1F8000
ENDCHAR
STARTCHAR otilde
ENCODING 245
SWIDTH 566 0
DWIDTH 19 0
BBX 17 23 3 0
BITMAP
00F180
01FF00
031E00
000000
000000
00F800
03FE00
0FFF00
1F0F00
1C0780
380780
780780
700780
700700
F00700
F00700
F00E00
F01E00
F03C00
F07800
7FF000
3FE000
1F8000
ENDCHAR
STARTCHAR odieresis
ENCODING 246
SWIDTH 566 0
DWIDTH 19 0
BBX 17 23 3 0
BITMAP
00C380
01C380
01C700
000000
000000
00F800
03FE00
0FFF00
1F0F00
1C0780
380780
780780
700780
700700
F00700
F00700
F00E00
F01E00
F03C00
F07800
7FF000
3FE000
1F8000
ENDCHAR
STARTCHAR divide
ENCODING 247
SWIDTH 633 0
DWIDTH 21 0
BBX 20 17 3 1
BITMAP
003C00
007800
007800
000000
000000
000000
000000
FFFFF0
FFFFF0
FFFFF0
000000
000000
000000
000000
01E000
01E000
03C000
ENDCHAR
STARTCHAR oslash
ENCODING 248
SWIDTH 566 0
DWIDTH 19 0
BBX 20 18 4 0
BITMAP
007CF0
01FFE0
07FFC0
0F8780
0E0FC0
1C0FC0
3C1FC0
383BC0
387380
78E380
79C380
7B8700
7F0F00
7E1E00
7E3C00
3FF800
7FF000
FFC000
ENDCHAR
STARTCHAR ugrave
ENCODING 249
SWIDTH 620 0
DWIDTH 21 0
BBX 17 25 4 0
BITMAP
00F000
007000
003800
003800
001C00
000000
000000
1C0380
1C0780
380780
380700
380700
380700
380F00
701F00
703E00
703E00
707E00
70FE00
E1FE00
E1FC00
F3DC00
FF9C00
FE1C00
7C3C00
ENDCHAR
STARTCHAR uacute
ENCODING 250
SWIDTH 620 0
DWIDTH 21 0
BBX 17 25 4 0
BITMAP
000780
000E00
001C00
003800
007000
000000
000000
1C0380
1C0780
380780
380700
380700
380700
380F00
701F00
703E00
703E00
707E00
70FE00
E1FE00
E1FC00
F3DC00
FF9C00
FE1C00
7C3C00
ENDCHAR
STARTCHAR ucircumflex
ENCODING 251
SWIDTH 620 0
DWIDTH 21 0
BBX 17 25 4 0
BITMAP
001E00
003E00
006700
00C700
038380
000000
000000
1C0380
1C0780
380780
380700
380700
380700
380F00
701F00
703E00
703E00
707E00
70FE00
E1FE00
E1FC00
F3DC00
FF9C00
FE1C00
7C3C00
ENDCHAR
STARTCHAR udieresis
ENCODING 252
SWIDTH 620 0
DWIDTH 21 0
BBX 17 23 4 0
BITMAP
018700
038700
038E00
000000
000000
1C0380
1C0780
380780
380700
380700
380700
380F00
701F00
703E00
703E00
707E00
70FE00
E1FE00
E1FC00
F3DC00
FF9C00
FE1C00
7C3C00
ENDCHAR
STARTCHAR yacute
ENCODING 253
SWIDTH 548 0
DWIDTH 19 0
BBX 19 32 3 -7
BITMAP
000780
000E00
001C00
003800
007000
000000
000000
7801E0
7801C0
3803C0
380780
380700
380F00
3C0E00
3C1C00
1C3C00
1C3800
1C7800
1EF000
1EE000
1FE000
0FC000
0F8000
0F8000
0F0000
0F0000
0E0000
1C0000
1C0000
380000
700000
F00000
ENDCHAR
STARTCHAR thorn
ENCODING 254
SWIDTH 608 0
DWIDTH 21 0
BBX 19 31 2 -7
BITMAP
038000
078000
078000
070000
070000
070000
0F0780
0F1FC0
0E7FE0
0EF9E0
0EF1E0
0FE1E0
1FC1E0
1F81E0
1F01C0
1E03C0
1E0380
3C0780
380F00
381E00
383C00
3FF800
3FF000
7FC000
700000
700000
700000
700000
F00000
F00000
E00000
ENDCHAR
STARTCHAR ydieresis
ENCODING 255
SWIDTH 548 0
DWIDTH 19 0
BBX 19 30 3 -7
BITMAP
018700
038700
038E00
000000
000000
7801E0
7801C0
3803C0
380780
380700
380F00
3C0E00
3C1C00
1C3C00
1C3800
1C7800
1EF000
1EE000
1FE000
0FC000
0F8000
0F8000
0F0000
0F0000
0E0000
1C0000
1C0000
380000
700000
F00000
ENDCHAR
STARTCHAR Amacron
ENCODING 256
SWIDTH 687 0
DWIDTH 23 0
BBX 22 29 1 0
BITMAP
007FE0
007FE0
007FE0
000000
000380
0007C0
000FC0
000FC0
001FC0
001DC0
003DE0
0039E0
0071E0
0070E0
00E0E0
01E0E0
01C0F0
03C0F0
038070
078070
07FFF0
0FFFF8
0FFFF8
1C0078
3C0078
380038
78003C
70003C
E0003C
ENDCHAR
STARTCHAR amacron
ENCODING 257
SWIDTH 608 0
DWIDTH 21 0
BBX 18 22 3 0
BITMAP
03FF00
03FF00
03FF00
000000
007FC0
01FFC0
03FFC0
078380
0F0380
1E0380
3C0780
380780
780F00
701F00
F03F00
F07F00
F0FF00
F1FE00
F3EE00
FFCE00
7F1E00
3C1E00
ENDCHAR
STARTCHAR Abreve
ENCODING 258
SWIDTH 687 0
DWIDTH 23 0
BBX 22 31 1 0
BITMAP
006030
006060
0070E0
003FC0
001F00
000000
000380
0007C0
000FC0
000FC0
001FC0
001DC0
003DE0
0039E0
0071E0
0070E0
00E0E0
01E0E0
01C0F0
03C0F0
038070
078070
07FFF0
0FFFF8
0FFFF8
1C0078
3C0078
380038
78003C
70003C
E0003C
ENDCHAR
STARTCHAR abreve
ENCODING 259
SWIDTH 608 0
DWIDTH 21 0
BBX 18 24 3 0
BITMAP
030180
030300
038700
01FE00
00F800
000000
007FC0
01FFC0
03FFC0
078380
0F0380
1E0380
3C0780
380780
780F00
701F00
F03F00
F07F00
F0FF00
F1FE00
F3EE00
FFCE00
7F1E00
3C1E00
ENDCHAR
STARTCHAR Aogonek
ENCODING 260
SWIDTH 687 0
DWIDTH 23 0
BBX 22 31 1 -6
BITMAP
000380
0007C0
000FC0
000FC0
001FC0
001DC0
003DE0
0039E0
0071E0
0070E0
00E0E0
01E0E0
01C0F0
03C0F0
038070
078070
07FFF0
0FFFF8
0FFFF8
1C0078
3C0078
380038
78003C
70003C
E0003C
000000
001C00
003000
007000
007A00
003E00
ENDCHAR
STARTCHAR aogonek
ENCODING 261
SWIDTH 608 0
DWIDTH 21 0
BBX 18 24 3 -6
BITMAP
007FC0
01FFC0
03FFC0
078380
0F0380
1E0380
3C0780
380780
780F00
701F00
F03F00
F07F00
F0FF00
F1FE00
F3EE00
FFCE00
7F1E00
3C1E00
000000
01C000
030000
070000
07A000
03E000
ENDCHAR
STARTCHAR Cacute
ENCODING 262
SWIDTH 679 0
DWIDTH 23 0
BBX 22 31 4 0
BITMAP
000780
000E00
001C00
003800
007000
000000
001FF0
007FFC
01FFFC
03E00C
0FC000
0F0000
1E0000
3E0000
3C0000
780000
780000
700000
F00000
F00000
F00000
F00000
F00000
F00000
F00000
F80000
780040
7E03C0
3FFFC0
1FFF00
03F800
ENDCHAR
STARTCHAR cacute
ENCODING 263
SWIDTH 503 0
DWIDTH 17 0
BBX 15 24 3 0
BITMAP
003C
0070
00E0
01C0
0380
0000
00FE
03FE
07FE
0F82
1E00
3C00
7800
7000
7000
F000
F000
F000
F000
F008
F838
7FF8
3FF0
1F80
ENDCHAR
STARTCHAR Ccircumflex
ENCODING 264
SWIDTH 679 0
DWIDTH 23 0
BBX 22 31 4 0
BITMAP
001E00
003E00
006700
00C700
038380
000000
001FF0
007FFC
01FFFC
03E00C
0FC000
0F0000
1E0000
3E0000
3C0000
780000
780000
700000
F00000
F00000
F00000
F00000
F00000
F00000
F00000
F80000
780040
7E03C0
3FFFC0
1FFF00
03F800
ENDCHAR
STARTCHAR ccircumflex
ENCODING 265
SWIDTH 503 0
DWIDTH 17 0
BBX 15 24 3 0
BITMAP
00F0
01F0
0338
0638
1C1C
0000
00FE
03FE
07FE
0F82
1E00
3C00
7800
7000
7000
F000
F000
F000
F000
F008
F838
7FF8
3FF0
1F80
ENDCHAR
STARTCHAR Cdotaccent
ENCODING 266
SWIDTH 679 0
DWIDTH 23 0
BBX 22 29 4 0
BITMAP
001C00
003C00
003800
000000
001FF0
007FFC
01FFFC
03E00C
0FC000
0F0000
1E0000
3E0000
3C0000
780000
780000
700000
F00000
F00000
F00000
F00000
F00000
F00000
F00000
F80000
780040
7E03C0
3FFFC0
1FFF00
03F800
ENDCHAR
STARTCHAR cdotaccent
ENCODING 267
SWIDTH 503 0
DWIDTH 17 0
BBX 15 22 3 0
BITMAP
00E0
01E0
01C0
0000
00FE
03FE
07FE
0F82
1E00
3C00
7800
7000
7000
F000
F000
F000
F000
F008
F838
7FF8
3FF0
1F80
ENDCHAR
STARTCHAR Ccaron
ENCODING 268
SWIDTH 679 0
DWIDTH 23 0
BBX 22 31 4 0
BITMAP
01C1C0
00E380
00E700
007E00
007C00
000000
001FF0
007FFC
01FFFC
03E00C
0FC000
0F0000
1E0000
3E0000
3C0000
780000
780000
700000
F00000
F00000
F00000
F00000
F00000
F00000
F00000
F80000
780040
7E03C0
3FFFC0
1FFF00
03F800
ENDCHAR
STARTCHAR ccaron
ENCODING 269
SWIDTH 503 0
DWIDTH 17 0
BBX 15 24 3 0
BITMAP
0E0E
071C
0738
03F0
03E0
0000
00FE
03FE
07FE
0F82
1E00
3C00
7800
7000
7000
F000
F000
F000
F000
F008
F838
7FF8
3FF0
1F80
ENDCHAR
STARTCHAR Dcaron
ENCODING 270
SWIDTH 743 0
DWIDTH 25 0
BBX 23 31 3 0
BITMAP
00E0E0
0071C0
007380
003F00
003E00
000000
07FFC0
07FFF0
0FFFF8
0F01FC
0E007C
0E003E
0E001E
1E001E
1E001E
1C001E
1C001E
1C001E
3C001E
3C001C
38003C
38003C
380078
780078
7800F0
7001E0
7003E0
700FC0
FFFF80
FFFE00
FFF000
ENDCHAR
STARTCHAR dcaron
ENCODING 271
SWIDTH 795 0
DWIDTH 27 0
BBX 28 26 3 0
BITMAP
000070F0
0000F0F0
0000E1F0
0000E1F0
0000E0E0
0000E0E0
0001E0E0
0001C1C0
007FC3C0
01FFC380
03FFC000
07C3C000
0F038000
1E038000
3C038000
38078000
780F8000
701F0000
F03F0000
F07F0000
F0FF0000
F1FF0000
F3EE0000
FFCE0000
7F0E0000
3C1E0000
ENDCHAR
STARTCHAR Dcroat
ENCODING 272
SWIDTH 743 0
DWIDTH 25 0
BBX 25 25 2 0
BITMAP
03FFF000
03FFFC00
03FFFE00
03807F00
07801F00
07800F80
07800780
07000780
07000780
0F000780
0F000780
FFF80780
FFF80780
FFF80700
0E000F00
1E000F00
1E001E00
1C001E00
1C003C00
1C007800
3C00F000
3C03E000
3FFFC000
3FFF8000
7FFC0000
ENDCHAR
STARTCHAR dcroat
ENCODING 273
SWIDTH 608 0
DWIDTH 21 0
BBX 20 26 3 0
BITMAP
000070
0000F0
0000E0
0000E0
0000E0
001FE0
001FE0
001FE0
007FC0
01FFC0
03FFC0
07C3C0
0F0380
1E0380
3C0380
380780
780F80
701F00
F03F00
F07F00
F0FF00
F1FF00
F3EE00
FFCE00
7F0E00
3C1E00
ENDCHAR
STARTCHAR Emacron
ENCODING 274
SWIDTH 547 0
DWIDTH 19 0
BBX 19 29 3 0
BITMAP
07FE00
07FE00
07FE00
000000
07FFE0
07FFE0
0FFFE0
0F0000
0F0000
0F0000
0E0000
1E0000
1E0000
1E0000
1E0000
1FFE00
3FFE00
3FFE00
3C0000
3C0000
380000
780000
780000
780000
700000
700000
FFFE00
FFFE00
FFFE00
ENDCHAR
STARTCHAR emacron
ENCODING 275
SWIDTH 529 0
DWIDTH 18 0
BBX 15 22 3 0
BITMAP
0FFC
0FFC
0FFC
0000
00F8
03FC
0FFE
1F1E
1C0E
381C
781C
7078
71F0
FFC0
FE00
E000
E002
F00C
F83C
7FFC
3FF0
1FC0
ENDCHAR
STARTCHAR Ebreve
ENCODING 276
SWIDTH 547 0
DWIDTH 19 0
BBX 19 31 3 0
BITMAP
060300
060600
070E00
03FC00
01F000
000000
07FFE0
07FFE0
0FFFE0
0F0000
0F0000
0F0000
0E0000
1E0000
1E0000
1E0000
1E0000
1FFE00
3FFE00
3FFE00
3C0000
3C0000
380000
780000
780000
780000
700000
700000
FFFE00
FFFE00
FFFE00
ENDCHAR
STARTCHAR ebreve
ENCODING 277
SWIDTH 529 0
DWIDTH 18 0
BBX 15 24 3 0
BITMAP
0C06
0C0C
0E1C
07F8
03E0
0000
00F8
03FC
0FFE
1F1E
1C0E
381C
781C
7078
71F0
FFC0
FE00
E000
E002
F00C
F83C
7FFC
3FF0
1FC0
ENDCHAR
STARTCHAR Edotaccent
ENCODING 278
SWIDTH 547 0
DWIDTH 19 0
BBX 19 29 3 0
BITMAP
007000
00F000
00E000
000000
07FFE0
07FFE0
0FFFE0
0F0000
0F0000
0F0000
0E0000
1E0000
1E0000
1E0000
1E0000
1FFE00
3FFE00
3FFE00
3C0000
3C0000
380000
780000
780000
780000
700000
700000
FFFE00
FFFE00
FFFE00
ENDCHAR
STARTCHAR edotaccent
ENCODING 279
SWIDTH 529 0
DWIDTH 18 0
BBX 15 22 3 0
BITMAP
00E0
01E0
01C0
0000
00F8
03FC
0FFE
1F1E
1C0E
381C
781C
7078
71F0
FFC0
FE00
E000
E002
F00C
F83C
7FFC
3FF0
1FC0
ENDCHAR
STARTCHAR Eogonek
ENCODING 280
SWIDTH 547 0
DWIDTH 19 0
BBX 19 31 3 -6
BITMAP
07FFE0
07FFE0
0FFFE0
0F0000
0F0000
0F0000
0E0000
1E0000
1E0000
1E0000
1E0000
1FFE00
3FFE00
3FFE00
3C0000
3C0000
380000
780000
780000
780000
700000
700000
FFFE00
FFFE00
FFFE00
000000
038000
060000
0E0000
0F4000
07C000
ENDCHAR
STARTCHAR eogonek
ENCODING 281
SWIDTH 529 0
DWIDTH 18 0
BBX 15 24 3 -6
BITMAP
00F8
03FC
0FFE
1F1E
1C0E
381C
781C
7078
71F0
FFC0
FE00
E000
E002
F00C
F83C
7FFC
3FF0
1FC0
0000
0380
0600
0E00
0F40
07C0
ENDCHAR
STARTCHAR Ecaron
ENCODING 282
SWIDTH 547 0
DWIDTH 19 0
BBX 19 31 3 0
BITMAP
070700
038E00
039C00
01F800
01F000
000000
07FFE0
07FFE0
0FFFE0
0F0000
0F0000
0F0000
0E0000
1E0000
1E0000
1E0000
1E0000
1FFE00
3FFE00
3FFE00
3C0000
3C0000
380000
780000
780000
780000
700000
700000
FFFE00
FFFE00
FFFE00
ENDCHAR
STARTCHAR ecaron
ENCODING 283
SWIDTH 529 0
DWIDTH 18 0
BBX 15 24 3 0
BITMAP
0E0E
071C
0738
03F0
03E0
0000
00F8
03FC
0FFE
1F1E
1C0E
381C
781C
7078
71F0
FFC0
FE00
E000
E002
F00C
F83C
7FFC
3FF0
1FC0
ENDCHAR
STARTCHAR Gcircumflex
ENCODING 284
SWIDTH 702 0
DWIDTH 24 0
BBX 22 31 4 0
BITMAP
001E00
003E00
006700
00C700
038380
000000
001FF0
007FFC
01FFFC
03F00C
0F8000
0F0000
1E0000
3C0000
3C0000
780000
780000
700000
F00000
F00000
F000F0
F000E0
F000E0
F000E0
F001E0
F801E0
7C01C0
7E03C0
3FFFC0
1FFFC0
03FC00
ENDCHAR
STARTCHAR gcircumflex
ENCODING 285
SWIDTH 608 0
DWIDTH 21 0
BBX 19 31 2 -7
BITMAP
001E00
003E00
006700
00C700
038380
000000
003FE0
00FFE0
01FFE0
03E1C0
0781C0
0F01C0
1E01C0
1E03C0
3C0780
3C0780
380F80
381B80
783F80
387700
38E700
3FC700
3F8700
1E0F00
000E00
000E00
801C00
F03C00
FFF800
FFF000
1FC000
ENDCHAR
STARTCHAR Gbreve
ENCODING 286
SWIDTH 702 0
DWIDTH 24 0
BBX 22 31 4 0
BITMAP
0180C0
018180
01C380
00FF00
007C00
000000
001FF0
007FFC
01FFFC
03F00C
0F8000
0F0000
1E0000
3C0000
3C0000
780000
780000
700000
F00000
F00000
F000F0
F000E0
F000E0
F000E0
F001E0
F801E0
7C01C0
7E03C0
3FFFC0
1FFFC0
03FC00
ENDCHAR
STARTCHAR gbreve
ENCODING 287
SWIDTH 608 0
DWIDTH 21 0
BBX 19 31 2 -7
BITMAP
030180
030300
038700
01FE00
00F800
000000
003FE0
00FFE0
01FFE0
03E1C0
0781C0
0F01C0
1E01C0
1E03C0
3C0780
3C0780
380F80
381B80
783F80
387700
38E700
3FC700
3F8700
1E0F00
000E00
000E00
801C00
F03C00
FFF800
FFF000
1FC000
ENDCHAR
STARTCHAR Gdotaccent
ENCODING 288
SWIDTH 702 0
DWIDTH 24 0
BBX 22 29 4 0
BITMAP
001C00
003C00
003800
000000
001FF0
007FFC
01FFFC
03F00C
0F8000
0F0000
1E0000
3C0000
3C0000
780000
780000
700000
F00000
F00000
F000F0
F000E0
F000E0
F000E0
F001E0
F801E0
7C01C0
7E03C0
3FFFC0
1FFFC0
03FC00
ENDCHAR
STARTCHAR gdotaccent
ENCODING 289
SWIDTH 608 0
DWIDTH 21 0
BBX 19 29 2 -7
BITMAP
001C00
003C00
003800
000000
003FE0
00FFE0
01FFE0
03E1C0
0781C0
0F01C0
1E01C0
1E03C0
3C0780
3C0780
380F80
381B80
783F80
387700
38E700
3FC700
3F8700
1E0F00
000E00
000E00
801C00
F03C00
FFF800
FFF000
1FC000
ENDCHAR
STARTCHAR Gcommaaccent
ENCODING 290
SWIDTH 702 0
DWIDTH 24 0
BBX 22 38 4 -13
BITMAP
001FF0
007FFC
01FFFC
03F00C
0F8000
0F0000
1E0000
3C0000
3C0000
780000
780000
700000
F00000
F00000
F000F0
F000E0
F000E0
F000E0
F001E0
F801E0
7C01C0
7E03C0
3FFFC0
1FFFC0
03FC00
000000
007800
007800
00F800
00F000
00F000
003000
007000
007000
006000
00E000
01C000
018000
ENDCHAR
STARTCHAR gcommaaccent
ENCODING 291
SWIDTH 608 0
DWIDTH 21 0
BBX 19 36 2 -7
BITMAP
000600
001C00
001800
003800
003000
003000
003C00
007C00
007800
007800
000000
003FE0
00FFE0
01FFE0
03E1C0
0781C0
0F01C0
1E01C0
1E03C0
3C0780
3C0780
380F80
381B80
783F80
387700
38E700
3FC700
3F8700
1E0F00
000E00
000E00
801C00
F03C00
FFF800
FFF000
1FC000
ENDCHAR
STARTCHAR Hcircumflex
ENCODING 292
SWIDTH 735 0
DWIDTH 25 0
BBX 24 31 3 0
BITMAP
000780
000F80
0019C0
0031C0
00E0E0
000000
07000F
07000F
0F000F
0F000E
0F000E
0E001E
0E001E
1E001E
1E001C
1E003C
1FFFFC
1FFFFC
3FFFFC
3C0038
3C0038
380078
380078
780078
780070
780070
7000F0
7000F0
F000F0
F000E0
F000E0
ENDCHAR
STARTCHAR hcircumflex
ENCODING 293
SWIDTH 620 0
DWIDTH 21 0
BBX 18 32 3 0
BITMAP
03C000
07C000
0CE000
18E000
707000
000000
078000
070000
070000
070000
0F0000
0F0000
0E0000
0E0000
0E0F80
1E3FC0
1E7FC0
1CF3C0
1DE1C0
1FC3C0
3F83C0
3F8380
3F0380
3E0380
3C0780
780780
780700
700700
700700
700F00
F00F00
E00E00
ENDCHAR
STARTCHAR Hbar
ENCODING 294
SWIDTH 735 0
DWIDTH 25 0
BBX 24 25 3 0
BITMAP
07000F
07000F
0F000F
0F000E
0F000E
FFFFFF
FFFFFF
FFFFFF
1E001C
1E003C
1FFFFC
1FFFFC
3FFFFC
3C0038
3C0038
380078
380078
780078
780070
780070
7000F0
7000F0
F000F0
F000E0
F000E0
ENDCHAR
STARTCHAR hbar
ENCODING 295
SWIDTH 620 0
DWIDTH 21 0
BBX 18 26 3 0
BITMAP
078000
070000
070000
070000
0F0000
7F8000
7F8000
7F8000
0E0F80
1E3FC0
1E7FC0
1CF3C0
1DE1C0
1FC3C0
3F83C0
3F8380
3F0380
3E0380
3C0780
780780
780700
700700
700700
700F00
F00F00
E00E00
ENDCHAR
STARTCHAR Itilde
ENCODING 296
SWIDTH 289 0
DWIDTH 10 0
BBX 11 29 3 0
BITMAP
3C60
7FC0
C780
0000
0F00
0F00
0F00
0E00
0E00
0E00
1E00
1E00
1C00
1C00
1C00
3C00
3C00
3C00
3800
3800
3800
7800
7800
7000
7000
7000
F000
F000
F000
ENDCHAR
STARTCHAR itilde
ENCODING 297
SWIDTH 289 0
DWIDTH 10 0
BBX 11 22 2 0
BITMAP
3C60
7FC0
C780
0000
0700
0F00
0E00
0E00
0E00
0E00
1E00
1C00
1C00
1C00
1C00
3C00
3800
3800
3800
3800
7800
7000
ENDCHAR
STARTCHAR Imacron
ENCODING 298
SWIDTH 289 0
DWIDTH 10 0
BBX 10 29 3 0
BITMAP
FFC0
FFC0
FFC0
0000
0F00
0F00
0F00
0E00
0E00
0E00
1E00
1E00
1C00
1C00
1C00
3C00
3C00
3C00
3800
3800
3800
7800
7800
7000
7000
7000
F000
F000
F000
ENDCHAR
STARTCHAR imacron
ENCODING 299
SWIDTH 289 0
DWIDTH 10 0
BBX 10 22 2 0
BITMAP
FFC0
FFC0
FFC0
0000
0700
0F00
0E00
0E00
0E00
0E00
1E00
1C00
1C00
1C00
1C00
3C00
3800
3800
3800
3800
7800
7000
ENDCHAR
STARTCHAR Ibreve
ENCODING 300
SWIDTH 289 0
DWIDTH 10 0
BBX 11 31 3 0
BITMAP
C060
C0C0
E1C0
7F80
3E00
0000
0F00
0F00
0F00
0E00
0E00
0E00
1E00
1E00
1C00
1C00
1C00
3C00
3C00
3C00
3800
3800
3800
7800
7800
7000
7000
7000
F000
F000
F000
ENDCHAR
STARTCHAR ibreve
ENCODING 301
SWIDTH 289 0
DWIDTH 10 0
BBX 11 24 2 0
BITMAP
C060
C0C0
E1C0
7F80
3E00
0000
0700
0F00
0E00
0E00
0E00
0E00
1E00
1C00
1C00
1C00
1C00
3C00
3800
3800
3800
3800
7800
7000
ENDCHAR
STARTCHAR Iogonek
ENCODING 302
SWIDTH 289 0
DWIDTH 10 0
BBX 8 31 3 -6
BITMAP
0F
0F
0F
0E
0E
0E
1E
1E
1C
1C
1C
3C
3C
3C
38
38
38
78
78
70
70
70
F0
F0
F0
00
38
60
E0
F4
7C
ENDCHAR
STARTCHAR iogonek
ENCODING 303
SWIDTH 289 0
DWIDTH 10 0
BBX 8 31 3 -6
BITMAP
07
0F
0E
00
00
00
00
1E
1C
1C
1C
1C
3C
38
38
38
38
78
78
70
70
70
F0
F0
E0
00
38
60
E0
F4
7C
ENDCHAR
STARTCHAR Idotaccent
ENCODING 304
SWIDTH 289 0
DWIDTH 10 0
BBX 8 29 3 0
BITMAP
0E
1E
1C
00
0F
0F
0F
0E
0E
0E
1E
1E
1C
1C
1C
3C
3C
3C
38
38
38
78
78
70
70
70
F0
F0
F0
ENDCHAR
STARTCHAR dotlessi
ENCODING 305
SWIDTH 289 0
DWIDTH 10 0
BBX 7 18 3 0
BITMAP
0E
1E
1C
1C
1C
1C
3C
38
38
38
38
78
70
70
70
70
F0
E0
ENDCHAR
STARTCHAR IJ
ENCODING 306
SWIDTH 683 0
DWIDTH 24 0
BBX 23 31 3 -6
BITMAP
0F001E
0F001E
0F001E
0E001C
0E001C
0E003C
1E003C
1E003C
1C0038
1C0038
1C0038
3C0078
3C0078
3C0078
380070
380070
3800F0
7800F0
7800F0
7000E0
7000E0
7000E0
F001E0
F001E0
F001C0
0001C0
0003C0
018780
01FF00
01FE00
01FC00
ENDCHAR
STARTCHAR ij
ENCODING 307
SWIDTH 600 0
DWIDTH 21 0
BBX 20 32 3 -7
BITMAP
070070
0F00F0
0E00E0
000000
000000
000000
000000
1E01E0
1C01C0
1C01C0
1C01C0
1C01C0
3C03C0
3803C0
380380
380380
380380
780780
780780
700700
700700
700700
F00F00
F00F00
E00E00
000E00
001E00
001C00
0C7800
0FF800
0FF000
0FC000
ENDCHAR
STARTCHAR Jcircumflex
ENCODING 308
SWIDTH 408 0
DWIDTH 14 0
BBX 17 37 0 -6
BITMAP
001E00
003E00
006700
00C700
038380
000000
000F00
000F00
000F00
000E00
000E00
001E00
001E00
001E00
001C00
001C00
001C00
003C00
003C00
003C00
003800
003800
007800
007800
007800
007000
007000
007000
00F000
00F000
00E000
00E000
01E000
C3C000
FF8000
FF0000
FE0000
ENDCHAR
STARTCHAR jcircumflex
ENCODING 309
SWIDTH 325 0
DWIDTH 11 0
BBX 16 31 -3 -7
BITMAP
003C
007C
00CE
018E
0707
0000
001E
001C
001C
001C
001C
003C
003C
0038
0038
0038
0078
0078
0070
0070
0070
00F0
00F0
00E0
00E0
01E0
01C0
C780
FF80
FF00
FC00
ENDCHAR
STARTCHAR Kcommaaccent
ENCODING 310
SWIDTH 635 0
DWIDTH 22 0
BBX 21 38 3 -13
BITMAP
070078
0700F0
0F01E0
0F03C0
0E0780
0E0F00
0E1E00
1E3C00
1E7800
1CF000
1DE000
1FC000
3FC000
3DC000
38E000
38F000
387000
787800
783C00
781C00
701E00
700F00
F00700
F00780
F003C0
000000
00F000
00F000
01F000
01E000
01E000
006000
00E000
00E000
00C000
01C000
038000
030000
ENDCHAR
STARTCHAR kcommaaccent
ENCODING 311
SWIDTH 572 0
DWIDTH 20 0
BBX 18 39 3 -13
BITMAP
078000
070000
070000
070000
0F0000
0F0000
0E0000
0E0000
0E03C0
1E0F00
1E1E00
1C3C00
1C7800
1CF000
3DE000
3BC000
3F8000
3BC000
39E000
78E000
70F000
707800
703C00
703C00
F01E00
E00F00
000000
01E000
01E000
03E000
03C000
03C000
00C000
01C000
01C000
018000
038000
070000
060000
ENDCHAR
STARTCHAR kgreenlandic
ENCODING 312
SWIDTH 572 0
DWIDTH 20 0
BBX 18 18 3 0
BITMAP
0E03C0
1E0F00
1E1E00
1C3C00
1C7800
1CF000
3DE000
3BC000
3F8000
3BC000
39E000
78E000
70F000
707800
703C00
703C00
F01E00
E00F00
ENDCHAR
STARTCHAR Lacute
ENCODING 313
SWIDTH 545 0
DWIDTH 19 0
BBX 15 31 3 0
BITMAP
00F0
01C0
0380
0700
0E00
0000
0700
0F00
0F00
0F00
0E00
0E00
0E00
1E00
1E00
1C00
1C00
1C00
3C00
3C00
3800
3800
3800
7800
7800
7000
7000
7000
FFFE
FFFE
FFFE
ENDCHAR
STARTCHAR lacute
ENCODING 314
SWIDTH 289 0
DWIDTH 10 0
BBX 11 32 3 0
BITMAP
01E0
0380
0700
0E00
1C00
0000
0380
0780
0700
0700
0700
0700
0F00
0E00
0E00
0E00
1E00
1C00
1C00
1C00
1C00
3C00
3800
3800
3800
7800
7800
7000
7000
7000
F000
E000
ENDCHAR
STARTCHAR Lcommaaccent
ENCODING 315
SWIDTH 545 0
DWIDTH 19 0
BBX 15 38 3 -13
BITMAP
0700
0F00
0F00
0F00
0E00
0E00
0E00
1E00
1E00
1C00
1C00
1C00
3C00
3C00
3800
3800
3800
7800
7800
7000
7000
7000
FFFE
FFFE
FFFE
0000
0780
0780
0F80
0F00
0F00
0300
0700
0700
0600
0E00
1C00
1800
ENDCHAR
STARTCHAR lcommaaccent
ENCODING 316
SWIDTH 289 0
DWIDTH 10 0
BBX 9 39 3 -13
BITMAP
0380
0780
0700
0700
0700
0700
0F00
0E00
0E00
0E00
1E00
1C00
1C00
1C00
1C00
3C00
3800
3800
3800
7800
7800
7000
7000
7000
F000
E000
0000
3C00
3C00
7C00
7800
7800
1800
3800
3800
3000
7000
E000
C000
ENDCHAR
STARTCHAR Lcaron
ENCODING 317
SWIDTH 735 0
DWIDTH 25 0
BBX 26 26 3 0
BITMAP
000003C0
070003C0
0F0007C0
0F0007C0
0F000380
0E000380
0E000380
0E000700
1E000F00
1E000E00
1C000000
1C000000
1C000000
3C000000
3C000000
38000000
38000000
38000000
78000000
78000000
70000000
70000000
70000000
FFFE0000
FFFE0000
FFFE0000
ENDCHAR
STARTCHAR lcaron
ENCODING 318
SWIDTH 492 0
DWIDTH 17 0
BBX 18 26 3 0
BITMAP
0383C0
0783C0
0707C0
0707C0
070380
070380
0F0380
0E0700
0E0F00
0E0E00
1E0000
1C0000
1C0000
1C0000
1C0000
3C0000
380000
380000
380000
780000
780000
700000
700000
700000
F00000
E00000
ENDCHAR
STARTCHAR Ldot
ENCODING 319
SWIDTH 834 0
DWIDTH 39 0
BBX 30 25 3 0
BITMAP
07000000
0F000000
0F000000
0F000000
0E000000
0E000000
0E000000
1E000000
1E000000
1C000000
1C000000
1C000000
3C00003C
3C00003C
38000078
38000078
38000000
78000000
78000000
70000000
70000000
70000000
FFFE0000
FFFE0000
FFFE0000
ENDCHAR
STARTCHAR ldot
ENCODING 320
SWIDTH 591 0
DWIDTH 31 0
BBX 22 26 3 0
BITMAP
038000
078000
070000
070000
070000
070000
0F0000
0E0000
0E0000
0E0000
1E0000
1C0000
1C0000
1C003C
1C003C
3C0078
380078
380000
380000
780000
780000
700000
700000
700000
F00000
E00000
ENDCHAR
STARTCHAR Lslash
ENCODING 321
SWIDTH 545 0
DWIDTH 19 0
BBX 18 25 1 0
BITMAP
01E000
01C000
01C000
01C000
03C000
03C000
038000
038800
07B800
07F800
07F000
0FC000
1F0000
7F0000
FF0000
EF0000
8E0000
0E0000
1E0000
1E0000
1E0000
1C0000
1FFFC0
3FFFC0
3FFFC0
ENDCHAR
STARTCHAR lslash
ENCODING 322
SWIDTH 289 0
DWIDTH 10 0
BBX 13 26 1 0
BITMAP
01E0
01E0
01C0
01C0
01C0
03C0
0380
0380
0388
07B8
07F0
07F0
0FC0
3F00
7F00
FF00
CE00
0E00
0E00
1E00
1C00
1C00
1C00
1C00
3C00
3800
ENDCHAR
STARTCHAR Nacute
ENCODING 323
SWIDTH 741 0
DWIDTH 25 0
BBX 24 31 3 0
BITMAP
0003C0
000700
000E00
001C00
003800
000000
078007
078007
0F8007
0FC00E
0FC00E
0FE00E
0EE00E
1CF00E
1CF01C
1C781C
1C781C
1C381C
383C1C
381C38
381E38
381E38
380F38
700F38
700770
7007F0
7003F0
7003F0
E001F0
E001E0
E001E0
ENDCHAR
STARTCHAR nacute
ENCODING 324
SWIDTH 620 0
DWIDTH 21 0
BBX 18 24 3 0
BITMAP
001E00
003800
007000
00E000
01C000
000000
0E0F80
1E3FC0
1E7FC0
1CF3C0
1DE1C0
1FC3C0
3F83C0
3F8380
3F0380
3E0380
3C0780
7C0780
780700
700700
700700
700F00
F00F00
E00E00
ENDCHAR
STARTCHAR Ncommaaccent
ENCODING 325
SWIDTH 741 0
DWIDTH 25 0
BBX 24 38 3 -13
BITMAP
078007
078007
0F8007
0FC00E
0FC00E
0FE00E
0EE00E
1CF00E
1CF01C
1C781C
1C781C
1C381C
383C1C
381C38
381E38
381E38
380F38
700F38
700770
7007F0
7003F0
7003F0
E001F0
E001E0
E001E0
000000
003C00
003C00
007C00
007800
007800
001800
003800
003800
003000
007000
00E000
00C000
ENDCHAR
STARTCHAR ncommaaccent
ENCODING 326
SWIDTH 620 0
DWIDTH 21 0
BBX 18 31 3 -13
BITMAP
0E0F80
1E3FC0
1E7FC0
1CF3C0
1DE1C0
1FC3C0
3F83C0
3F8380
3F0380
3E0380
3C0780
7C0780
780700
700700
700700
700F00
F00F00
E00E00
000000
01E000
01E000
03E000
03C000
03C000
00C000
01C000
01C000
018000
038000
070000
060000
ENDCHAR
STARTCHAR Ncaron
ENCODING 327
SWIDTH 741 0
DWIDTH 25 0
BBX 24 31 3 0
BITMAP
01C1C0
00E380
00E700
007E00
007C00
000000
078007
078007
0F8007
0FC00E
0FC00E
0FE00E
0EE00E
1CF00E
1CF01C
1C781C
1C781C
1C381C
383C1C
381C38
381E38
381E38
380F38
700F38
700770
7007F0
7003F0
7003F0
E001F0
E001E0
E001E0
ENDCHAR
STARTCHAR ncaron
ENCODING 328
SWIDTH 620 0
DWIDTH 21 0
BBX 18 24 3 0
BITMAP
070700
038E00
039C00
01F800
01F000
000000
0E0F80
1E3FC0
1E7FC0
1CF3C0
1DE1C0
1FC3C0
3F83C0
3F8380
3F0380
3E0380
3C0780
7C0780
780700
700700
700700
700F00
F00F00
E00E00
ENDCHAR
STARTCHAR napostrophe
ENCODING 329
SWIDTH 826 0
DWIDTH 28 0
BBX 23 26 5 0
BITMAP
3C0000
3C0000
7C0000
7C0000
380000
380000
380000
700000
F0707C
E0F1FE
00F3FE
00E79E
00EF0E
00FE1E
01FC1E
01FC1C
01F81C
01F01C
01E03C
03E03C
03C038
038038
038038
038078
078078
070070
ENDCHAR
STARTCHAR Eng
ENCODING 330
SWIDTH 741 0
DWIDTH 25 0
BBX 24 32 3 -7
BITMAP
078007
078007
0F8007
0FC00E
0FC00E
0FE00E
0EE00E
1CF00E
1CF01C
1C781C
1C781C
1C381C
383C1C
381C38
381E38
381E38
380F38
700F78
700778
7007F0
7003F0
7003F0
E001F0
E001F0
E001E0
0000E0
0001E0
0001C0
00C780
00FF80
00FF00
00FC00
ENDCHAR
STARTCHAR eng
ENCODING 331
SWIDTH 620 0
DWIDTH 21 0
BBX 18 25 3 -7
BITMAP
0E0F80
1E3FC0
1E7FC0
1CF3C0
1DE1C0
1FC3C0
3F83C0
3F8380
3F0380
3E0380
3C0780
7C0780
780700
700700
700700
700F00
F00F00
E00E00
000E00
001E00
001C00
0C7800
0FF800
0FF000
0FC000
ENDCHAR
STARTCHAR Omacron
ENCODING 332
SWIDTH 777 0
DWIDTH 26 0
BBX 24 29 4 0
BITMAP
00FFC0
00FFC0
00FFC0
000000
001FC0
007FF8
01FFFC
03F07E
07C01E
0F001E
1E000F
3C000F
3C000F
78000F
78000F
70000F
F0000F
F0000E
F0001E
F0001E
F0003C
F0003C
F00078
7800F0
7C03E0
7E0FC0
3FFF80
1FFE00
03F800
ENDCHAR
STARTCHAR omacron
ENCODING 333
SWIDTH 566 0
DWIDTH 19 0
BBX 17 22 3 0
BITMAP
07FE00
07FE00
07FE00
000000
00F800
03FE00
0FFF00
1F0F00
1C0780
380780
780780
700780
700700
F00700
F00700
F00E00
F01E00
F03C00
F07800
7FF000
3FE000
1F8000
ENDCHAR
STARTCHAR Obreve
ENCODING 334
SWIDTH 777 0
DWIDTH 26 0
BBX 24 31 4 0
BITMAP
00C060
00C0C0
00E1C0
007F80
003E00
000000
001FC0
007FF8
01FFFC
03F07E
07C01E
0F001E
1E000F
3C000F
3C000F
78000F
78000F
70000F
F0000F
F0000E
F0001E
F0001E
F0003C
F0003C
F00078
7800F0
7C03E0
7E0FC0
3FFF80
1FFE00
03F800
ENDCHAR
STARTCHAR obreve
ENCODING 335
SWIDTH 566 0
DWIDTH 19 0
BBX 17 24 3 0
BITMAP
060300
060600
070E00
03FC00
01F000
000000
00F800
03FE00
0FFF00
1F0F00
1C0780
380780
780780
700780
700700
F00700
F00700
F00E00
F01E00
F03C00
F07800
7FF000
3FE000
1F8000
ENDCHAR
STARTCHAR Ohungarumlaut
ENCODING 336
SWIDTH 777 0
DWIDTH 26 0
BBX 24 31 4 0
BITMAP
000770
000EC0
001D80
003B00
007600
000000
001FC0
007FF8
01FFFC
03F07E
07C01E
0F001E
1E000F
3C000F
3C000F
78000F
78000F
70000F
F0000F
F0000E
F0001E
F0001E
F0003C
F0003C
F00078
7800F0
7C03E0
7E0FC0
3FFF80
1FFE00
03F800
ENDCHAR
STARTCHAR ohungarumlaut
ENCODING 337
SWIDTH 566 0
DWIDTH 19 0
BBX 17 24 3 0
BITMAP
007700
00EC00
01D800
03B000
076000
000000
00F800
03FE00
0FFF00
1F0F00
1C0780
380780
780780
700780
700700
F00700
F00700
F00E00
F01E00
F03C00
F07800
7FF000
3FE000
1F8000
ENDCHAR
STARTCHAR OE
ENCODING 338
SWIDTH 1005 0
DWIDTH 34 0
BBX 34 25 4 0
BITMAP
001FCFFFC0
007FFFFFC0
01FFFFFFC0
03F07E0000
07C03E0000
0F001E0000
1E001C0000
3C001C0000
3C001C0000
78003C0000
78003C0000
70003FFC00
F0003FFC00
F0007FFC00
F000780000
F000780000
F000700000
F000F00000
F000F00000
7801F00000
7C03F00000
7E07E00000
3FFFFFFC00
0FFFFFFC00
03F9FFFC00
ENDCHAR
STARTCHAR oe
ENCODING 339
SWIDTH 899 0
DWIDTH 31 0
BBX 27 18 3 0
BITMAP
00FC0FC0
03FE1FE0
0FFF7FE0
1F0F70E0
1C07E0E0
3807C0E0
780781C0
700783C0
70079F00
F007FE00
F007F000
F00F0000
F01F0020
F01F8060
F07F83E0
7FF3FFE0
3FE3FF80
1F80FC00
ENDCHAR
STARTCHAR Racute
ENCODING 340
SWIDTH 632 0
DWIDTH 21 0
BBX 19 31 3 0
BITMAP
000F00
001C00
003800
007000
00E000
000000
07FF00
07FFC0
0FFFE0
0F03E0
0F01E0
0E01E0
0E01E0
1E01C0
1E01C0
1E0380
1E0700
1C1E00
3FFC00
3FF000
3FF800
3C3800
383C00
781C00
781E00
780E00
700F00
700700
F00780
F00380
F003C0
ENDCHAR
STARTCHAR racute
ENCODING 341
SWIDTH 478 0
DWIDTH 16 0
BBX 15 24 3 0
BITMAP
0078
00E0
01C0
0380
0700
0000
1E0E
1C3E
1C7C
1CE0
1DC0
3F80
3F80
3F00
3E00
3C00
7C00
7800
7000
7000
7000
F000
F000
E000
ENDCHAR
STARTCHAR Rcommaaccent
ENCODING 342
SWIDTH 632 0
DWIDTH 21 0
BBX 19 38 3 -13
BITMAP
07FF00
07FFC0
0FFFE0
0F03E0
0F01E0
0E01E0
0E01E0
1E01C0
1E01C0
1E0380
1E0700
1C1E00
3FFC00
3FF000
3FF800
3C3800
383C00
781C00
781E00
780E00
700F00
700700
F00780
F00380
F003C0
000000
01E000
01E000
03E000
03C000
03C000
00C000
01C000
01C000
018000
038000
070000
060000
ENDCHAR
STARTCHAR rcommaaccent
ENCODING 343
SWIDTH 478 0
DWIDTH 16 0
BBX 15 31 3 -13
BITMAP
1E0E
1C3E
1C7C
1CE0
1DC0
3F80
3F80
3F00
3E00
3C00
7C00
7800
7000
7000
7000
F000
F000
E000
0000
3C00
3C00
7C00
7800
7800
1800
3800
3800
3000
7000
E000
C000
ENDCHAR
STARTCHAR Rcaron
ENCODING 344
SWIDTH 632 0
DWIDTH 21 0
BBX 19 31 3 0
BITMAP
038380
01C700
01CE00
00FC00
00F800
000000
07FF00
07FFC0
0FFFE0
0F03E0
0F01E0
0E01E0
0E01E0
1E01C0
1E01C0
1E0380
1E0700
1C1E00
3FFC00
3FF000
3FF800
3C3800
383C00
781C00
781E00
780E00
700F00
700700
F00780
F00380
F003C0
ENDCHAR
STARTCHAR rcaron
ENCODING 345
SWIDTH 478 0
DWIDTH 16 0
BBX 15 24 3 0
BITMAP
1C1C
0E38
0E70
07E0
07C0
0000
1E0E
1C3E
1C7C
1CE0
1DC0
3F80
3F80
3F00
3E00
3C00
7C00
7800
7000
7000
7000
F000
F000
E000
ENDCHAR
STARTCHAR Sacute
ENCODING 346
SWIDTH 553 0
DWIDTH 19 0
BBX 19 31 2 0
BITMAP
000F00
001C00
003800
007000
00E000
000000
007F80
01FFE0
03FFE0
07C060
0F0000
0F0000
0F0000
0F0000
0F0000
078000
07E000
03F000
00F800
007C00
003E00
001F00
000F00
000700
000700
000F00
400F00
F03E00
FFFC00
FFF800
1FE000
ENDCHAR
STARTCHAR sacute
ENCODING 347
SWIDTH 489 0
DWIDTH 17 0
BBX 14 24 3 0
BITMAP
0078
00E0
01C0
0380
0700
0000
03F0
0FFC
0FFC
1E0C
1C00
1E00
1E00
0F80
07C0
03E0
01E0
00F0
0070
8070
E0F0
FFF0
FFE0
3F80
ENDCHAR
STARTCHAR Scircumflex
ENCODING 348
SWIDTH 553 0
DWIDTH 19 0
BBX 19 31 2 0
BITMAP
003C00
007C00
00CE00
018E00
070700
000000
007F80
01FFE0
03FFE0
07C060
0F0000
0F0000
0F0000
0F0000
0F0000
078000
07E000
03F000
00F800
007C00
003E00
001F00
000F00
000700
000700
000F00
400F00
F03E00
FFFC00
FFF800
1FE000
ENDCHAR
STARTCHAR scircumflex
ENCODING 349
SWIDTH 489 0
DWIDTH 17 0
BBX 14 24 3 0
BITMAP
01E0
03E0
0670
0C70
3838
0000
03F0
0FFC
0FFC
1E0C
1C00
1E00
1E00
0F80
07C0
03E0
01E0
00F0
0070
8070
E0F0
FFF0
FFE0
3F80
ENDCHAR
STARTCHAR Scedilla
ENCODING 350
SWIDTH 553 0
DWIDTH 19 0
BBX 19 32 2 -7
BITMAP
007F80
01FFE0
03FFE0
07C060
0F0000
0F0000
0F0000
0F0000
0F0000
078000
07E000
03F000
00F800
007C00
003E00
001F00
000F00
000700
000700
000F00
400F00
F03E00
FFFC00
FFF800
1FE000
00C000
01C000
00E000
006000
00E000
03E000
03C000
ENDCHAR
STARTCHAR scedilla
ENCODING 351
SWIDTH 489 0
DWIDTH 17 0
BBX 14 25 3 -7
BITMAP
03F0
0FFC
0FFC
1E0C
1C00
1E00
1E00
0F80
07C0
03E0
01E0
00F0
0070
8070
E0F0
FFF0
FFE0
3F80
0300
0700
0380
0180
0380
0F80
0F00
ENDCHAR
STARTCHAR Scaron
ENCODING 352
SWIDTH 553 0
DWIDTH 19 0
BBX 19 32 2 0
BITMAP
00E0E0
0071C0
007380
003F00
003E00
000000
000000
007F80
01FFE0
03FFE0
07C060
0F0000
0F0000
0F0000
0F0000
0F0000
078000
07E000
03F000
00F800
007C00
003E00
001F00
000F00
000700
000700
000F00
400F00
F03E00
FFFC00
FFF800
1FE000
ENDCHAR
STARTCHAR scaron
ENCODING 353
SWIDTH 489 0
DWIDTH 17 0
BBX 17 25 3 0
BITMAP
038380
01C700
01CE00
00FC00
00F800
000000
000000
03F000
0FFC00
0FFC00
1E0C00
1C0000
1E0000
1E0000
0F8000
07C000
03E000
01E000
00F000
007000
807000
E0F000
FFF000
FFE000
3F8000
ENDCHAR
STARTCHAR Tcommaaccent
ENCODING 354
SWIDTH 623 0
DWIDTH 21 0
BBX 21 32 5 -7
BITMAP
FFFFF8
FFFFF8
FFFFF8
00F000
00F000
00F000
00E000
00E000
01E000
01E000
01E000
01C000
01C000
03C000
03C000
03C000
038000
038000
038000
078000
078000
070000
070000
070000
0F8000
018000
038000
01C000
00C000
01C000
07C000
078000
ENDCHAR
STARTCHAR tcommaaccent
ENCODING 355
SWIDTH 383 0
DWIDTH 13 0
BBX 11 30 4 -7
BITMAP
0E00
0E00
0E00
0E00
1E00
FFE0
FFE0
FFE0
1C00
1C00
3C00
3800
3800
3800
3800
7000
7000
7000
7000
7800
7F00
7F00
1E00
0C00
1C00
0E00
0600
0E00
3E00
3C00
ENDCHAR
STARTCHAR Tcaron
ENCODING 356
SWIDTH 623 0
DWIDTH 21 0
BBX 21 31 5 0
BITMAP
070700
038E00
039C00
01F800
01F000
000000
FFFFF8
FFFFF8
FFFFF8
00F000
00F000
00F000
00E000
00E000
01E000
01E000
01E000
01C000
01C000
03C000
03C000
03C000
038000
038000
038000
078000
078000
070000
070000
070000
0F0000
ENDCHAR
STARTCHAR tcaron
ENCODING 357
SWIDTH 581 0
DWIDTH 19 0
BBX 19 26 4 0
BITMAP
0001E0
0001E0
0003E0
0E03E0
0E01C0
0E01C0
0E01C0
1E0380
FFE780
FFE700
FFE000
1C0000
1C0000
3C0000
380000
380000
380000
380000
700000
700000
700000
700000
780000
7F0000
7F0000
1E0000
ENDCHAR
STARTCHAR Tbar
ENCODING 358
SWIDTH 623 0
DWIDTH 21 0
BBX 21 25 5 0
BITMAP
FFFFF8
FFFFF8
FFFFF8
00F000
00F000
00F000
00E000
00E000
01E000
01E000
01E000
01FE00
01FE00
03FE00
03C000
03C000
038000
038000
038000
078000
078000
070000
070000
070000
0F0000
ENDCHAR
STARTCHAR tbar
ENCODING 359
SWIDTH 383 0
DWIDTH 13 0
BBX 11 23 4 0
BITMAP
0E00
0E00
0E00
0E00
1E00
FFE0
FFE0
FFE0
1C00
1C00
3C00
3800
3FC0
3FC0
3FC0
7000
7000
7000
7000
7800
7F00
7F00
1E00
ENDCHAR
STARTCHAR Utilde
ENCODING 360
SWIDTH 693 0
DWIDTH 24 0
BBX 21 29 4 0
BITMAP
00F180
01FF00
031E00
000000
1E0038
1E0038
1E0078
1C0070
3C0070
3C0070
3C0070
3C00F0
3800E0
7800E0
7800E0
7800E0
7801E0
7001C0
F001C0
F001C0
F001C0
F00380
F00380
F00780
F80700
7C1E00
7FFE00
3FF800
0FE000
ENDCHAR
STARTCHAR utilde
ENCODING 361
SWIDTH 620 0
DWIDTH 21 0
BBX 17 22 4 0
BITMAP
03C600
07FC00
0C7800
000000
1C0380
1C0780
380780
380700
380700
380700
380F00
701F00
703E00
703E00
707E00
70FE00
E1FE00
E1FC00
F3DC00
FF9C00
FE1C00
7C3C00
ENDCHAR
STARTCHAR Umacron
ENCODING 362
SWIDTH 693 0
DWIDTH 24 0
BBX 21 29 4 0
BITMAP
03FF00
03FF00
03FF00
000000
1E0038
1E0038
1E0078
1C0070
3C0070
3C0070
3C0070
3C00F0
3800E0
7800E0
7800E0
7800E0
7801E0
7001C0
F001C0
F001C0
F001C0
F00380
F00380
F00780
F80700
7C1E00
7FFE00
3FF800
0FE000
ENDCHAR
STARTCHAR umacron
ENCODING 363
SWIDTH 620 0
DWIDTH 21 0
BBX 17 22 4 0
BITMAP
0FFC00
0FFC00
0FFC00
000000
1C0380
1C0780
380780
380700
380700
380700
380F00
701F00
703E00
703E00
707E00
70FE00
E1FE00
E1FC00
F3DC00
FF9C00
FE1C00
7C3C00
ENDCHAR
STARTCHAR Ubreve
ENCODING 364
SWIDTH 693 0
DWIDTH 24 0
BBX 21 31 4 0
BITMAP
030180
030300
038700
01FE00
00F800
000000
1E0038
1E0038
1E0078
1C0070
3C0070
3C0070
3C0070
3C00F0
3800E0
7800E0
7800E0
7800E0
7801E0
7001C0
F001C0
F001C0
F001C0
F00380
F00380
F00780
F80700
7C1E00
7FFE00
3FF800
0FE000
ENDCHAR
STARTCHAR ubreve
ENCODING 365
SWIDTH 620 0
DWIDTH 21 0
BBX 17 24 4 0
BITMAP
0C0600
0C0C00
0E1C00
07F800
03E000
000000
1C0380
1C0780
380780
380700
380700
380700
380F00
701F00
703E00
703E00
707E00
70FE00
E1FE00
E1FC00
F3DC00
FF9C00
FE1C00
7C3C00
ENDCHAR
STARTCHAR Uring
ENCODING 366
SWIDTH 693 0
DWIDTH 24 0
BBX 21 31 4 0
BITMAP
007000
00D800
008800
00D800
007000
000000
1E0038
1E0038
1E0078
1C0070
3C0070
3C0070
3C0070
3C00F0
3800E0
7800E0
7800E0
7800E0
7801E0
7001C0
F001C0
F001C0
F001C0
F00380
F00380
F00780
F80700
7C1E00
7FFE00
3FF800
0FE000
ENDCHAR
STARTCHAR uring
ENCODING 367
SWIDTH 620 0
DWIDTH 21 0
BBX 17 24 4 0
BITMAP
00E000
01B000
011000
01B000
00E000
000000
1C0380
1C0780
380780
380700
380700
380700
380F00
701F00
703E00
703E00
707E00
70FE00
E1FE00
E1FC00
F3DC00
FF9C00
FE1C00
7C3C00
ENDCHAR
STARTCHAR Uhungarumlaut
ENCODING 368
SWIDTH 693 0
DWIDTH 24 0
BBX 21 31 4 0
BITMAP
001DC0
003B00
007600
00EC00
01D800
000000
1E0038
1E0038
1E0078
1C0070
3C0070
3C0070
3C0070
3C00F0
3800E0
7800E0
7800E0
7800E0
7801E0
7001C0
F001C0
F001C0
F001C0
F00380
F00380
F00780
F80700
7C1E00
7FFE00
3FF800
0FE000
ENDCHAR
STARTCHAR uhungarumlaut
ENCODING 369
SWIDTH 620 0
DWIDTH 21 0
BBX 17 24 4 0
BITMAP
007700
00EC00
01D800
03B000
076000
000000
1C0380
1C0780
380780
380700
380700
380700
380F00
701F00
703E00
703E00
707E00
70FE00
E1FE00
E1FC00
F3DC00
FF9C00
FE1C00
7C3C00
ENDCHAR
STARTCHAR Uogonek
ENCODING 370
SWIDTH 693 0
DWIDTH 24 0
BBX 21 31 4 -6
BITMAP
1E0038
1E0038
1E0078
1C0070
3C0070
3C0070
3C0070
3C00F0
3800E0
7800E0
7800E0
7800E0
7801E0
7001C0
F001C0
F001C0
F001C0
F00380
F00380
F00780
F80700
7C1E00
7FFE00
3FF800
0FE000
000000
00E000
018000
038000
03D000
01F000
ENDCHAR
STARTCHAR uogonek
ENCODING 371
SWIDTH 620 0
DWIDTH 21 0
BBX 17 24 4 -6
BITMAP
1C0380
1C0780
380780
380700
380700
380700
380F00
701F00
703E00
703E00
707E00
70FE00
E1FE00
E1FC00
F3DC00
FF9C00
FE1C00
7C3C00
000000
01C000
030000
070000
07A000
03E000
ENDCHAR
STARTCHAR Wcircumflex
ENCODING 372
SWIDTH 886 0
DWIDTH 30 0
BBX 29 31 6 0
BITMAP
00078000
000F8000
0019C000
0031C000
00E0E000
00000000
E0070038
E00F0070
E00F0070
E01F00E0
E01F00E0
F01F01C0
F03F01C0
F0370380
F0770380
F0770700
70E70700
70E70E00
71C78E00
71C79C00
71879C00
7387B800
7387B800
7707F800
7707F000
7E07F000
7E03E000
7C03E000
7C03C000
7803C000
78038000
ENDCHAR
STARTCHAR wcircumflex
ENCODING 373
SWIDTH 795 0
DWIDTH 27 0
BBX 25 24 4 0
BITMAP
001E0000
003E0000
00670000
00C70000
03838000
00000000
E03C0380
E03C0700
E07C0700
E07C0E00
E0FC0E00
F0EC1C00
71EE1C00
71CE3800
73CE7800
738E7000
738EF000
770EE000
770FE000
7E0FC000
7E0FC000
7C0F8000
7C0F8000
380F0000
ENDCHAR
STARTCHAR Ycircumflex
ENCODING 374
SWIDTH 608 0
DWIDTH 21 0
BBX 20 31 5 0
BITMAP
007800
00F800
019C00
031C00
0E0E00
000000
F000F0
7001E0
7803C0
780380
3C0780
3C0F00
1C1E00
1E3C00
0E3800
0F7800
0FF000
07E000
07C000
03C000
038000
078000
078000
078000
070000
070000
0F0000
0F0000
0E0000
0E0000
1E0000
ENDCHAR
STARTCHAR ycircumflex
ENCODING 375
SWIDTH 548 0
DWIDTH 19 0
BBX 19 31 3 -7
BITMAP
007800
00F800
019C00
031C00
0E0E00
000000
7801E0
7801C0
3803C0
380780
380700
380F00
3C0E00
3C1C00
1C3C00
1C3800
1C7800
1EF000
1EE000
1FE000
0FC000
0F8000
0F8000
0F0000
0F0000
0E0000
1C0000
1C0000
380000
700000
F00000
ENDCHAR
STARTCHAR Ydieresis
ENCODING 376
SWIDTH 608 0
DWIDTH 21 0
BBX 20 30 5 0
BITMAP
030E00
070E00
071C00
000000
000000
F000F0
7001E0
7803C0
780380
3C0780
3C0F00
1C1E00
1E3C00
0E3800
0F7800
0FF000
07E000
07C000
03C000
038000
078000
078000
078000
070000
070000
0F0000
0F0000
0E0000
0E0000
1E0000
ENDCHAR
STARTCHAR Zacute
ENCODING 377
SWIDTH 578 0
DWIDTH 20 0
BBX 22 31 1 0
BITMAP
0001E0
000380
000700
000E00
001C00
000000
03FFFC
07FFFC
07FFFC
000078
0000F0
0001E0
0003C0
000780
000F80
001F00
001E00
003C00
007800
00F000
01E000
03E000
07C000
0F8000
0F0000
1E0000
3C0000
780000
FFFFC0
FFFFC0
FFFFC0
ENDCHAR
STARTCHAR zacute
ENCODING 378
SWIDTH 536 0
DWIDTH 18 0
BBX 18 24 2 0
BITMAP
000F00
001C00
003800
007000
00E000
000000
0FFFC0
0FFFC0
1FFF80
000F80
001F00
003E00
007C00
00F800
01F000
03E000
07C000
0F8000
1F0000
3E0000
7C0000
7FFF00
FFFF00
FFFE00
ENDCHAR
STARTCHAR Zdotaccent
ENCODING 379
SWIDTH 578 0
DWIDTH 20 0
BBX 22 29 1 0
BITMAP
000700
000F00
000E00
000000
03FFFC
07FFFC
07FFFC
000078
0000F0
0001E0
0003C0
000780
000F80
001F00
001E00
003C00
007800
00F000
01E000
03E000
07C000
0F8000
0F0000
1E0000
3C0000
780000
FFFFC0
FFFFC0
FFFFC0
ENDCHAR
STARTCHAR zdotaccent
ENCODING 380
SWIDTH 536 0
DWIDTH 18 0
BBX 18 22 2 0
BITMAP
003800
007800
007000
000000
0FFFC0
0FFFC0
1FFF80
000F80
001F00
003E00
007C00
00F800
01F000
03E000
07C000
0F8000
1F0000
3E0000
7C0000
7FFF00
FFFF00
FFFE00
ENDCHAR
STARTCHAR Zcaron
ENCODING 381
SWIDTH 578 0
DWIDTH 20 0
BBX 22 32 1 0
BITMAP
007070
0038E0
0039C0
001F80
001F00
000000
000000
03FFFC
07FFFC
07FFFC
000078
0000F0
0001E0
0003C0
000780
000F80
001F00
001E00
003C00
007800
00F000
01E000
03E000
07C000
0F8000
0F0000
1E0000
3C0000
780000
FFFFC0
FFFFC0
FFFFC0
ENDCHAR
STARTCHAR zcaron
ENCODING 382
SWIDTH 536 0
DWIDTH 18 0
BBX 19 25 2 0
BITMAP
00E0E0
0071C0
007380
003F00
003E00
000000
000000
0FFFC0
0FFFC0
1FFF80
000F80
001F00
003E00
007C00
00F800
01F000
03E000
07C000
0F8000
1F0000
3E0000
7C0000
7FFF00
FFFF00
FFFE00
ENDCHAR
STARTCHAR uni0186
ENCODING 390
SWIDTH 679 0
DWIDTH 23 0
BBX 22 25 4 0
BITMAP
007F00
03FFE0
0FFFF0
0F01F8
080078
00007C
00003C
00003C
00003C
00003C
00003C
00003C
00003C
000038
000078
000078
0000F0
0001F0
0001E0
0003C0
000FC0
C01F00
FFFE00
FFF800
3FE000
ENDCHAR
STARTCHAR uni0189
ENCODING 393
SWIDTH 743 0
DWIDTH 25 0
BBX 25 25 2 0
BITMAP
03FFF000
03FFFC00
03FFFE00
03807F00
07801F00
07800F80
07800780
07000780
07000780
0F000780
0F000780
FFF80780
FFF80780
FFF80700
0E000F00
1E000F00
1E001E00
1C001E00
1C003C00
1C007800
3C00F000
3C03E000
3FFFC000
3FFF8000
7FFC0000
ENDCHAR
STARTCHAR uni018E
ENCODING 398
SWIDTH 547 0
DWIDTH 19 0
BBX 19 25 3 0
BITMAP
0FFFE0
0FFFE0
0FFFE0
0001C0
0001C0
0003C0
0003C0
0003C0
000380
000780
000780
0FFF80
0FFF80
0FFF00
000F00
000F00
000F00
000F00
000E00
001E00
001E00
001E00
FFFE00
FFFC00
FFFC00
ENDCHAR
STARTCHAR florin
ENCODING 402
SWIDTH 633 0
DWIDTH 21 0
BBX 16 31 7 -6
BITMAP
007F
00FF
01FF
03C3
0380
0700
0700
0700
0F00
0E00
0E00
7FC0
FFC0
FFC0
1C00
1C00
1C00
1C00
3C00
3C00
3800
3800
3800
7800
7800
7000
7000
7000
F000
F000
E000
ENDCHAR
STARTCHAR uni0197
ENCODING 407
SWIDTH 289 0
DWIDTH 10 0
BBX 8 25 3 0
BITMAP
0F
0F
0F
0E
0E
0E
1E
1E
1C
1C
1C
FF
FF
FF
38
38
38
78
78
70
70
70
F0
F0
F0
ENDCHAR
STARTCHAR uni019A
ENCODING 410
SWIDTH 289 0
DWIDTH 10 0
BBX 9 26 3 0
BITMAP
0380
0780
0700
0700
0700
0700
0F00
0E00
0E00
0E00
1E00
7F80
7F80
7F80
1C00
3C00
3800
3800
3800
7800
7800
7000
7000
7000
F000
E000
ENDCHAR
STARTCHAR uni019D
ENCODING 413
SWIDTH 741 0
DWIDTH 25 0
BBX 32 32 -5 -7
BITMAP
00078007
00078007
000F8007
000FC00E
000FC00E
000FE00E
000EE00E
001CF00E
001CF01C
001C781C
001C781C
001C381C
00383C1C
00381C38
00381E38
00381E38
00380F38
00780F38
00780770
007007F0
007003F0
007003F0
00F001F0
00F001E0
00E001E0
00E00000
01E00000
01C00000
C7800000
FF800000
FF000000
FC000000
ENDCHAR
STARTCHAR uni019F
ENCODING 415
SWIDTH 777 0
DWIDTH 26 0
BBX 24 25 4 0
BITMAP
001FC0
007FF8
01FFFC
03F07E
07C01E
0F001E
1E000F
3C000F
3C000F
78000F
78000F
FFFFFF
FFFFFF
FFFFFF
F0001E
F0001E
F0003C
F0003C
F00078
7800F0
7C03E0
7E0FC0
3FFF80
1FFE00
03F800
ENDCHAR
STARTCHAR Ohorn
ENCODING 416
SWIDTH 777 0
DWIDTH 26 0
BBX 28 25 4 0
BITMAP
001FC0F0
007FF8F0
01FFFDF0
03F07FF0
07C01EE0
0F001EE0
1E000FE0
3C000FC0
3C000FC0
78000F80
78000F00
70000F00
F0000F00
F0000E00
F0001E00
F0001E00
F0003C00
F0003C00
F0007800
7800F000
7C03E000
7E0FC000
3FFF8000
1FFE0000
03F80000
ENDCHAR
STARTCHAR ohorn
ENCODING 417
SWIDTH 566 0
DWIDTH 19 0
BBX 21 18 3 0
BITMAP
00F878
03FE78
0FFFF8
1F0FF8
1C07F0
3807F0
7807F0
7007E0
7007E0
F007C0
F00700
F00E00
F01E00
F03C00
F07800
7FF000
3FE000
1F8000
ENDCHAR
STARTCHAR Uhorn
ENCODING 431
SWIDTH 693 0
DWIDTH 24 0
BBX 25 25 4 0
BITMAP
1E003F80
1E003F80
1E007F80
1C007F80
3C007700
3C007700
3C007700
3C00FE00
3800FE00
7800FC00
7800E000
7800E000
7801E000
7001C000
F001C000
F001C000
F001C000
F0038000
F0038000
F0078000
F8070000
7C1E0000
7FFE0000
3FF80000
0FE00000
ENDCHAR
STARTCHAR uhorn
ENCODING 432
SWIDTH 620 0
DWIDTH 21 0
BBX 21 18 4 0
BITMAP
1C03F8
1C07F8
3807F8
3807F8
380770
380770
380F70
701FE0
703FE0
703FC0
707E00
70FE00
E1FE00
E1FC00
F3DC00
FF9C00
FE1C00
7C3C00
ENDCHAR
STARTCHAR uni01B5
ENCODING 437
SWIDTH 578 0
DWIDTH 20 0
BBX 22 25 1 0
BITMAP
03FFFC
07FFFC
07FFFC
000078
0000F0
0001E0
0003C0
000780
000F80
001F00
001E00
01FE00
01FE00
01FE00
01E000
03E000
07C000
0F8000
0F0000
1E0000
3C0000
780000
FFFFC0
FFFFC0
FFFFC0
ENDCHAR
STARTCHAR uni01B6
ENCODING 438
SWIDTH 536 0
DWIDTH 18 0
BBX 18 18 2 0
BITMAP
0FFFC0
0FFFC0
1FFF80
000F80
001F00
003E00
007C00
07F800
07F800
07F800
07C000
0F8000
1F0000
3E0000
7C0000
7FFF00
FFFF00
FFFE00
ENDCHAR
STARTCHAR uni01BB
ENCODING 443
SWIDTH 633 0
DWIDTH 21 0
BBX 19 25 3 0
BITMAP
00FE00
03FF80
07FFC0
0703E0
0401E0
0001E0
0001E0
0001E0
0001C0
0003C0
000780
FFFFE0
FFFFE0
FFFFE0
00F800
01E000
03C000
078000
1E0000
1C0000
380000
780000
FFFE00
FFFE00
FFFE00
ENDCHAR
STARTCHAR uni01BC
ENCODING 444
SWIDTH 633 0
DWIDTH 21 0
BBX 18 25 5 0
BITMAP
07FFC0
07FFC0
07FFC0
060000
0E0000
0E0000
0C0000
0C0000
0C0000
1FC000
1FF800
1FFC00
007E00
001E00
000E00
000E00
000E00
000E00
001E00
001E00
003C00
40F800
FFF000
FFE000
7F8000
ENDCHAR
STARTCHAR uni01C0
ENCODING 448
SWIDTH 233 0
DWIDTH 8 0
BBX 9 32 2 -6
BITMAP
0380
0380
0300
0300
0300
0700
0700
0600
0600
0600
0E00
0E00
0C00
0C00
0C00
1C00
1C00
1800
1800
1800
3800
3800
3000
3000
3000
7000
7000
6000
6000
6000
E000
E000
ENDCHAR
STARTCHAR uni01C2
ENCODING 450
SWIDTH 633 0
DWIDTH 21 0
BBX 21 32 2 -6
BITMAP
000E00
000E00
000C00
000C00
000C00
001C00
001C00
001800
001800
001800
003800
003800
7FFFF8
7FFFF8
7FFFF8
007000
007000
006000
FFFFF0
FFFFF0
FFFFF0
00E000
00C000
00C000
00C000
01C000
01C000
018000
018000
018000
038000
038000
ENDCHAR
STARTCHAR uni01C3
ENCODING 451
SWIDTH 193 0
DWIDTH 11 0
BBX 8 25 4 0
BITMAP
07
0F
0F
0E
0E
0E
0E
1C
1C
1C
1C
1C
18
38
38
38
30
30
00
00
00
00
70
F0
E0
ENDCHAR
STARTCHAR uni01CD
ENCODING 461
SWIDTH 687 0
DWIDTH 23 0
BBX 22 31 1 0
BITMAP
007070
0038E0
0039C0
001F80
001F00
000000
000380
0007C0
000FC0
000FC0
001FC0
001DC0
003DE0
0039E0
0071E0
0070E0
00E0E0
01E0E0
01C0F0
03C0F0
038070
078070
07FFF0
0FFFF8
0FFFF8
1C0078
3C0078
380038
78003C
70003C
E0003C
ENDCHAR
STARTCHAR uni01CE
ENCODING 462
SWIDTH 608 0
DWIDTH 21 0
BBX 18 24 3 0
BITMAP
038380
01C700
01CE00
00FC00
00F800
000000
007FC0
01FFC0
03FFC0
078380
0F0380
1E0380
3C0780
380780
780F00
701F00
F03F00
F07F00
F0FF00
F1FE00
F3EE00
FFCE00
7F1E00
3C1E00
ENDCHAR
STARTCHAR uni01CF
ENCODING 463
SWIDTH 289 0
DWIDTH 10 0
BBX 11 31 3 0
BITMAP
E0E0
71C0
7380
3F00
3E00
0000
0F00
0F00
0F00
0E00
0E00
0E00
1E00
1E00
1C00
1C00
1C00
3C00
3C00
3C00
3800
3800
3800
7800
7800
7000
7000
7000
F000
F000
F000
ENDCHAR
STARTCHAR uni01D0
ENCODING 464
SWIDTH 289 0
DWIDTH 10 0
BBX 11 24 2 0
BITMAP
E0E0
71C0
7380
3F00
3E00
0000
0700
0F00
0E00
0E00
0E00
0E00
1E00
1C00
1C00
1C00
1C00
3C00
3800
3800
3800
3800
7800
7000
ENDCHAR
STARTCHAR uni01D1
ENCODING 465
SWIDTH 777 0
DWIDTH 26 0
BBX 24 31 4 0
BITMAP
00E0E0
0071C0
007380
003F00
003E00
000000
001FC0
007FF8
01FFFC
03F07E
07C01E
0F001E
1E000F
3C000F
3C000F
78000F
78000F
70000F
F0000F
F0000E
F0001E
F0001E
F0003C
F0003C
F00078
7800F0
7C03E0
7E0FC0
3FFF80
1FFE00
03F800
ENDCHAR
STARTCHAR uni01D2
ENCODING 466
SWIDTH 566 0
DWIDTH 19 0
BBX 17 24 3 0
BITMAP
070700
038E00
039C00
01F800
01F000
000000
00F800
03FE00
0FFF00
1F0F00
1C0780
380780
780780
700780
700700
F00700
F00700
F00E00
F01E00
F03C00
F07800
7FF000
3FE000
1F8000
ENDCHAR
STARTCHAR uni01D3
ENCODING 467
SWIDTH 693 0
DWIDTH 24 0
BBX 21 31 4 0
BITMAP
038380
01C700
01CE00
00FC00
00F800
000000
1E0038
1E0038
1E0078
1C0070
3C0070
3C0070
3C0070
3C00F0
3800E0
7800E0
7800E0
7800E0
7801E0
7001C0
F001C0
F001C0
F001C0
F00380
F00380
F00780
F80700
7C1E00
7FFE00
3FF800
0FE000
ENDCHAR
STARTCHAR uni01D4
ENCODING 468
SWIDTH 620 0
DWIDTH 21 0
BBX 17 24 4 0
BITMAP
0E0E00
071C00
073800
03F000
03E000
000000
1C0380
1C0780
380780
380700
380700
380700
380F00
701F00
703E00
703E00
707E00
70FE00
E1FE00
E1FC00
F3DC00
FF9C00
FE1C00
7C3C00
ENDCHAR
STARTCHAR uni01D5
ENCODING 469
SWIDTH 693 0
DWIDTH 24 0
BBX 21 34 4 0
BITMAP
03FF00
03FF00
03FF00
000000
00C380
01C380
01C700
000000
000000
1E0038
1E0038
1E0078
1C0070
3C0070
3C0070
3C0070
3C00F0
3800E0
7800E0
7800E0
7800E0
7801E0
7001C0
F001C0
F001C0
F001C0
F00380
F00380
F00780
F80700
7C1E00
7FFE00
3FF800
0FE000
ENDCHAR
STARTCHAR uni01D6
ENCODING 470
SWIDTH 620 0
DWIDTH 21 0
BBX 17 27 4 0
BITMAP
07FE00
07FE00
07FE00
000000
018700
038700
038E00
000000
000000
1C0380
1C0780
380780
380700
380700
380700
380F00
701F00
703E00
703E00
707E00
70FE00
E1FE00
E1FC00
F3DC00
FF9C00
FE1C00
7C3C00
ENDCHAR
STARTCHAR uni01D7
ENCODING 471
SWIDTH 693 0
DWIDTH 24 0
BBX 21 36 4 0
BITMAP
000780
000E00
001C00
003800
007000
000000
00C380
01C380
01C700
000000
000000
1E0038
1E0038
1E0078
1C0070
3C0070
3C0070
3C0070
3C00F0
3800E0
7800E0
7800E0
7800E0
7801E0
7001C0
F001C0
F001C0
F001C0
F00380
F00380
F00780
F80700
7C1E00
7FFE00
3FF800
0FE000
ENDCHAR
STARTCHAR uni01D8
ENCODING 472
SWIDTH 620 0
DWIDTH 21 0
BBX 17 29 4 0
BITMAP
001E00
003800
007000
00E000
01C000
000000
018700
038700
038E00
000000
000000
1C0380
1C0780
380780
380700
380700
380700
380F00
701F00
703E00
703E00
707E00
70FE00
E1FE00
E1FC00
F3DC00
FF9C00
FE1C00
7C3C00
ENDCHAR
STARTCHAR uni01D9
ENCODING 473
SWIDTH 693 0
DWIDTH 24 0
BBX 21 36 4 0
BITMAP
038380
01C700
01CE00
00FC00
00F800
000000
00C380
01C380
01C700
000000
000000
1E0038
1E0038
1E0078
1C0070
3C0070
3C0070
3C0070
3C00F0
3800E0
7800E0
7800E0
7800E0
7801E0
7001C0
F001C0
F001C0
F001C0
F00380
F00380
F00780
F80700
7C1E00
7FFE00
3FF800
0FE000
ENDCHAR
STARTCHAR uni01DA
ENCODING 474
SWIDTH 620 0
DWIDTH 21 0
BBX 17 29 4 0
BITMAP
070700
038E00
039C00
01F800
01F000
000000
018700
038700
038E00
000000
000000
1C0380
1C0780
380780
380700
380700
380700
380F00
701F00
703E00
703E00
707E00
70FE00
E1FE00
E1FC00
F3DC00
FF9C00
FE1C00
7C3C00
ENDCHAR
STARTCHAR uni01DB
ENCODING 475
SWIDTH 693 0
DWIDTH 24 0
BBX 21 36 4 0
BITMAP
00F000
007000
003800
003800
001C00
000000
00C380
01C380
01C700
000000
000000
1E0038
1E0038
1E0078
1C0070
3C0070
3C0070
3C0070
3C00F0
3800E0
7800E0
7800E0
7800E0
7801E0
7001C0
F001C0
F001C0
F001C0
F00380
F00380
F00780
F80700
7C1E00
7FFE00
3FF800
0FE000
ENDCHAR
STARTCHAR uni01DC
ENCODING 476
SWIDTH 620 0
DWIDTH 21 0
BBX 17 29 4 0
BITMAP
03C000
01C000
00E000
00E000
007000
000000
018700
038700
038E00
000000
000000
1C0380
1C0780
380780
380700
380700
380700
380F00
701F00
703E00
703E00
707E00
70FE00
E1FE00
E1FC00
F3DC00
FF9C00
FE1C00
7C3C00
ENDCHAR
STARTCHAR uni01DD
ENCODING 477
SWIDTH 529 0
DWIDTH 18 0
BBX 15 18 3 0
BITMAP
07F0
1FF8
7FFC
783E
601E
800E
000E
00FE
07FE
1F1C
3C1C
703C
7038
E070
F1F0
FFE0
7F80
3E00
ENDCHAR
STARTCHAR uni01DE
ENCODING 478
SWIDTH 687 0
DWIDTH 23 0
BBX 22 34 1 0
BITMAP
007FE0
007FE0
007FE0
000000
000C38
001C38
001C70
000000
000000
000380
0007C0
000FC0
000FC0
001FC0
001DC0
003DE0
0039E0
0071E0
0070E0
00E0E0
01E0E0
01C0F0
03C0F0
038070
078070
07FFF0
0FFFF8
0FFFF8
1C0078
3C0078
380038
78003C
70003C
E0003C
ENDCHAR
STARTCHAR uni01DF
ENCODING 479
SWIDTH 608 0
DWIDTH 21 0
BBX 18 27 3 0
BITMAP
03FF00
03FF00
03FF00
000000
00C380
01C380
01C700
000000
000000
007FC0
01FFC0
03FFC0
078380
0F0380
1E0380
3C0780
380780
780F00
701F00
F03F00
F07F00
F0FF00
F1FE00
F3EE00
FFCE00
7F1E00
3C1E00
ENDCHAR
STARTCHAR uni01E0
ENCODING 480
SWIDTH 687 0
DWIDTH 23 0
BBX 22 33 1 0
BITMAP
007FE0
007FE0
007FE0
000000
000700
000F00
000E00
000000
000380
0007C0
000FC0
000FC0
001FC0
001DC0
003DE0
0039E0
0071E0
0070E0
00E0E0
01E0E0
01C0F0
03C0F0
038070
078070
07FFF0
0FFFF8
0FFFF8
1C0078
3C0078
380038
78003C
70003C
E0003C
ENDCHAR
STARTCHAR uni01E1
ENCODING 481
SWIDTH 608 0
DWIDTH 21 0
BBX 18 26 3 0
BITMAP
03FF00
03FF00
03FF00
000000
003800
007800
007000
000000
007FC0
01FFC0
03FFC0
078380
0F0380
1E0380
3C0780
380780
780F00
701F00
F03F00
F07F00
F0FF00
F1FE00
F3EE00
FFCE00
7F1E00
3C1E00
ENDCHAR
STARTCHAR uni01E2
ENCODING 482
SWIDTH 893 0
DWIDTH 30 0
BBX 34 29 0 0
BITMAP
0000FFC000
0000FFC000
0000FFC000
0000000000
00001FFFC0
00003FFFC0
00007FFFC0
0000FE0000
0000FE0000
0001FE0000
0003DC0000
00079C0000
00073C0000
000E3C0000
001E3C0000
003C3FFC00
00383FFC00
00707FFC00
00F0780000
01E0780000
01FFF00000
03FFF00000
07FFF00000
0F00F00000
0E00F00000
1C00E00000
3800FFFC00
7001FFFC00
F001FFFC00
ENDCHAR
STARTCHAR uni01E3
ENCODING 483
SWIDTH 893 0
DWIDTH 30 0
BBX 27 22 3 0
BITMAP
003FF000
003FF000
003FF000
00000000
007FCFC0
01FFFFE0
03FFFFE0
07C3F0E0
0F03E0E0
1E03C0E0
3C0781C0
380F83C0
780F1F00
701FFE00
F03FF000
F07F0000
F0F70020
F1F70060
F3E783E0
FFC7FFE0
7F83FF80
3E00FC00
ENDCHAR
STARTCHAR uni01E4
ENCODING 484
SWIDTH 702 0
DWIDTH 24 0
BBX 23 25 4 0
BITMAP
001FF0
007FFC
01FFFC
03F00C
0F8000
0F0000
1E0000
3C0000
3C0000
780000
780000
700000
F00000
F00000
F000F0
F000E0
F000E0
F001FE
F001FE
F801FE
7C01C0
7E03C0
3FFFC0
1FFFC0
03FC00
ENDCHAR
STARTCHAR uni01E5
ENCODING 485
SWIDTH 608 0
DWIDTH 21 0
BBX 19 25 2 -7
BITMAP
003FE0
00FFE0
01FFE0
03E1C0
0781C0
0F01C0
1E01C0
1E03C0
3C0780
3C0780
380F80
381B80
783F80
387700
38E700
3FC700
3F8700
FFFFE0
FFFFE0
FFFFE0
801C00
F03C00
FFF800
FFF000
1FC000
ENDCHAR
STARTCHAR Gcaron
ENCODING 486
SWIDTH 702 0
DWIDTH 24 0
BBX 22 31 4 0
BITMAP
01C1C0
00E380
00E700
007E00
007C00
000000
001FF0
007FFC
01FFFC
03F00C
0F8000
0F0000
1E0000
3C0000
3C0000
780000
780000
700000
F00000
F00000
F000F0
F000E0
F000E0
F000E0
F001E0
F801E0
7C01C0
7E03C0
3FFFC0
1FFFC0
03FC00
ENDCHAR
STARTCHAR gcaron
ENCODING 487
SWIDTH 608 0
DWIDTH 21 0
BBX 19 31 2 -7
BITMAP
038380
01C700
01CE00
00FC00
00F800
000000
003FE0
00FFE0
01FFE0
03E1C0
0781C0
0F01C0
1E01C0
1E03C0
3C0780
3C0780
380F80
381B80
783F80
387700
38E700
3FC700
3F8700
1E0F00
000E00
000E00
801C00
F03C00
FFF800
FFF000
1FC000
ENDCHAR
STARTCHAR uni01E8
ENCODING 488
SWIDTH 635 0
DWIDTH 22 0
BBX 21 31 3 0
BITMAP
038380
01C700
01CE00
00FC00
00F800
000000
070078
0700F0
0F01E0
0F03C0
0E0780
0E0F00
0E1E00
1E3C00
1E7800
1CF000
1DE000
1FC000
3FC000
3DC000
38E000
38F000
387000
787800
783C00
781C00
701E00
700F00
F00700
F00780
F003C0
ENDCHAR
STARTCHAR uni01E9
ENCODING 489
SWIDTH 572 0
DWIDTH 20 0
BBX 18 32 3 0
BITMAP
383800
1C7000
1CE000
0FC000
0F8000
000000
078000
070000
070000
070000
0F0000
0F0000
0E0000
0E0000
0E03C0
1E0F00
1E1E00
1C3C00
1C7800
1CF000
3DE000
3BC000
3F8000
3BC000
39E000
78E000
70F000
707800
703C00
703C00
F01E00
E00F00
ENDCHAR
STARTCHAR uni01EA
ENCODING 490
SWIDTH 777 0
DWIDTH 26 0
BBX 24 31 4 -6
BITMAP
001FC0
007FF8
01FFFC
03F07E
07C01E
0F001E
1E000F
3C000F
3C000F
78000F
78000F
70000F
F0000F
F0000E
F0001E
F0001E
F0003C
F0003C
F00078
7800F0
7C03E0
7E0FC0
3FFF80
1FFE00
03F800
000000
003800
006000
00E000
00F400
007C00
ENDCHAR
STARTCHAR uni01EB
ENCODING 491
SWIDTH 566 0
DWIDTH 19 0
BBX 17 24 3 -6
BITMAP
00F800
03FE00
0FFF00
1F0F00
1C0780
380780
780780
700780
700700
F00700
F00700
F00E00
F01E00
F03C00
F07800
7FF000
3FE000
1F8000
000000
038000
060000
0E0000
0F4000
07C000
ENDCHAR
STARTCHAR uni01EC
ENCODING 492
SWIDTH 777 0
DWIDTH 26 0
BBX 24 35 4 -6
BITMAP
00FFC0
00FFC0
00FFC0
000000
001FC0
007FF8
01FFFC
03F07E
07C01E
0F001E
1E000F
3C000F
3C000F
78000F
78000F
70000F
F0000F
F0000E
F0001E
F0001E
F0003C
F0003C
F00078
7800F0
7C03E0
7E0FC0
3FFF80
1FFE00
03F800
000000
003800
006000
00E000
00F400
007C00
ENDCHAR
STARTCHAR uni01ED
ENCODING 493
SWIDTH 566 0
DWIDTH 19 0
BBX 17 28 3 -6
BITMAP
0FFC00
0FFC00
0FFC00
000000
00F800
03FE00
0FFF00
1F0F00
1C0780
380780
780780
700780
700700
F00700
F00700
F00E00
F01E00
F03C00
F07800
7FF000
3FE000
1F8000
000000
038000
060000
0E0000
0F4000
07C000
ENDCHAR
STARTCHAR uni01F0
ENCODING 496
SWIDTH 325 0
DWIDTH 11 0
BBX 17 31 -3 -7
BITMAP
038380
01C700
01CE00
00FC00
00F800
000000
001E00
001C00
001C00
001C00
001C00
003C00
003C00
003800
003800
003800
007800
007800
007000
007000
007000
00F000
00F000
00E000
00E000
01E000
01C000
C78000
FF8000
FF0000
FC0000
ENDCHAR
STARTCHAR uni01F4
ENCODING 500
SWIDTH 702 0
DWIDTH 24 0
BBX 22 31 4 0
BITMAP
000780
000E00
001C00
003800
007000
000000
001FF0
007FFC
01FFFC
03F00C
0F8000
0F0000
1E0000
3C0000
3C0000
780000
780000
700000
F00000
F00000
F000F0
F000E0
F000E0
F000E0
F001E0
F801E0
7C01C0
7E03C0
3FFFC0
1FFFC0
03FC00
ENDCHAR
STARTCHAR uni01F5
ENCODING 501
SWIDTH 608 0
DWIDTH 21 0
BBX 19 31 2 -7
BITMAP
000780
000E00
001C00
003800
007000
000000
003FE0
00FFE0
01FFE0
03E1C0
0781C0
0F01C0
1E01C0
1E03C0
3C0780
3C0780
380F80
381B80
783F80
387700
38E700
3FC700
3F8700
1E0F00
000E00
000E00
801C00
F03C00
FFF800
FFF000
1FC000
ENDCHAR
STARTCHAR uni01F8
ENCODING 504
SWIDTH 741 0
DWIDTH 25 0
BBX 24 31 3 0
BITMAP
007800
003800
001C00
001C00
000E00
000000
078007
078007
0F8007
0FC00E
0FC00E
0FE00E
0EE00E
1CF00E
1CF01C
1C781C
1C781C
1C381C
383C1C
381C38
381E38
381E38
380F38
700F38
700770
7007F0
7003F0
7003F0
E001F0
E001E0
E001E0
ENDCHAR
STARTCHAR uni01F9
ENCODING 505
SWIDTH 620 0
DWIDTH 21 0
BBX 18 24 3 0
BITMAP
03C000
01C000
00E000
00E000
007000
000000
0E0F80
1E3FC0
1E7FC0
1CF3C0
1DE1C0
1FC3C0
3F83C0
3F8380
3F0380
3E0380
3C0780
7C0780
780700
700700
700700
700F00
F00F00
E00E00
ENDCHAR
STARTCHAR Aringacute
ENCODING 506
SWIDTH 687 0
DWIDTH 23 0
BBX 22 38 1 0
BITMAP
0000F0
0001C0
000380
000700
000E00
000000
0001C0
000360
000220
000360
0001C0
000000
000000
000380
0007C0
000FC0
000FC0
001FC0
001DC0
003DE0
0039E0
0071E0
0070E0
00E0E0
01E0E0
01C0F0
03C0F0
038070
078070
07FFF0
0FFFF8
0FFFF8
1C0078
3C0078
380038
78003C
70003C
E0003C
ENDCHAR
STARTCHAR aringacute
ENCODING 507
SWIDTH 608 0
DWIDTH 21 0
BBX 18 31 3 0
BITMAP
000780
000E00
001C00
003800
007000
000000
001C00
003600
002200
003600
001C00
000000
000000
007FC0
01FFC0
03FFC0
078380
0F0380
1E0380
3C0780
380780
780F00
701F00
F03F00
F07F00
F0FF00
F1FE00
F3EE00
FFCE00
7F1E00
3C1E00
ENDCHAR
STARTCHAR AEacute
ENCODING 508
SWIDTH 893 0
DWIDTH 30 0
BBX 34 31 0 0
BITMAP
000001E000
0000038000
0000070000
00000E0000
00001C0000
0000000000
00001FFFC0
00003FFFC0
00007FFFC0
0000FE0000
0000FE0000
0001FE0000
0003DC0000
00079C0000
00073C0000
000E3C0000
001E3C0000
003C3FFC00
00383FFC00
00707FFC00
00F0780000
01E0780000
01FFF00000
03FFF00000
07FFF00000
0F00F00000
0E00F00000
1C00E00000
3800FFFC00
7001FFFC00
F001FFFC00
ENDCHAR
STARTCHAR aeacute
ENCODING 509
SWIDTH 893 0
DWIDTH 30 0
BBX 27 24 3 0
BITMAP
00007800
0000E000
0001C000
00038000
00070000
00000000
007FCFC0
01FFFFE0
03FFFFE0
07C3F0E0
0F03E0E0
1E03C0E0
3C0781C0
380F83C0
780F1F00
701FFE00
F03FF000
F07F0000
F0F70020
F1F70060
F3E783E0
FFC7FFE0
7F83FF80
3E00FC00
ENDCHAR
STARTCHAR Oslashacute
ENCODING 510
SWIDTH 777 0
DWIDTH 26 0
BBX 28 31 6 0
BITMAP
00003C00
00007000
0000E000
0001C000
00038000
00000000
0007F0F0
001FFFE0
007FFFC0
00FC1F80
01F00F80
03C01F80
07803FC0
0F007BC0
0F00F3C0
1E01E3C0
1E03C3C0
1C0783C0
3C0F03C0
3C1E0380
3C3C0780
3C780780
3CF00F00
3DE00F00
3FC01E00
1F803C00
1F00F800
1F83F000
3FFFE000
7FFF8000
F0FE0000
ENDCHAR
STARTCHAR oslashacute
ENCODING 511
SWIDTH 566 0
DWIDTH 19 0
BBX 20 24 4 0
BITMAP
000780
000E00
001C00
003800
007000
000000
007CF0
01FFE0
07FFC0
0F8780
0E0FC0
1C0FC0
3C1FC0
383BC0
387380
78E380
79C380
7B8700
7F0F00
7E1E00
7E3C00
3FF800
7FF000
FFC000
ENDCHAR
STARTCHAR Scommaaccent
ENCODING 536
SWIDTH 553 0
DWIDTH 19 0
BBX 19 38 2 -13
BITMAP
007F80
01FFE0
03FFE0
07C060
0F0000
0F0000
0F0000
0F0000
0F0000
078000
07E000
03F000
00F800
007C00
003E00
001F00
000F00
000700
000700
000F00
400F00
F03E00
FFFC00
FFF800
1FE000
000000
01E000
01E000
03E000
03C000
03C000
00C000
01C000
01C000
018000
038000
070000
060000
ENDCHAR
STARTCHAR scommaaccent
ENCODING 537
SWIDTH 489 0
DWIDTH 17 0
BBX 14 31 3 -13
BITMAP
03F0
0FFC
0FFC
1E0C
1C00
1E00
1E00
0F80
07C0
03E0
01E0
00F0
0070
8070
E0F0
FFF0
FFE0
3F80
0000
0780
0780
0F80
0F00
0F00
0300
0700
0700
0600
0E00
1C00
1800
ENDCHAR
STARTCHAR Tcommaaccent
ENCODING 538
SWIDTH 623 0
DWIDTH 21 0
BBX 21 38 5 -13
BITMAP
FFFFF8
FFFFF8
FFFFF8
00F000
00F000
00F000
00E000
00E000
01E000
01E000
01E000
01C000
01C000
03C000
03C000
03C000
038000
038000
038000
078000
078000
070000
070000
070000
0F0000
000000
01E000
01E000
03E000
03C000
03C000
00C000
01C000
01C000
018000
038000
070000
060000
ENDCHAR
STARTCHAR tcommaaccent
ENCODING 539
SWIDTH 383 0
DWIDTH 13 0
BBX 11 36 4 -13
BITMAP
0E00
0E00
0E00
0E00
1E00
FFE0
FFE0
FFE0
1C00
1C00
3C00
3800
3800
3800
3800
7000
7000
7000
7000
7800
7F00
7F00
1E00
0000
1E00
1E00
3E00
3C00
3C00
0C00
1C00
1C00
1800
3800
7000
6000
ENDCHAR
STARTCHAR uni021E
ENCODING 542
SWIDTH 735 0
DWIDTH 25 0
BBX 24 31 3 0
BITMAP
00E0E0
0071C0
007380
003F00
003E00
000000
07000F
07000F
0F000F
0F000E
0F000E
0E001E
0E001E
1E001E
1E001C
1E003C
1FFFFC
1FFFFC
3FFFFC
3C0038
3C0038
380078
380078
780078
780070
780070
7000F0
7000F0
F000F0
F000E0
F000E0
ENDCHAR
STARTCHAR uni021F
ENCODING 543
SWIDTH 620 0
DWIDTH 21 0
BBX 18 32 3 0
BITMAP
383800
1C7000
1CE000
0FC000
0F8000
000000
078000
070000
070000
070000
0F0000
0F0000
0E0000
0E0000
0E0F80
1E3FC0
1E7FC0
1CF3C0
1DE1C0
1FC3C0
3F83C0
3F8380
3F0380
3E0380
3C0780
780780
780700
700700
700700
700F00
F00F00
E00E00
ENDCHAR
STARTCHAR uni0226
ENCODING 550
SWIDTH 687 0
DWIDTH 23 0
BBX 22 29 1 0
BITMAP
000700
000F00
000E00
000000
000380
0007C0
000FC0
000FC0
001FC0
001DC0
003DE0
0039E0
0071E0
0070E0
00E0E0
01E0E0
01C0F0
03C0F0
038070
078070
07FFF0
0FFFF8
0FFFF8
1C0078
3C0078
380038
78003C
70003C
E0003C
ENDCHAR
STARTCHAR uni0227
ENCODING 551
SWIDTH 608 0
DWIDTH 21 0
BBX 18 22 3 0
BITMAP
003800
007800
007000
000000
007FC0
01FFC0
03FFC0
078380
0F0380
1E0380
3C0780
380780
780F00
701F00
F03F00
F07F00
F0FF00
F1FE00
F3EE00
FFCE00
7F1E00
3C1E00
ENDCHAR
STARTCHAR uni0228
ENCODING 552
SWIDTH 547 0
DWIDTH 19 0
BBX 19 32 3 -7
BITMAP
07FFE0
07FFE0
0FFFE0
0F0000
0F0000
0F0000
0E0000
1E0000
1E0000
1E0000
1E0000
1FFE00
3FFE00
3FFE00
3C0000
3C0000
380000
780000
780000
780000
700000
700000
FFFE00
FFFE00
FFFE00
018000
038000
01C000
00C000
01C000
07C000
078000
ENDCHAR
STARTCHAR uni0229
ENCODING 553
SWIDTH 529 0
DWIDTH 18 0
BBX 15 25 3 -7
BITMAP
00F8
03FC
0FFE
1F1E
1C0E
381C
781C
7078
71F0
FFC0
FE00
E000
E002
F00C
F83C
7FFC
3FF0
1FC0
0300
0700
0380
0180
0380
0F80
0F00
ENDCHAR
STARTCHAR uni022A
ENCODING 554
SWIDTH 777 0
DWIDTH 26 0
BBX 24 34 4 0
BITMAP
007FE0
007FE0
007FE0
000000
001870
003870
0038E0
000000
000000
001FC0
007FF8
01FFFC
03F07E
07C01E
0F001E
1E000F
3C000F
3C000F
78000F
78000F
70000F
F0000F
F0000E
F0001E
F0001E
F0003C
F0003C
F00078
7800F0
7C03E0
7E0FC0
3FFF80
1FFE00
03F800
ENDCHAR
STARTCHAR uni022B
ENCODING 555
SWIDTH 566 0
DWIDTH 19 0
BBX 17 27 3 0
BITMAP
03FF00
03FF00
03FF00
000000
00C380
01C380
01C700
000000
000000
00F800
03FE00
0FFF00
1F0F00
1C0780
380780
780780
700780
700700
F00700
F00700
F00E00
F01E00
F03C00
F07800
7FF000
3FE000
1F8000
ENDCHAR
STARTCHAR uni022C
ENCODING 556
SWIDTH 777 0
DWIDTH 26 0
BBX 24 34 4 0
BITMAP
007FE0
007FE0
007FE0
000000
001E30
003FE0
0063C0
000000
000000
001FC0
007FF8
01FFFC
03F07E
07C01E
0F001E
1E000F
3C000F
3C000F
78000F
78000F
70000F
F0000F
F0000E
F0001E
F0001E
F0003C
F0003C
F00078
7800F0
7C03E0
7E0FC0
3FFF80
1FFE00
03F800
ENDCHAR
STARTCHAR uni022D
ENCODING 557
SWIDTH 566 0
DWIDTH 19 0
BBX 17 27 3 0
BITMAP
07FE00
07FE00
07FE00
000000
00F180
01FF00
031E00
000000
000000
00F800
03FE00
0FFF00
1F0F00
1C0780
380780
780780
700780
700700
F00700
F00700
F00E00
F01E00
F03C00
F07800
7FF000
3FE000
1F8000
ENDCHAR
STARTCHAR uni022E
ENCODING 558
SWIDTH 777 0
DWIDTH 26 0
BBX 24 29 4 0
BITMAP
000700
000F00
000E00
000000
001FC0
007FF8
01FFFC
03F07E
07C01E
0F001E
1E000F
3C000F
3C000F
78000F
78000F
70000F
F0000F
F0000E
F0001E
F0001E
F0003C
F0003C
F00078
7800F0
7C03E0
7E0FC0
3FFF80
1FFE00
03F800
ENDCHAR
STARTCHAR uni022F
ENCODING 559
SWIDTH 566 0
DWIDTH 19 0
BBX 17 22 3 0
BITMAP
007000
00F000
00E000
000000
00F800
03FE00
0FFF00
1F0F00
1C0780
380780
780780
700780
700700
F00700
F00700
F00E00
F01E00
F03C00
F07800
7FF000
3FE000
1F8000
ENDCHAR
STARTCHAR uni0230
ENCODING 560
SWIDTH 777 0
DWIDTH 26 0
BBX 24 33 4 0
BITMAP
007FE0
007FE0
007FE0
000000
000700
000F00
000E00
000000
001FC0
007FF8
01FFFC
03F07E
07C01E
0F001E
1E000F
3C000F
3C000F
78000F
78000F
70000F
F0000F
F0000E
F0001E
F0001E
F0003C
F0003C
F00078
7800F0
7C03E0
7E0FC0
3FFF80
1FFE00
03F800
ENDCHAR
STARTCHAR uni0231
ENCODING 561
SWIDTH 566 0
DWIDTH 19 0
BBX 17 26 3 0
BITMAP
07FE00
07FE00
07FE00
000000
007000
00F000
00E000
000000
00F800
03FE00
0FFF00
1F0F00
1C0780
380780
780780
700780
700700
F00700
F00700
F00E00
F01E00
F03C00
F07800
7FF000
3FE000
1F8000
ENDCHAR
STARTCHAR uni0232
ENCODING 562
SWIDTH 608 0
DWIDTH 21 0
BBX 20 29 5 0
BITMAP
07FE00
07FE00
07FE00
000000
F000F0
7001E0
7803C0
780380
3C0780
3C0F00
1C1E00
1E3C00
0E3800
0F7800
0FF000
07E000
07C000
03C000
038000
078000
078000
078000
070000
070000
0F0000
0F0000
0E0000
0E0000
1E0000
ENDCHAR
STARTCHAR uni0233
ENCODING 563
SWIDTH 548 0
DWIDTH 19 0
BBX 19 29 3 -7
BITMAP
0FFC00
0FFC00
0FFC00
000000
7801E0
7801C0
3803C0
380780
380700
380F00
3C0E00
3C1C00
1C3C00
1C3800
1C7800
1EF000
1EE000
1FE000
0FC000
0F8000
0F8000
0F0000
0F0000
0E0000
1C0000
1C0000
380000
700000
F00000
ENDCHAR
STARTCHAR uni0250
ENCODING 592
SWIDTH 608 0
DWIDTH 21 0
BBX 18 18 3 0
BITMAP
1E0F00
1E3F80
1CFFC0
1DF3C0
1FE3C0
3FC3C0
3F83C0
3F03C0
3E0380
3C0780
780700
780F00
701E00
703C00
707800
FFF000
FFE000
FF8000
ENDCHAR
STARTCHAR uni0259
ENCODING 601
SWIDTH 529 0
DWIDTH 18 0
BBX 15 18 3 0
BITMAP
07F0
1FF8
7FFC
783E
601E
800E
000E
00FE
07FE
1F1C
3C1C
703C
7038
E070
F1F0
FFE0
7F80
3E00
ENDCHAR
STARTCHAR uni025F
ENCODING 607
SWIDTH 383 0
DWIDTH 13 0
BBX 17 34 2 -16
BITMAP
000380
000780
000700
000700
000700
000700
000F00
000E00
000E00
000E00
000E00
001E00
001C00
001C00
001C00
001C00
003C00
003800
003800
003800
003800
007800
0FFE00
0FFE00
0FFE00
007000
00F000
00E000
01E000
01C000
87C000
FF8000
FF0000
FC0000
ENDCHAR
STARTCHAR uni0265
ENCODING 613
SWIDTH 620 0
DWIDTH 21 0
BBX 18 26 3 -8
BITMAP
1C01C0
3C03C0
3C0380
380380
380380
380780
780780
780F00
701F00
703F00
707F00
F07F00
F0FE00
E1EE00
F3CE00
FF9E00
FF1E00
7C1C00
001C00
001C00
003C00
003C00
003800
003800
003800
007800
ENDCHAR
STARTCHAR uni0275
ENCODING 629
SWIDTH 566 0
DWIDTH 19 0
BBX 17 18 3 0
BITMAP
00F800
03FE00
0FFF00
1F0F00
1C0780
380780
780780
FFFF80
FFFF80
FFFF80
F00700
F00E00
F01E00
F03C00
F07800
7FF000
3FE000
1F8000
ENDCHAR
STARTCHAR uni0279
ENCODING 633
SWIDTH 478 0
DWIDTH 16 0
BBX 15 18 3 0
BITMAP
000E
001E
001E
001C
001C
001C
003C
007C
0078
00F8
01F8
03F8
03F8
0770
0E70
7C70
F870
E0F0
ENDCHAR
STARTCHAR uni0287
ENCODING 647
SWIDTH 383 0
DWIDTH 13 0
BBX 11 23 4 0
BITMAP
0F00
1FC0
1FC0
03C0
01C0
01C0
01C0
01C0
0380
0380
0380
0380
0780
0700
0700
FFE0
FFE0
FFE0
0F00
0E00
0E00
0E00
0E00
ENDCHAR
STARTCHAR uni0289
ENCODING 649
SWIDTH 620 0
DWIDTH 21 0
BBX 17 18 4 0
BITMAP
1C0380
1C0780
380780
380700
380700
380700
380F00
FFFF80
FFFF80
FFFF80
707E00
70FE00
E1FE00
E1FC00
F3DC00
FF9C00
FE1C00
7C3C00
ENDCHAR
STARTCHAR uni028C
ENCODING 652
SWIDTH 545 0
DWIDTH 18 0
BBX 17 18 5 0
BITMAP
001E00
003E00
003E00
007E00
007E00
00EE00
01CF00
01C700
038700
070700
070700
0E0700
0E0700
1C0700
380780
380380
700380
E00380
ENDCHAR
STARTCHAR uni028D
ENCODING 653
SWIDTH 795 0
DWIDTH 27 0
BBX 25 18 4 0
BITMAP
00780E00
00F81F00
00F81F00
01F83F00
01F83F00
03F87700
03B87700
07B8E700
0738E700
0F39E700
0E39C700
1C3BC700
1C1B8780
381F8380
381F0380
701F0380
701E0380
E01E0380
ENDCHAR
STARTCHAR uni028E
ENCODING 654
SWIDTH 548 0
DWIDTH 19 0
BBX 19 25 3 0
BITMAP
0001E0
0001C0
000380
000700
000700
000E00
001E00
001E00
003E00
003E00
007E00
00FF00
00EF00
01EF00
03C700
038700
078700
070780
0E0780
1E0380
1C0380
3C0380
780380
7003C0
F003C0
ENDCHAR
STARTCHAR uni029E
ENCODING 670
SWIDTH 572 0
DWIDTH 20 0
BBX 18 26 3 -8
BITMAP
3C01C0
1E03C0
0F0380
0F0380
078380
03C380
01C780
01E700
00F700
007F00
00F700
01EF00
03CE00
078E00
0F0E00
1E1E00
3C1E00
F01C00
001C00
001C00
003C00
003C00
003800
003800
003800
007800
ENDCHAR
STARTCHAR uni02BB
ENCODING 699
SWIDTH 217 0
DWIDTH 7 0
BBX 6 10 5 16
BITMAP
0C
38
30
70
60
60
78
F8
F0
F0
ENDCHAR
STARTCHAR afii57929
ENCODING 700
SWIDTH 217 0
DWIDTH 7 0
BBX 6 10 5 16
BITMAP
3C
3C
7C
7C
38
38
38
70
F0
E0
ENDCHAR
STARTCHAR afii64937
ENCODING 701
SWIDTH 217 0
DWIDTH 7 0
BBX 6 10 5 16
BITMAP
F0
F0
F8
F8
70
70
70
38
3C
1C
ENDCHAR
STARTCHAR circumflex
ENCODING 710
SWIDTH 566 0
DWIDTH 19 0
BBX 11 5 9 21
BITMAP
0780
0F80
19C0
31C0
E0E0
ENDCHAR
STARTCHAR caron
ENCODING 711
SWIDTH 568 0
DWIDTH 19 0
BBX 11 5 10 21
BITMAP
E0E0
71C0
7380
3F00
3E00
ENDCHAR
STARTCHAR uni02C8
ENCODING 712
SWIDTH 217 0
DWIDTH 7 0
BBX 4 9 6 17
BITMAP
F0
F0
F0
F0
F0
F0
70
60
60
ENDCHAR
STARTCHAR macron
ENCODING 713
SWIDTH 566 0
DWIDTH 19 0
BBX 10 3 10 22
BITMAP
FFC0
FFC0
FFC0
ENDCHAR
STARTCHAR uni02CA
ENCODING 714
SWIDTH 566 0
DWIDTH 19 0
BBX 8 5 12 21
BITMAP
0F
1C
38
70
E0
ENDCHAR
STARTCHAR uni02CB
ENCODING 715
SWIDTH 572 0
DWIDTH 19 0
BBX 6 5 11 21
BITMAP
F0
70
38
38
1C
ENDCHAR
STARTCHAR uni02CD
ENCODING 717
SWIDTH 566 0
DWIDTH 19 0
BBX 10 3 10 -4
BITMAP
FFC0
FFC0
FFC0
ENDCHAR
STARTCHAR uni02CE
ENCODING 718
SWIDTH 572 0
DWIDTH 19 0
BBX 6 5 11 -6
BITMAP
F0
70
38
38
1C
ENDCHAR
STARTCHAR uni02CF
ENCODING 719
SWIDTH 566 0
DWIDTH 19 0
BBX 8 5 12 -6
BITMAP
0F
1C
38
70
E0
ENDCHAR
STARTCHAR breve
ENCODING 728
SWIDTH 566 0
DWIDTH 19 0
BBX 11 5 10 21
BITMAP
C060
C0C0
E1C0
7F80
3E00
ENDCHAR
STARTCHAR dotaccent
ENCODING 729
SWIDTH 566 0
DWIDTH 19 0
BBX 4 3 13 22
BITMAP
70
F0
E0
ENDCHAR
STARTCHAR ring
ENCODING 730
SWIDTH 567 0
DWIDTH 19 0
BBX 5 5 12 22
BITMAP
70
D8
88
D8
70
ENDCHAR
STARTCHAR ogonek
ENCODING 731
SWIDTH 566 0
DWIDTH 19 0
BBX 6 5 6 -6
BITMAP
38
60
E0
F4
7C
ENDCHAR
STARTCHAR tilde
ENCODING 732
SWIDTH 566 0
DWIDTH 19 0
BBX 11 3 9 22
BITMAP
3C60
7FC0
C780
ENDCHAR
STARTCHAR hungarumlaut
ENCODING 733
SWIDTH 566 0
DWIDTH 19 0
BBX 11 5 10 21
BITMAP
0EE0
1D80
3B00
7600
EC00
ENDCHAR
STARTCHAR uni02EE
ENCODING 750
SWIDTH 361 0
DWIDTH 12 0
BBX 11 9 5 17
BITMAP
39E0
79C0
71C0
30C0
30C0
3080
6180
E300
8200
ENDCHAR
STARTCHAR uni037E
ENCODING 894
SWIDTH 316 0
DWIDTH 11 0
BBX 8 24 3 -6
BITMAP
07
0F
0E
00
00
00
00
00
00
00
00
00
00
00
00
38
78
78
30
30
30
60
C0
80
ENDCHAR
STARTCHAR tonos
ENCODING 900
SWIDTH 566 0
DWIDTH 19 0
BBX 8 5 12 21
BITMAP
0F
1C
38
70
E0
ENDCHAR
STARTCHAR dieresistonos
ENCODING 901
SWIDTH 566 0
DWIDTH 19 0
BBX 11 9 10 22
BITMAP
01E0
0380
0700
0E00
1C00
0000
61C0
E1C0
E380
ENDCHAR
STARTCHAR anoteleia
ENCODING 903
SWIDTH 316 0
DWIDTH 21 0
BBX 5 4 10 9
BITMAP
78
78
F0
F0
ENDCHAR
STARTCHAR mu
ENCODING 956
SWIDTH 627 0
DWIDTH 21 0
BBX 19 24 2 -6
BITMAP
0F00E0
0E01E0
0E01E0
0E01C0
0E01C0
1E01C0
1C03C0
1C03C0
1C0780
1C0780
1C0F80
381B80
383F80
387700
38F700
3FE700
7FCF00
7F0F00
700000
700000
700000
F00000
E00000
E00000
ENDCHAR
STARTCHAR uni1E00
ENCODING 7680
SWIDTH 687 0
DWIDTH 23 0
BBX 22 31 1 -6
BITMAP
000380
0007C0
000FC0
000FC0
001FC0
001DC0
003DE0
0039E0
0071E0
0070E0
00E0E0
01E0E0
01C0F0
03C0F0
038070
078070
07FFF0
0FFFF8
0FFFF8
1C0078
3C0078
380038
78003C
70003C
E0003C
000000
003800
006C00
004400
006C00
003800
ENDCHAR
STARTCHAR uni1E01
ENCODING 7681
SWIDTH 608 0
DWIDTH 21 0
BBX 18 24 3 -6
BITMAP
007FC0
01FFC0
03FFC0
078380
0F0380
1E0380
3C0780
380780
780F00
701F00
F03F00
F07F00
F0FF00
F1FE00
F3EE00
FFCE00
7F1E00
3C1E00
000000
01C000
036000
022000
036000
01C000
ENDCHAR
STARTCHAR uni1E02
ENCODING 7682
SWIDTH 593 0
DWIDTH 20 0
BBX 18 29 3 0
BITMAP
003800
007800
007000
000000
07FE00
07FF80
0FFF80
0F07C0
0F03C0
0E03C0
0E03C0
1E0380
1E0780
1C0F00
1C3E00
1FF800
3FF800
3FFE00
3C3F00
380F00
380700
780780
780780
780700
700F00
703F00
FFFE00
FFFC00
FFE000
ENDCHAR
STARTCHAR uni1E03
ENCODING 7683
SWIDTH 608 0
DWIDTH 21 0
BBX 18 30 3 0
BITMAP
038000
078000
070000
000000
070000
070000
070000
0F0000
0F0000
0E0000
0E0000
0E0000
1E0F00
1E3F80
1CFFC0
1DF3C0
1FE1C0
3FC3C0
3F83C0
3F03C0
3E0380
3C0780
780700
780F00
701E00
703C00
707800
FFF000
FFE000
FF8000
ENDCHAR
STARTCHAR uni1E04
ENCODING 7684
SWIDTH 593 0
DWIDTH 20 0
BBX 18 29 3 -4
BITMAP
07FE00
07FF80
0FFF80
0F07C0
0F03C0
0E03C0
0E03C0
1E0380
1E0780
1C0F00
1C3E00
1FF800
3FF800
3FFE00
3C3F00
380F00
380700
780780
780780
780700
700F00
703F00
FFFE00
FFFC00
FFE000
000000
01C000
03C000
038000
ENDCHAR
STARTCHAR uni1E05
ENCODING 7685
SWIDTH 608 0
DWIDTH 21 0
BBX 18 30 3 -4
BITMAP
070000
070000
070000
0F0000
0F0000
0E0000
0E0000
0E0000
1E0F00
1E3F80
1CFFC0
1DF3C0
1FE1C0
3FC3C0
3F83C0
3F03C0
3E0380
3C0780
780700
780F00
701E00
703C00
707800
FFF000
FFE000
FF8000
000000
038000
078000
070000
ENDCHAR
STARTCHAR uni1E06
ENCODING 7686
SWIDTH 593 0
DWIDTH 20 0
BBX 18 29 3 -4
BITMAP
07FE00
07FF80
0FFF80
0F07C0
0F03C0
0E03C0
0E03C0
1E0380
1E0780
1C0F00
1C3E00
1FF800
3FF800
3FFE00
3C3F00
380F00
380700
780780
780780
780700
700F00
703F00
FFFE00
FFFC00
FFE000
000000
1FF800
1FF800
1FF800
ENDCHAR
STARTCHAR uni1E07
ENCODING 7687
SWIDTH 608 0
DWIDTH 21 0
BBX 18 30 3 -4
BITMAP
070000
070000
070000
0F0000
0F0000
0E0000
0E0000
0E0000
1E0F00
1E3F80
1CFFC0
1DF3C0
1FE1C0
3FC3C0
3F83C0
3F03C0
3E0380
3C0780
780700
780F00
701E00
703C00
707800
FFF000
FFE000
FF8000
000000
3FF000
3FF000
3FF000
ENDCHAR
STARTCHAR uni1E08
ENCODING 7688
SWIDTH 679 0
DWIDTH 23 0
BBX 22 38 4 -7
BITMAP
000780
000E00
001C00
003800
007000
000000
001FF0
007FFC
01FFFC
03E00C
0FC000
0F0000
1E0000
3E0000
3C0000
780000
780000
700000
F00000
F00000
F00000
F00000
F00000
F00000
F00000
F80000
780040
7E03C0
3FFFC0
1FFF00
03F800
018000
038000
01C000
00C000
01C000
07C000
078000
ENDCHAR
STARTCHAR uni1E09
ENCODING 7689
SWIDTH 503 0
DWIDTH 17 0
BBX 15 31 3 -7
BITMAP
0078
00E0
01C0
0380
0700
0000
00FE
03FE
07FE
0F82
1E00
3C00
7800
7000
7000
F000
F000
F000
F000
F008
F838
7FF8
3FF0
1F80
0600
0E00
0700
0300
0700
1F00
1E00
ENDCHAR
STARTCHAR uni1E0A
ENCODING 7690
SWIDTH 743 0
DWIDTH 25 0
BBX 23 29 3 0
BITMAP
000E00
001E00
001C00
000000
07FFC0
07FFF0
0FFFF8
0F01FC
0E007C
0E003E
0E001E
1E001E
1E001E
1C001E
1C001E
1C001E
3C001E
3C001C
38003C
38003C
380078
780078
7800F0
7001E0
7003E0
700FC0
FFFF80
FFFE00
FFF000
ENDCHAR
STARTCHAR uni1E0B
ENCODING 7691
SWIDTH 608 0
DWIDTH 21 0
BBX 20 30 3 0
BITMAP
000380
000780
000700
000000
000070
0000F0
0000E0
0000E0
0000E0
0000E0
0001E0
0001C0
007FC0
01FFC0
03FFC0
07C3C0
0F0380
1E0380
3C0380
380780
780F80
701F00
F03F00
F07F00
F0FF00
F1FF00
F3EE00
FFCE00
7F0E00
3C1E00
ENDCHAR
STARTCHAR uni1E0C
ENCODING 7692
SWIDTH 743 0
DWIDTH 25 0
BBX 23 29 3 -4
BITMAP
07FFC0
07FFF0
0FFFF8
0F01FC
0E007C
0E003E
0E001E
1E001E
1E001E
1C001E
1C001E
1C001E
3C001E
3C001C
38003C
38003C
380078
780078
7800F0
7001E0
7003E0
700FC0
FFFF80
FFFE00
FFF000
000000
00E000
01E000
01C000
ENDCHAR
STARTCHAR uni1E0D
ENCODING 7693
SWIDTH 608 0
DWIDTH 21 0
BBX 20 30 3 -4
BITMAP
000070
0000F0
0000E0
0000E0
0000E0
0000E0
0001E0
0001C0
007FC0
01FFC0
03FFC0
07C3C0
0F0380
1E0380
3C0380
380780
780F80
701F00
F03F00
F07F00
F0FF00
F1FF00
F3EE00
FFCE00
7F0E00
3C1E00
000000
01C000
03C000
038000
ENDCHAR
STARTCHAR uni1E0E
ENCODING 7694
SWIDTH 743 0
DWIDTH 25 0
BBX 23 29 3 -4
BITMAP
07FFC0
07FFF0
0FFFF8
0F01FC
0E007C
0E003E
0E001E
1E001E
1E001E
1C001E
1C001E
1C001E
3C001E
3C001C
38003C
38003C
380078
780078
7800F0
7001E0
7003E0
700FC0
FFFF80
FFFE00
FFF000
000000
07FE00
07FE00
07FE00
ENDCHAR
STARTCHAR uni1E0F
ENCODING 7695
SWIDTH 608 0
DWIDTH 21 0
BBX 20 30 3 -4
BITMAP
000070
0000F0
0000E0
0000E0
0000E0
0000E0
0001E0
0001C0
007FC0
01FFC0
03FFC0
07C3C0
0F0380
1E0380
3C0380
380780
780F80
701F00
F03F00
F07F00
F0FF00
F1FF00
F3EE00
FFCE00
7F0E00
3C1E00
000000
0FFC00
0FFC00
0FFC00
ENDCHAR
STARTCHAR uni1E10
ENCODING 7696
SWIDTH 743 0
DWIDTH 25 0
BBX 23 32 3 -7
BITMAP
07FFC0
07FFF0
0FFFF8
0F01FC
0E007C
0E003E
0E001E
1E001E
1E001E
1C001E
1C001E
1C001E
3C001E
3C001C
38003C
38003C
380078
780078
7800F0
7001E0
7003E0
700FC0
FFFF80
FFFE00
FFF000
006000
00E000
007000
003000
007000
01F000
01E000
ENDCHAR
STARTCHAR uni1E11
ENCODING 7697
SWIDTH 608 0
DWIDTH 21 0
BBX 20 33 3 -7
BITMAP
000070
0000F0
0000E0
0000E0
0000E0
0000E0
0001E0
0001C0
007FC0
01FFC0
03FFC0
07C3C0
0F0380
1E0380
3C0380
380780
780F80
701F00
F03F00
F07F00
F0FF00
F1FF00
F3EE00
FFCE00
7F0E00
3C5E00
00C000
01C000
00E000
006000
00E000
03E000
03C000
ENDCHAR
STARTCHAR uni1E12
ENCODING 7698
SWIDTH 743 0
DWIDTH 25 0
BBX 23 31 3 -6
BITMAP
07FFC0
07FFF0
0FFFF8
0F01FC
0E007C
0E003E
0E001E
1E001E
1E001E
1C001E
1C001E
1C001E
3C001E
3C001C
38003C
38003C
380078
780078
7800F0
7001E0
7003E0
700FC0
FFFF80
FFFE00
FFF000
000000
00F000
01F000
033800
063800
1C1C00
ENDCHAR
STARTCHAR uni1E13
ENCODING 7699
SWIDTH 608 0
DWIDTH 21 0
BBX 20 32 3 -6
BITMAP
000070
0000F0
0000E0
0000E0
0000E0
0000E0
0001E0
0001C0
007FC0
01FFC0
03FFC0
07C3C0
0F0380
1E0380
3C0380
380780
780F80
701F00
F03F00
F07F00
F0FF00
F1FF00
F3EE00
FFCE00
7F0E00
3C1E00
000000
01E000
03E000
067000
0C7000
383800
ENDCHAR
STARTCHAR uni1E14
ENCODING 7700
SWIDTH 547 0
DWIDTH 19 0
BBX 19 35 3 0
BITMAP
01E000
00E000
007000
007000
003800
000000
07FE00
07FE00
07FE00
000000
07FFE0
07FFE0
0FFFE0
0F0000
0F0000
0F0000
0E0000
1E0000
1E0000
1E0000
1E0000
1FFE00
3FFE00
3FFE00
3C0000
3C0000
380000
780000
780000
780000
700000
700000
FFFE00
FFFE00
FFFE00
ENDCHAR
STARTCHAR uni1E15
ENCODING 7701
SWIDTH 529 0
DWIDTH 18 0
BBX 15 28 3 0
BITMAP
0780
0380
01C0
01C0
00E0
0000
0FFC
0FFC
0FFC
0000
00F8
03FC
0FFE
1F1E
1C0E
381C
781C
7078
71F0
FFC0
FE00
E000
E002
F00C
F83C
7FFC
3FF0
1FC0
ENDCHAR
STARTCHAR uni1E16
ENCODING 7702
SWIDTH 547 0
DWIDTH 19 0
BBX 19 35 3 0
BITMAP
000F00
001C00
003800
007000
00E000
000000
07FE00
07FE00
07FE00
000000
07FFE0
07FFE0
0FFFE0
0F0000
0F0000
0F0000
0E0000
1E0000
1E0000
1E0000
1E0000
1FFE00
3FFE00
3FFE00
3C0000
3C0000
380000
780000
780000
780000
700000
700000
FFFE00
FFFE00
FFFE00
ENDCHAR
STARTCHAR uni1E17
ENCODING 7703
SWIDTH 529 0
DWIDTH 18 0
BBX 15 28 3 0
BITMAP
003C
0070
00E0
01C0
0380
0000
0FFC
0FFC
0FFC
0000
00F8
03FC
0FFE
1F1E
1C0E
381C
781C
7078
71F0
FFC0
FE00
E000
E002
F00C
F83C
7FFC
3FF0
1FC0
ENDCHAR
STARTCHAR uni1E18
ENCODING 7704
SWIDTH 547 0
DWIDTH 19 0
BBX 19 31 3 -6
BITMAP
07FFE0
07FFE0
0FFFE0
0F0000
0F0000
0F0000
0E0000
1E0000
1E0000
1E0000
1E0000
1FFE00
3FFE00
3FFE00
3C0000
3C0000
380000
780000
780000
780000
700000
700000
FFFE00
FFFE00
FFFE00
000000
03C000
07C000
0CE000
18E000
707000
ENDCHAR
STARTCHAR uni1E19
ENCODING 7705
SWIDTH 529 0
DWIDTH 18 0
BBX 15 24 3 -6
BITMAP
00F8
03FC
0FFE
1F1E
1C0E
381C
781C
7078
71F0
FFC0
FE00
E000
E002
F00C
F83C
7FFC
3FF0
1FC0
0000
03C0
07C0
0CE0
18E0
7070
ENDCHAR
STARTCHAR uni1E1A
ENCODING 7706
SWIDTH 547 0
DWIDTH 19 0
BBX 19 29 3 -4
BITMAP
07FFE0
07FFE0
0FFFE0
0F0000
0F0000
0F0000
0E0000
1E0000
1E0000
1E0000
1E0000
1FFE00
3FFE00
3FFE00
3C0000
3C0000
380000
780000
780000
780000
700000
700000
FFFE00
FFFE00
FFFE00
000000
0F1800
1FF000
31E000
ENDCHAR
STARTCHAR uni1E1B
ENCODING 7707
SWIDTH 529 0
DWIDTH 18 0
BBX 15 22 3 -4
BITMAP
00F8
03FC
0FFE
1F1E
1C0E
381C
781C
7078
71F0
FFC0
FE00
E000
E002
F00C
F83C
7FFC
3FF0
1FC0
0000
1E30
3FE0
63C0
ENDCHAR
STARTCHAR uni1E1C
ENCODING 7708
SWIDTH 547 0
DWIDTH 19 0
BBX 19 38 3 -7
BITMAP
060300
060600
070E00
03FC00
01F000
000000
07FFE0
07FFE0
0FFFE0
0F0000
0F0000
0F0000
0E0000
1E0000
1E0000
1E0000
1E0000
1FFE00
3FFE00
3FFE00
3C0000
3C0000
380000
780000
780000
780000
700000
700000
FFFE00
FFFE00
FFFE00
018000
038000
01C000
00C000
01C000
07C000
078000
ENDCHAR
STARTCHAR uni1E1D
ENCODING 7709
SWIDTH 529 0
DWIDTH 18 0
BBX 15 31 3 -7
BITMAP
180C
1818
1C38
0FF0
07C0
0000
00F8
03FC
0FFE
1F1E
1C0E
381C
781C
7078
71F0
FFC0
FE00
E000
E002
F00C
F83C
7FFC
3FF0
1FC0
0300
0700
0380
0180
0380
0F80
0F00
ENDCHAR
STARTCHAR uni1E1E
ENCODING 7710
SWIDTH 536 0
DWIDTH 18 0
BBX 19 29 3 0
BITMAP
007000
00F000
00E000
000000
07FFE0
07FFE0
0FFFE0
0F0000
0F0000
0E0000
0E0000
1E0000
1E0000
1E0000
1C0000
1FFE00
3FFE00
3FFC00
3C0000
380000
380000
780000
780000
780000
700000
700000
F00000
F00000
F00000
ENDCHAR
STARTCHAR uni1E1F
ENCODING 7711
SWIDTH 383 0
DWIDTH 13 0
BBX 17 38 2 -7
BITMAP
007000
00F000
00E000
000000
001F80
007F80
00FF80
01F080
01C000
03C000
038000
078000
070000
3FF800
3FF800
3FF800
0F0000
0E0000
0E0000
0E0000
0E0000
1E0000
1C0000
1C0000
1C0000
1C0000
3C0000
380000
380000
380000
380000
780000
700000
700000
700000
700000
F00000
E00000
ENDCHAR
STARTCHAR uni1E20
ENCODING 7712
SWIDTH 702 0
DWIDTH 24 0
BBX 22 29 4 0
BITMAP
01FF80
01FF80
01FF80
000000
001FF0
007FFC
01FFFC
03F00C
0F8000
0F0000
1E0000
3C0000
3C0000
780000
780000
700000
F00000
F00000
F000F0
F000E0
F000E0
F000E0
F001E0
F801E0
7C01C0
7E03C0
3FFFC0
1FFFC0
03FC00
ENDCHAR
STARTCHAR uni1E21
ENCODING 7713
SWIDTH 608 0
DWIDTH 21 0
BBX 19 29 2 -7
BITMAP
03FF00
03FF00
03FF00
000000
003FE0
00FFE0
01FFE0
03E1C0
0781C0
0F01C0
1E01C0
1E03C0
3C0780
3C0780
380F80
381B80
783F80
387700
38E700
3FC700
3F8700
1E0F00
000E00
000E00
801C00
F03C00
FFF800
FFF000
1FC000
ENDCHAR
STARTCHAR uni1E22
ENCODING 7714
SWIDTH 735 0
DWIDTH 25 0
BBX 24 29 3 0
BITMAP
000700
000F00
000E00
000000
07000F
07000F
0F000F
0F000E
0F000E
0E001E
0E001E
1E001E
1E001C
1E003C
1FFFFC
1FFFFC
3FFFFC
3C0038
3C0038
380078
380078
780078
780070
780070
7000F0
7000F0
F000F0
F000E0
F000E0
ENDCHAR
STARTCHAR uni1E23
ENCODING 7715
SWIDTH 620 0
DWIDTH 21 0
BBX 18 30 3 0
BITMAP
01C000
03C000
038000
000000
078000
070000
070000
070000
0F0000
0F0000
0E0000
0E0000
0E0F80
1E3FC0
1E7FC0
1CF3C0
1DE1C0
1FC3C0
3F83C0
3F8380
3F0380
3E0380
3C0780
780780
780700
700700
700700
700F00
F00F00
E00E00
ENDCHAR
STARTCHAR uni1E24
ENCODING 7716
SWIDTH 735 0
DWIDTH 25 0
BBX 24 29 3 -4
BITMAP
07000F
07000F
0F000F
0F000E
0F000E
0E001E
0E001E
1E001E
1E001C
1E003C
1FFFFC
1FFFFC
3FFFFC
3C0038
3C0038
380078
380078
780078
780070
780070
7000F0
7000F0
F000F0
F000E0
F000E0
000000
007000
00F000
00E000
ENDCHAR
STARTCHAR uni1E25
ENCODING 7717
SWIDTH 620 0
DWIDTH 21 0
BBX 18 30 3 -4
BITMAP
078000
070000
070000
070000
0F0000
0F0000
0E0000
0E0000
0E0F80
1E3FC0
1E7FC0
1CF3C0
1DE1C0
1FC3C0
3F83C0
3F8380
3F0380
3E0380
3C0780
780780
780700
700700
700700
700F00
F00F00
E00E00
000000
01C000
03C000
038000
ENDCHAR
STARTCHAR uni1E26
ENCODING 7718
SWIDTH 735 0
DWIDTH 25 0
BBX 24 29 3 0
BITMAP
0030E0
0070E0
0071C0
000000
07000F
07000F
0F000F
0F000E
0F000E
0E001E
0E001E
1E001E
1E001C
1E003C
1FFFFC
1FFFFC
3FFFFC
3C0038
3C0038
380078
380078
780078
780070
780070
7000F0
7000F0
F000F0
F000E0
F000E0
ENDCHAR
STARTCHAR uni1E27
ENCODING 7719
SWIDTH 620 0
DWIDTH 21 0
BBX 18 30 3 0
BITMAP
0C3800
1C3800
1C7000
000000
078000
070000
070000
070000
0F0000
0F0000
0E0000
0E0000
0E0F80
1E3FC0
1E7FC0
1CF3C0
1DE1C0
1FC3C0
3F83C0
3F8380
3F0380
3E0380
3C0780
780780
780700
700700
700700
700F00
F00F00
E00E00
ENDCHAR
STARTCHAR uni1E28
ENCODING 7720
SWIDTH 735 0
DWIDTH 25 0
BBX 24 32 3 -7
BITMAP
07000F
07000F
0F000F
0F000E
0F000E
0E001E
0E001E
1E001E
1E001C
1E003C
1FFFFC
1FFFFC
3FFFFC
3C0038
3C0038
380078
380078
780078
780070
780070
7000F0
7000F0
F000F0
F000E0
F010E0
003000
007000
003800
001800
003800
00F800
00F000
ENDCHAR
STARTCHAR uni1E29
ENCODING 7721
SWIDTH 620 0
DWIDTH 21 0
BBX 18 33 3 -7
BITMAP
078000
070000
070000
070000
0F0000
0F0000
0E0000
0E0000
0E0F80
1E3FC0
1E7FC0
1CF3C0
1DE1C0
1FC3C0
3F83C0
3F8380
3F0380
3E0380
3C0780
780780
780700
700700
700700
700F00
F00F00
E04E00
00C000
01C000
00E000
006000
00E000
03E000
03C000
ENDCHAR
STARTCHAR uni1E2A
ENCODING 7722
SWIDTH 735 0
DWIDTH 25 0
BBX 24 31 3 -6
BITMAP
07000F
07000F
0F000F
0F000E
0F000E
0E001E
0E001E
1E001E
1E001C
1E003C
1FFFFC
1FFFFC
3FFFFC
3C0038
3C0038
380078
380078
780078
780070
780070
7000F0
7000F0
F000F0
F000E0
F000E0
000000
060300
060600
070E00
03FC00
01F000
ENDCHAR
STARTCHAR uni1E2B
ENCODING 7723
SWIDTH 620 0
DWIDTH 21 0
BBX 18 32 3 -6
BITMAP
078000
070000
070000
070000
0F0000
0F0000
0E0000
0E0000
0E0F80
1E3FC0
1E7FC0
1CF3C0
1DE1C0
1FC3C0
3F83C0
3F8380
3F0380
3E0380
3C0780
780780
780700
700700
700700
700F00
F00F00
E00E00
000000
180C00
181800
1C3800
0FF000
07C000
ENDCHAR
STARTCHAR uni1E2C
ENCODING 7724
SWIDTH 289 0
DWIDTH 10 0
BBX 11 29 0 -4
BITMAP
01E0
01E0
01E0
01C0
01C0
01C0
03C0
03C0
0380
0380
0380
0780
0780
0780
0700
0700
0700
0F00
0F00
0E00
0E00
0E00
1E00
1E00
1E00
0000
3C60
7FC0
C780
ENDCHAR
STARTCHAR uni1E2D
ENCODING 7725
SWIDTH 289 0
DWIDTH 10 0
BBX 11 29 0 -4
BITMAP
00E0
01E0
01C0
0000
0000
0000
0000
03C0
0380
0380
0380
0380
0780
0700
0700
0700
0700
0F00
0F00
0E00
0E00
0E00
1E00
1E00
1C00
0000
3C60
7FC0
C780
ENDCHAR
STARTCHAR uni1E2E
ENCODING 7726
SWIDTH 289 0
DWIDTH 10 0
BBX 12 36 3 0
BITMAP
00F0
01C0
0380
0700
0E00
0000
1870
3870
38E0
0000
0000
0F00
0F00
0F00
0E00
0E00
0E00
1E00
1E00
1C00
1C00
1C00
3C00
3C00
3C00
3800
3800
3800
7800
7800
7000
7000
7000
F000
F000
F000
ENDCHAR
STARTCHAR uni1E2F
ENCODING 7727
SWIDTH 289 0
DWIDTH 10 0
BBX 12 29 3 0
BITMAP
00F0
01C0
0380
0700
0E00
0000
1870
3870
38E0
0000
0000
0E00
1E00
1C00
1C00
1C00
1C00
3C00
3800
3800
3800
3800
7800
7000
7000
7000
7000
F000
E000
ENDCHAR
STARTCHAR uni1E30
ENCODING 7728
SWIDTH 635 0
DWIDTH 22 0
BBX 21 31 3 0
BITMAP
000F00
001C00
003800
007000
00E000
000000
070078
0700F0
0F01E0
0F03C0
0E0780
0E0F00
0E1E00
1E3C00
1E7800
1CF000
1DE000
1FC000
3FC000
3DC000
38E000
38F000
387000
787800
783C00
781C00
701E00
700F00
F00700
F00780
F003C0
ENDCHAR
STARTCHAR uni1E31
ENCODING 7729
SWIDTH 572 0
DWIDTH 20 0
BBX 18 32 3 0
BITMAP
007800
00E000
01C000
038000
070000
000000
078000
070000
070000
070000
0F0000
0F0000
0E0000
0E0000
0E03C0
1E0F00
1E1E00
1C3C00
1C7800
1CF000
3DE000
3BC000
3F8000
3BC000
39E000
78E000
70F000
707800
703C00
703C00
F01E00
E00F00
ENDCHAR
STARTCHAR uni1E32
ENCODING 7730
SWIDTH 635 0
DWIDTH 22 0
BBX 21 29 3 -4
BITMAP
070078
0700F0
0F01E0
0F03C0
0E0780
0E0F00
0E1E00
1E3C00
1E7800
1CF000
1DE000
1FC000
3FC000
3DC000
38E000
38F000
387000
787800
783C00
781C00
701E00
700F00
F00700
F00780
F003C0
000000
00E000
01E000
01C000
ENDCHAR
STARTCHAR uni1E33
ENCODING 7731
SWIDTH 572 0
DWIDTH 20 0
BBX 18 30 3 -4
BITMAP
078000
070000
070000
070000
0F0000
0F0000
0E0000
0E0000
0E03C0
1E0F00
1E1E00
1C3C00
1C7800
1CF000
3DE000
3BC000
3F8000
3BC000
39E000
78E000
70F000
707800
703C00
703C00
F01E00
E00F00
000000
01C000
03C000
038000
ENDCHAR
STARTCHAR uni1E34
ENCODING 7732
SWIDTH 635 0
DWIDTH 22 0
BBX 21 29 3 -4
BITMAP
070078
0700F0
0F01E0
0F03C0
0E0780
0E0F00
0E1E00
1E3C00
1E7800
1CF000
1DE000
1FC000
3FC000
3DC000
38E000
38F000
387000
787800
783C00
781C00
701E00
700F00
F00700
F00780
F003C0
000000
0FFC00
0FFC00
0FFC00
ENDCHAR
STARTCHAR uni1E35
ENCODING 7733
SWIDTH 572 0
DWIDTH 20 0
BBX 18 30 3 -4
BITMAP
078000
070000
070000
070000
0F0000
0F0000
0E0000
0E0000
0E03C0
1E0F00
1E1E00
1C3C00
1C7800
1CF000
3DE000
3BC000
3F8000
3BC000
39E000
78E000
70F000
707800
703C00
703C00
F01E00
E00F00
000000
1FF800
1FF800
1FF800
ENDCHAR
STARTCHAR uni1E36
ENCODING 7734
SWIDTH 545 0
DWIDTH 19 0
BBX 15 29 3 -4
BITMAP
0700
0F00
0F00
0F00
0E00
0E00
0E00
1E00
1E00
1C00
1C00
1C00
3C00
3C00
3800
3800
3800
7800
7800
7000
7000
7000
FFFE
FFFE
FFFE
0000
0700
0F00
0E00
ENDCHAR
STARTCHAR uni1E37
ENCODING 7735
SWIDTH 289 0
DWIDTH 10 0
BBX 9 30 3 -4
BITMAP
0380
0780
0700
0700
0700
0700
0F00
0E00
0E00
0E00
1E00
1C00
1C00
1C00
1C00
3C00
3800
3800
3800
7800
7800
7000
7000
7000
F000
E000
0000
3800
7800
7000
ENDCHAR
STARTCHAR uni1E38
ENCODING 7736
SWIDTH 545 0
DWIDTH 19 0
BBX 15 33 3 -4
BITMAP
7FE0
7FE0
7FE0
0000
0700
0F00
0F00
0F00
0E00
0E00
0E00
1E00
1E00
1C00
1C00
1C00
3C00
3C00
3800
3800
3800
7800
7800
7000
7000
7000
FFFE
FFFE
FFFE
0000
0700
0F00
0E00
ENDCHAR
STARTCHAR uni1E39
ENCODING 7737
SWIDTH 289 0
DWIDTH 10 0
BBX 11 34 3 -4
BITMAP
7FE0
7FE0
7FE0
0000
0380
0780
0700
0700
0700
0700
0F00
0E00
0E00
0E00
1E00
1C00
1C00
1C00
1C00
3C00
3800
3800
3800
7800
7800
7000
7000
7000
F000
E000
0000
3800
7800
7000
ENDCHAR
STARTCHAR uni1E3A
ENCODING 7738
SWIDTH 545 0
DWIDTH 19 0
BBX 15 29 3 -4
BITMAP
0700
0F00
0F00
0F00
0E00
0E00
0E00
1E00
1E00
1C00
1C00
1C00
3C00
3C00
3800
3800
3800
7800
7800
7000
7000
7000
FFFE
FFFE
FFFE
0000
3FF0
3FF0
3FF0
ENDCHAR
STARTCHAR uni1E3B
ENCODING 7739
SWIDTH 289 0
DWIDTH 10 0
BBX 11 30 1 -4
BITMAP
00E0
01E0
01C0
01C0
01C0
01C0
03C0
0380
0380
0380
0780
0700
0700
0700
0700
0F00
0E00
0E00
0E00
1E00
1E00
1C00
1C00
1C00
3C00
3800
0000
FFC0
FFC0
FFC0
ENDCHAR
STARTCHAR uni1E3C
ENCODING 7740
SWIDTH 545 0
DWIDTH 19 0
BBX 15 31 3 -6
BITMAP
0700
0F00
0F00
0F00
0E00
0E00
0E00
1E00
1E00
1C00
1C00
1C00
3C00
3C00
3800
3800
3800
7800
7800
7000
7000
7000
FFFE
FFFE
FFFE
0000
0780
0F80
19C0
31C0
E0E0
ENDCHAR
STARTCHAR uni1E3D
ENCODING 7741
SWIDTH 289 0
DWIDTH 10 0
BBX 12 32 0 -6
BITMAP
0070
00F0
00E0
00E0
00E0
00E0
01E0
01C0
01C0
01C0
03C0
0380
0380
0380
0380
0780
0700
0700
0700
0F00
0F00
0E00
0E00
0E00
1E00
1C00
0000
0780
0F80
19C0
31C0
E0E0
ENDCHAR
STARTCHAR uni1E3E
ENCODING 7742
SWIDTH 828 0
DWIDTH 28 0
BBX 27 31 3 0
BITMAP
0000F000
0001C000
00038000
00070000
000E0000
00000000
07C003E0
07C007E0
0FC007E0
0FC00FC0
0FC00FC0
0FE01DC0
0FE01FC0
1CE03BC0
1CE03B80
1CE07380
1CE06380
1CE0E780
38F1C780
38F1C700
38738700
38738700
38770F00
70770F00
707E0E00
707C0E00
707C0E00
70380E00
E0381E00
E0001C00
E0001C00
ENDCHAR
STARTCHAR uni1E3F
ENCODING 7743
SWIDTH 934 0
DWIDTH 32 0
BBX 28 24 3 0
BITMAP
00007800
0000E000
0001C000
00038000
00070000
00000000
0E0F01E0
1E3F87F0
1C7F9FF0
1CF7BEF0
1DE3BC70
1FC7F8F0
3F87F0F0
3F07E0E0
3E07C0E0
3E07C0E0
3C0F81E0
780F01C0
780E01C0
700E01C0
700E01C0
701E03C0
E01E0380
E01C0380
ENDCHAR
STARTCHAR uni1E40
ENCODING 7744
SWIDTH 828 0
DWIDTH 28 0
BBX 27 29 3 0
BITMAP
00038000
00078000
00070000
00000000
07C003E0
07C007E0
0FC007E0
0FC00FC0
0FC00FC0
0FE01DC0
0FE01FC0
1CE03BC0
1CE03B80
1CE07380
1CE06380
1CE0E780
38F1C780
38F1C700
38738700
38738700
38770F00
70770F00
707E0E00
707C0E00
707C0E00
70380E00
E0381E00
E0001C00
E0001C00
ENDCHAR
STARTCHAR uni1E41
ENCODING 7745
SWIDTH 934 0
DWIDTH 32 0
BBX 28 22 3 0
BITMAP
0001C000
0003C000
00038000
00000000
0E0F01E0
1E3F87F0
1C7F9FF0
1CF7BEF0
1DE3BC70
1FC7F8F0
3F87F0F0
3F07E0E0
3E07C0E0
3E07C0E0
3C0F81E0
780F01C0
780E01C0
700E01C0
700E01C0
701E03C0
E01E0380
E01C0380
ENDCHAR
STARTCHAR uni1E42
ENCODING 7746
SWIDTH 828 0
DWIDTH 28 0
BBX 27 29 3 -4
BITMAP
07C003E0
07C007E0
0FC007E0
0FC00FC0
0FC00FC0
0FE01DC0
0FE01FC0
1CE03BC0
1CE03B80
1CE07380
1CE06380
1CE0E780
38F1C780
38F1C700
38738700
38738700
38770F00
70770F00
707E0E00
707C0E00
707C0E00
70380E00
E0381E00
E0001C00
E0001C00
00000000
001C0000
003C0000
00380000
ENDCHAR
STARTCHAR uni1E43
ENCODING 7747
SWIDTH 934 0
DWIDTH 32 0
BBX 28 22 3 -4
BITMAP
0E0F01E0
1E3F87F0
1C7F9FF0
1CF7BEF0
1DE3BC70
1FC7F8F0
3F87F0F0
3F07E0E0
3E07C0E0
3E07C0E0
3C0F81E0
780F01C0
780E01C0
700E01C0
700E01C0
701E03C0
E01E0380
E01C0380
00000000
000E0000
001E0000
001C0000
ENDCHAR
STARTCHAR uni1E44
ENCODING 7748
SWIDTH 741 0
DWIDTH 25 0
BBX 24 29 3 0
BITMAP
000E00
001E00
001C00
000000
078007
078007
0F8007
0FC00E
0FC00E
0FE00E
0EE00E
1CF00E
1CF01C
1C781C
1C781C
1C381C
383C1C
381C38
381E38
381E38
380F38
700F38
700770
7007F0
7003F0
7003F0
E001F0
E001E0
E001E0
ENDCHAR
STARTCHAR uni1E45
ENCODING 7749
SWIDTH 620 0
DWIDTH 21 0
BBX 18 22 3 0
BITMAP
007000
00F000
00E000
000000
0E0F80
1E3FC0
1E7FC0
1CF3C0
1DE1C0
1FC3C0
3F83C0
3F8380
3F0380
3E0380
3C0780
7C0780
780700
700700
700700
700F00
F00F00
E00E00
ENDCHAR
STARTCHAR uni1E46
ENCODING 7750
SWIDTH 741 0
DWIDTH 25 0
BBX 24 29 3 -4
BITMAP
078007
078007
0F8007
0FC00E
0FC00E
0FE00E
0EE00E
1CF00E
1CF01C
1C781C
1C781C
1C381C
383C1C
381C38
381E38
381E38
380F38
700F38
700770
7007F0
7003F0
7003F0
E001F0
E001E0
E001E0
000000
003800
007800
007000
ENDCHAR
STARTCHAR uni1E47
ENCODING 7751
SWIDTH 620 0
DWIDTH 21 0
BBX 18 22 3 -4
BITMAP
0E0F80
1E3FC0
1E7FC0
1CF3C0
1DE1C0
1FC3C0
3F83C0
3F8380
3F0380
3E0380
3C0780
7C0780
780700
700700
700700
700F00
F00F00
E00E00
000000
01C000
03C000
038000
ENDCHAR
STARTCHAR uni1E48
ENCODING 7752
SWIDTH 741 0
DWIDTH 25 0
BBX 24 29 3 -4
BITMAP
078007
078007
0F8007
0FC00E
0FC00E
0FE00E
0EE00E
1CF00E
1CF01C
1C781C
1C781C
1C381C
383C1C
381C38
381E38
381E38
380F38
700F38
700770
7007F0
7003F0
7003F0
E001F0
E001E0
E001E0
000000
01FF80
01FF80
01FF80
ENDCHAR
STARTCHAR uni1E49
ENCODING 7753
SWIDTH 620 0
DWIDTH 21 0
BBX 18 22 3 -4
BITMAP
0E0F80
1E3FC0
1E7FC0
1CF3C0
1DE1C0
1FC3C0
3F83C0
3F8380
3F0380
3E0380
3C0780
7C0780
780700
700700
700700
700F00
F00F00
E00E00
000000
0FFC00
0FFC00
0FFC00
ENDCHAR
STARTCHAR uni1E4A
ENCODING 7754
SWIDTH 741 0
DWIDTH 25 0
BBX 24 31 3 -6
BITMAP
078007
078007
0F8007
0FC00E
0FC00E
0FE00E
0EE00E
1CF00E
1CF01C
1C781C
1C781C
1C381C
383C1C
381C38
381E38
381E38
380F38
700F38
700770
7007F0
7003F0
7003F0
E001F0
E001E0
E001E0
000000
003C00
007C00
00CE00
018E00
070700
ENDCHAR
STARTCHAR uni1E4B
ENCODING 7755
SWIDTH 620 0
DWIDTH 21 0
BBX 18 24 3 -6
BITMAP
0E0F80
1E3FC0
1E7FC0
1CF3C0
1DE1C0
1FC3C0
3F83C0
3F8380
3F0380
3E0380
3C0780
7C0780
780700
700700
700700
700F00
F00F00
E00E00
000000
01E000
03E000
067000
0C7000
383800
ENDCHAR
STARTCHAR uni1E4C
ENCODING 7756
SWIDTH 777 0
DWIDTH 26 0
BBX 24 36 4 0
BITMAP
0001E0
000380
000700
000E00
001C00
000000
001E30
003FE0
0063C0
000000
000000
001FC0
007FF8
01FFFC
03F07E
07C01E
0F001E
1E000F
3C000F
3C000F
78000F
78000F
70000F
F0000F
F0000E
F0001E
F0001E
F0003C
F0003C
F00078
7800F0
7C03E0
7E0FC0
3FFF80
1FFE00
03F800
ENDCHAR
STARTCHAR uni1E4D
ENCODING 7757
SWIDTH 566 0
DWIDTH 19 0
BBX 17 29 3 0
BITMAP
000F00
001C00
003800
007000
00E000
000000
00F180
01FF00
031E00
000000
000000
00F800
03FE00
0FFF00
1F0F00
1C0780
380780
780780
700780
700700
F00700
F00700
F00E00
F01E00
F03C00
F07800
7FF000
3FE000
1F8000
ENDCHAR
STARTCHAR uni1E4E
ENCODING 7758
SWIDTH 777 0
DWIDTH 26 0
BBX 24 34 4 0
BITMAP
0030E0
0070E0
0071C0
000000
001E30
003FE0
0063C0
000000
000000
001FC0
007FF8
01FFFC
03F07E
07C01E
0F001E
1E000F
3C000F
3C000F
78000F
78000F
70000F
F0000F
F0000E
F0001E
F0001E
F0003C
F0003C
F00078
7800F0
7C03E0
7E0FC0
3FFF80
1FFE00
03F800
ENDCHAR
STARTCHAR uni1E4F
ENCODING 7759
SWIDTH 566 0
DWIDTH 19 0
BBX 17 27 3 0
BITMAP
018700
038700
038E00
000000
00F180
01FF00
031E00
000000
000000
00F800
03FE00
0FFF00
1F0F00
1C0780
380780
780780
700780
700700
F00700
F00700
F00E00
F01E00
F03C00
F07800
7FF000
3FE000
1F8000
ENDCHAR
STARTCHAR uni1E50
ENCODING 7760
SWIDTH 777 0
DWIDTH 26 0
BBX 24 35 4 0
BITMAP
003C00
001C00
000E00
000E00
000700
000000
00FFC0
00FFC0
00FFC0
000000
001FC0
007FF8
01FFFC
03F07E
07C01E
0F001E
1E000F
3C000F
3C000F
78000F
78000F
70000F
F0000F
F0000E
F0001E
F0001E
F0003C
F0003C
F00078
7800F0
7C03E0
7E0FC0
3FFF80
1FFE00
03F800
ENDCHAR
STARTCHAR uni1E51
ENCODING 7761
SWIDTH 566 0
DWIDTH 19 0
BBX 17 28 3 0
BITMAP
03C000
01C000
00E000
00E000
007000
000000
07FE00
07FE00
07FE00
000000
00F800
03FE00
0FFF00
1F0F00
1C0780
380780
780780
700780
700700
F00700
F00700
F00E00
F01E00
F03C00
F07800
7FF000
3FE000
1F8000
ENDCHAR
STARTCHAR uni1E52
ENCODING 7762
SWIDTH 777 0
DWIDTH 26 0
BBX 24 35 4 0
BITMAP
0001E0
000380
000700
000E00
001C00
000000
00FFC0
00FFC0
00FFC0
000000
001FC0
007FF8
01FFFC
03F07E
07C01E
0F001E
1E000F
3C000F
3C000F
78000F
78000F
70000F
F0000F
F0000E
F0001E
F0001E
F0003C
F0003C
F00078
7800F0
7C03E0
7E0FC0
3FFF80
1FFE00
03F800
ENDCHAR
STARTCHAR uni1E53
ENCODING 7763
SWIDTH 566 0
DWIDTH 19 0
BBX 17 28 3 0
BITMAP
001E00
003800
007000
00E000
01C000
000000
07FE00
07FE00
07FE00
000000
00F800
03FE00
0FFF00
1F0F00
1C0780
380780
780780
700780
700700
F00700
F00700
F00E00
F01E00
F03C00
F07800
7FF000
3FE000
1F8000
ENDCHAR
STARTCHAR uni1E54
ENCODING 7764
SWIDTH 575 0
DWIDTH 20 0
BBX 19 31 3 0
BITMAP
000F00
001C00
003800
007000
00E000
000000
07FF00
07FFC0
0FFFC0
0F03E0
0F01E0
0E01E0
0E01E0
1E01E0
1E01C0
1E03C0
1C0780
1C1F00
3FFE00
3FF800
3FE000
380000
380000
780000
780000
780000
700000
700000
F00000
F00000
F00000
ENDCHAR
STARTCHAR uni1E55
ENCODING 7765
SWIDTH 608 0
DWIDTH 21 0
BBX 19 31 2 -7
BITMAP
000F00
001C00
003800
007000
00E000
000000
070780
0F1FC0
0E7FE0
0EF9E0
0EF1E0
0FE1E0
0FC1E0
1F81E0
1F01C0
1E03C0
1E0380
1C0780
380F00
381E00
383C00
3FF800
3FF000
7FC000
700000
700000
700000
700000
F00000
F00000
E00000
ENDCHAR
STARTCHAR uni1E56
ENCODING 7766
SWIDTH 575 0
DWIDTH 20 0
BBX 19 29 3 0
BITMAP
003800
007800
007000
000000
07FF00
07FFC0
0FFFC0
0F03E0
0F01E0
0E01E0
0E01E0
1E01E0
1E01C0
1E03C0
1C0780
1C1F00
3FFE00
3FF800
3FE000
380000
380000
780000
780000
780000
700000
700000
F00000
F00000
F00000
ENDCHAR
STARTCHAR uni1E57
ENCODING 7767
SWIDTH 608 0
DWIDTH 21 0
BBX 19 29 2 -7
BITMAP
003800
007800
007000
000000
070780
0F1FC0
0E7FE0
0EF9E0
0EF1E0
0FE1E0
0FC1E0
1F81E0
1F01C0
1E03C0
1E0380
1C0780
380F00
381E00
383C00
3FF800
3FF000
7FC000
700000
700000
700000
700000
F00000
F00000
E00000
ENDCHAR
STARTCHAR uni1E58
ENCODING 7768
SWIDTH 632 0
DWIDTH 21 0
BBX 19 29 3 0
BITMAP
003800
007800
007000
000000
07FF00
07FFC0
0FFFE0
0F03E0
0F01E0
0E01E0
0E01E0
1E01C0
1E01C0
1E0380
1E0700
1C1E00
3FFC00
3FF000
3FF800
3C3800
383C00
781C00
781E00
780E00
700F00
700700
F00780
F00380
F003C0
ENDCHAR
STARTCHAR uni1E59
ENCODING 7769
SWIDTH 478 0
DWIDTH 16 0
BBX 15 22 3 0
BITMAP
01C0
03C0
0380
0000
1E0E
1C3E
1C7C
1CE0
1DC0
3F80
3F80
3F00
3E00
3C00
7C00
7800
7000
7000
7000
F000
F000
E000
ENDCHAR
STARTCHAR uni1E5A
ENCODING 7770
SWIDTH 632 0
DWIDTH 21 0
BBX 19 29 3 -4
BITMAP
07FF00
07FFC0
0FFFE0
0F03E0
0F01E0
0E01E0
0E01E0
1E01C0
1E01C0
1E0380
1E0700
1C1E00
3FFC00
3FF000
3FF800
3C3800
383C00
781C00
781E00
780E00
700F00
700700
F00780
F00380
F003C0
000000
01C000
03C000
038000
ENDCHAR
STARTCHAR uni1E5B
ENCODING 7771
SWIDTH 478 0
DWIDTH 16 0
BBX 15 22 3 -4
BITMAP
1E0E
1C3E
1C7C
1CE0
1DC0
3F80
3F80
3F00
3E00
3C00
7C00
7800
7000
7000
7000
F000
F000
E000
0000
1C00
3C00
3800
ENDCHAR
STARTCHAR uni1E5C
ENCODING 7772
SWIDTH 632 0
DWIDTH 21 0
BBX 19 33 3 -4
BITMAP
03FF00
03FF00
03FF00
000000
07FF00
07FFC0
0FFFE0
0F03E0
0F01E0
0E01E0
0E01E0
1E01C0
1E01C0
1E0380
1E0700
1C1E00
3FFC00
3FF000
3FF800
3C3800
383C00
781C00
781E00
780E00
700F00
700700
F00780
F00380
F003C0
000000
01C000
03C000
038000
ENDCHAR
STARTCHAR uni1E5D
ENCODING 7773
SWIDTH 478 0
DWIDTH 16 0
BBX 15 26 3 -4
BITMAP
1FF8
1FF8
1FF8
0000
1E0E
1C3E
1C7C
1CE0
1DC0
3F80
3F80
3F00
3E00
3C00
7C00
7800
7000
7000
7000
F000
F000
E000
0000
1C00
3C00
3800
ENDCHAR
STARTCHAR uni1E5E
ENCODING 7774
SWIDTH 632 0
DWIDTH 21 0
BBX 19 29 3 -4
BITMAP
07FF00
07FFC0
0FFFE0
0F03E0
0F01E0
0E01E0
0E01E0
1E01C0
1E01C0
1E0380
1E0700
1C1E00
3FFC00
3FF000
3FF800
3C3800
383C00
781C00
781E00
780E00
700F00
700700
F00780
F00380
F003C0
000000
0FFC00
0FFC00
0FFC00
ENDCHAR
STARTCHAR uni1E5F
ENCODING 7775
SWIDTH 478 0
DWIDTH 16 0
BBX 16 22 2 -4
BITMAP
0F07
0E1F
0E3E
0E70
0EE0
1FC0
1FC0
1F80
1F00
1E00
3E00
3C00
3800
3800
3800
7800
7800
7000
0000
FFC0
FFC0
FFC0
ENDCHAR
STARTCHAR uni1E60
ENCODING 7776
SWIDTH 553 0
DWIDTH 19 0
BBX 19 29 2 0
BITMAP
003800
007800
007000
000000
007F80
01FFE0
03FFE0
07C060
0F0000
0F0000
0F0000
0F0000
0F0000
078000
07E000
03F000
00F800
007C00
003E00
001F00
000F00
000700
000700
000F00
400F00
F03E00
FFFC00
FFF800
1FE000
ENDCHAR
STARTCHAR uni1E61
ENCODING 7777
SWIDTH 489 0
DWIDTH 17 0
BBX 14 22 3 0
BITMAP
01C0
03C0
0380
0000
03F0
0FFC
0FFC
1E0C
1C00
1E00
1E00
0F80
07C0
03E0
01E0
00F0
0070
8070
E0F0
FFF0
FFE0
3F80
ENDCHAR
STARTCHAR uni1E62
ENCODING 7778
SWIDTH 553 0
DWIDTH 19 0
BBX 19 29 2 -4
BITMAP
007F80
01FFE0
03FFE0
07C060
0F0000
0F0000
0F0000
0F0000
0F0000
078000
07E000
03F000
00F800
007C00
003E00
001F00
000F00
000700
000700
000F00
400F00
F03E00
FFFC00
FFF800
1FE000
000000
01C000
03C000
038000
ENDCHAR
STARTCHAR uni1E63
ENCODING 7779
SWIDTH 489 0
DWIDTH 17 0
BBX 14 22 3 -4
BITMAP
03F0
0FFC
0FFC
1E0C
1C00
1E00
1E00
0F80
07C0
03E0
01E0
00F0
0070
8070
E0F0
FFF0
FFE0
3F80
0000
0700
0F00
0E00
ENDCHAR
STARTCHAR uni1E64
ENCODING 7780
SWIDTH 553 0
DWIDTH 19 0
BBX 19 35 2 0
BITMAP
001C00
003C00
003800
000000
000F00
001C00
003800
007000
00E000
000000
007F80
01FFE0
03FFE0
07C060
0F0000
0F0000
0F0000
0F0000
0F0000
078000
07E000
03F000
00F800
007C00
003E00
001F00
000F00
000700
000700
000F00
400F00
F03E00
FFFC00
FFF800
1FE000
ENDCHAR
STARTCHAR uni1E65
ENCODING 7781
SWIDTH 489 0
DWIDTH 17 0
BBX 14 28 3 0
BITMAP
00E0
01E0
01C0
0000
0078
00E0
01C0
0380
0700
0000
03F0
0FFC
0FFC
1E0C
1C00
1E00
1E00
0F80
07C0
03E0
01E0
00F0
0070
8070
E0F0
FFF0
FFE0
3F80
ENDCHAR
STARTCHAR uni1E66
ENCODING 7782
SWIDTH 553 0
DWIDTH 19 0
BBX 19 36 2 0
BITMAP
001C00
003C00
003800
000000
00E0E0
0071C0
007380
003F00
003E00
000000
000000
007F80
01FFE0
03FFE0
07C060
0F0000
0F0000
0F0000
0F0000
0F0000
078000
07E000
03F000
00F800
007C00
003E00
001F00
000F00
000700
000700
000F00
400F00
F03E00
FFFC00
FFF800
1FE000
ENDCHAR
STARTCHAR uni1E67
ENCODING 7783
SWIDTH 489 0
DWIDTH 17 0
BBX 17 29 3 0
BITMAP
003800
007800
007000
000000
038380
01C700
01CE00
00FC00
00F800
000000
000000
03F000
0FFC00
0FFC00
1E0C00
1C0000
1E0000
1E0000
0F8000
07C000
03E000
01E000
00F000
007000
807000
E0F000
FFF000
FFE000
3F8000
ENDCHAR
STARTCHAR uni1E68
ENCODING 7784
SWIDTH 553 0
DWIDTH 19 0
BBX 19 33 2 -4
BITMAP
003800
007800
007000
000000
007F80
01FFE0
03FFE0
07C060
0F0000
0F0000
0F0000
0F0000
0F0000
078000
07E000
03F000
00F800
007C00
003E00
001F00
000F00
000700
000700
000F00
400F00
F03E00
FFFC00
FFF800
1FE000
000000
01C000
03C000
038000
ENDCHAR
STARTCHAR uni1E69
ENCODING 7785
SWIDTH 489 0
DWIDTH 17 0
BBX 14 26 3 -4
BITMAP
01C0
03C0
0380
0000
03F0
0FFC
0FFC
1E0C
1C00
1E00
1E00
0F80
07C0
03E0
01E0
00F0
0070
8070
E0F0
FFF0
FFE0
3F80
0000
0700
0F00
0E00
ENDCHAR
STARTCHAR uni1E6A
ENCODING 7786
SWIDTH 623 0
DWIDTH 21 0
BBX 21 29 5 0
BITMAP
003800
007800
007000
000000
FFFFF8
FFFFF8
FFFFF8
00F000
00F000
00F000
00E000
00E000
01E000
01E000
01E000
01C000
01C000
03C000
03C000
03C000
038000
038000
038000
078000
078000
070000
070000
070000
0F0000
ENDCHAR
STARTCHAR uni1E6B
ENCODING 7787
SWIDTH 383 0
DWIDTH 13 0
BBX 11 27 4 0
BITMAP
0700
0F00
0E00
0000
0E00
0E00
0E00
0E00
1E00
FFE0
FFE0
FFE0
1C00
1C00
3C00
3800
3800
3800
3800
7000
7000
7000
7000
7800
7F00
7F00
1E00
ENDCHAR
STARTCHAR uni1E6C
ENCODING 7788
SWIDTH 623 0
DWIDTH 21 0
BBX 21 29 5 -4
BITMAP
FFFFF8
FFFFF8
FFFFF8
00F000
00F000
00F000
00E000
00E000
01E000
01E000
01E000
01C000
01C000
03C000
03C000
03C000
038000
038000
038000
078000
078000
070000
070000
070000
0F0000
000000
01C000
03C000
038000
ENDCHAR
STARTCHAR uni1E6D
ENCODING 7789
SWIDTH 383 0
DWIDTH 13 0
BBX 11 27 4 -4
BITMAP
0E00
0E00
0E00
0E00
1E00
FFE0
FFE0
FFE0
1C00
1C00
3C00
3800
3800
3800
3800
7000
7000
7000
7000
7800
7F00
7F00
1E00
0000
1C00
3C00
3800
ENDCHAR
STARTCHAR uni1E6E
ENCODING 7790
SWIDTH 623 0
DWIDTH 21 0
BBX 21 29 5 -4
BITMAP
FFFFF8
FFFFF8
FFFFF8
00F000
00F000
00F000
00E000
00E000
01E000
01E000
01E000
01C000
01C000
03C000
03C000
03C000
038000
038000
038000
078000
078000
070000
070000
070000
0F0000
000000
1FF800
1FF800
1FF800
ENDCHAR
STARTCHAR uni1E6F
ENCODING 7791
SWIDTH 383 0
DWIDTH 13 0
BBX 12 27 3 -4
BITMAP
0700
0700
0700
0700
0F00
7FF0
7FF0
7FF0
0E00
0E00
1E00
1C00
1C00
1C00
1C00
3800
3800
3800
3800
3C00
3F80
3F80
0F00
0000
FFC0
FFC0
FFC0
ENDCHAR
STARTCHAR uni1E70
ENCODING 7792
SWIDTH 623 0
DWIDTH 21 0
BBX 21 31 5 -6
BITMAP
FFFFF8
FFFFF8
FFFFF8
00F000
00F000
00F000
00E000
00E000
01E000
01E000
01E000
01C000
01C000
03C000
03C000
03C000
038000
038000
038000
078000
078000
070000
070000
070000
0F0000
000000
01E000
03E000
067000
0C7000
383800
ENDCHAR
STARTCHAR uni1E71
ENCODING 7793
SWIDTH 383 0
DWIDTH 13 0
BBX 13 29 2 -6
BITMAP
0380
0380
0380
0380
0780
3FF8
3FF8
3FF8
0700
0700
0F00
0E00
0E00
0E00
0E00
1C00
1C00
1C00
1C00
1E00
1FC0
1FC0
0780
0000
0780
0F80
19C0
31C0
E0E0
ENDCHAR
STARTCHAR uni1E72
ENCODING 7794
SWIDTH 693 0
DWIDTH 24 0
BBX 21 29 4 -4
BITMAP
1E0038
1E0038
1E0078
1C0070
3C0070
3C0070
3C0070
3C00F0
3800E0
7800E0
7800E0
7800E0
7801E0
7001C0
F001C0
F001C0
F001C0
F00380
F00380
F00780
F80700
7C1E00
7FFE00
3FF800
0FE000
000000
0C3800
1C3800
1C7000
ENDCHAR
STARTCHAR uni1E73
ENCODING 7795
SWIDTH 620 0
DWIDTH 21 0
BBX 17 22 4 -4
BITMAP
1C0380
1C0780
380780
380700
380700
380700
380F00
701F00
703E00
703E00
707E00
70FE00
E1FE00
E1FC00
F3DC00
FF9C00
FE1C00
7C3C00
000000
187000
387000
38E000
ENDCHAR
STARTCHAR uni1E74
ENCODING 7796
SWIDTH 693 0
DWIDTH 24 0
BBX 21 29 4 -4
BITMAP
1E0038
1E0038
1E0078
1C0070
3C0070
3C0070
3C0070
3C00F0
3800E0
7800E0
7800E0
7800E0
7801E0
7001C0
F001C0
F001C0
F001C0
F00380
F00380
F00780
F80700
7C1E00
7FFE00
3FF800
0FE000
000000
078C00
0FF800
18F000
ENDCHAR
STARTCHAR uni1E75
ENCODING 7797
SWIDTH 620 0
DWIDTH 21 0
BBX 17 22 4 -4
BITMAP
1C0380
1C0780
380780
380700
380700
380700
380F00
701F00
703E00
703E00
707E00
70FE00
E1FE00
E1FC00
F3DC00
FF9C00
FE1C00
7C3C00
000000
0F1800
1FF000
31E000
ENDCHAR
STARTCHAR uni1E76
ENCODING 7798
SWIDTH 693 0
DWIDTH 24 0
BBX 21 31 4 -6
BITMAP
1E0038
1E0038
1E0078
1C0070
3C0070
3C0070
3C0070
3C00F0
3800E0
7800E0
7800E0
7800E0
7801E0
7001C0
F001C0
F001C0
F001C0
F00380
F00380
F00780
F80700
7C1E00
7FFE00
3FF800
0FE000
000000
01E000
03E000
067000
0C7000
383800
ENDCHAR
STARTCHAR uni1E77
ENCODING 7799
SWIDTH 620 0
DWIDTH 21 0
BBX 17 24 4 -6
BITMAP
1C0380
1C0780
380780
380700
380700
380700
380F00
701F00
703E00
703E00
707E00
70FE00
E1FE00
E1FC00
F3DC00
FF9C00
FE1C00
7C3C00
000000
03C000
07C000
0CE000
18E000
707000
ENDCHAR
STARTCHAR uni1E78
ENCODING 7800
SWIDTH 693 0
DWIDTH 24 0
BBX 21 35 4 0
BITMAP
000780
000E00
001C00
003800
007000
000000
00F180
01FF00
031E00
000000
1E0038
1E0038
1E0078
1C0070
3C0070
3C0070
3C0070
3C00F0
3800E0
7800E0
7800E0
7800E0
7801E0
7001C0
F001C0
F001C0
F001C0
F00380
F00380
F00780
F80700
7C1E00
7FFE00
3FF800
0FE000
ENDCHAR
STARTCHAR uni1E79
ENCODING 7801
SWIDTH 620 0
DWIDTH 21 0
BBX 17 28 4 0
BITMAP
001E00
003800
007000
00E000
01C000
000000
03C600
07FC00
0C7800
000000
1C0380
1C0780
380780
380700
380700
380700
380F00
701F00
703E00
703E00
707E00
70FE00
E1FE00
E1FC00
F3DC00
FF9C00
FE1C00
7C3C00
ENDCHAR
STARTCHAR uni1E7A
ENCODING 7802
SWIDTH 693 0
DWIDTH 24 0
BBX 21 33 4 0
BITMAP
018700
038700
038E00
000000
03FF00
03FF00
03FF00
000000
1E0038
1E0038
1E0078
1C0070
3C0070
3C0070
3C0070
3C00F0
3800E0
7800E0
7800E0
7800E0
7801E0
7001C0
F001C0
F001C0
F001C0
F00380
F00380
F00780
F80700
7C1E00
7FFE00
3FF800
0FE000
ENDCHAR
STARTCHAR uni1E7B
ENCODING 7803
SWIDTH 620 0
DWIDTH 21 0
BBX 17 26 4 0
BITMAP
061C00
0E1C00
0E3800
000000
0FFC00
0FFC00
0FFC00
000000
1C0380
1C0780
380780
380700
380700
380700
380F00
701F00
703E00
703E00
707E00
70FE00
E1FE00
E1FC00
F3DC00
FF9C00
FE1C00
7C3C00
ENDCHAR
STARTCHAR uni1E7C
ENCODING 7804
SWIDTH 687 0
DWIDTH 23 0
BBX 22 29 5 0
BITMAP
01E300
03FE00
063C00
000000
F0003C
F00038
F00078
700070
7000F0
7800E0
7801C0
7803C0
380380
380780
3C0700
3C0F00
3C0E00
3C1E00
1C1C00
1E3800
1E3800
1E7000
1EF000
0EE000
0FE000
0FC000
0FC000
0F8000
070000
ENDCHAR
STARTCHAR uni1E7D
ENCODING 7805
SWIDTH 545 0
DWIDTH 18 0
BBX 17 22 5 0
BITMAP
078C00
0FF800
18F000
000000
E00380
E00700
E00E00
F00E00
701C00
703800
703800
707000
707000
70E000
71C000
79C000
3B8000
3F0000
3F0000
3E0000
3E0000
3C0000
ENDCHAR
STARTCHAR uni1E7E
ENCODING 7806
SWIDTH 687 0
DWIDTH 23 0
BBX 22 29 5 -4
BITMAP
F0003C
F00038
F00078
700070
7000F0
7800E0
7801C0
7803C0
380380
380780
3C0700
3C0F00
3C0E00
3C1E00
1C1C00
1E3800
1E3800
1E7000
1EF000
0EE000
0FE000
0FC000
0FC000
0F8000
070000
000000
01C000
03C000
038000
ENDCHAR
STARTCHAR uni1E7F
ENCODING 7807
SWIDTH 545 0
DWIDTH 18 0
BBX 17 22 5 -4
BITMAP
E00380
E00700
E00E00
F00E00
701C00
703800
703800
707000
707000
70E000
71C000
79C000
3B8000
3F0000
3F0000
3E0000
3E0000
3C0000
000000
070000
0F0000
0E0000
ENDCHAR
STARTCHAR Wgrave
ENCODING 7808
SWIDTH 886 0
DWIDTH 30 0
BBX 29 31 6 0
BITMAP
003C0000
001C0000
000E0000
000E0000
00070000
00000000
E0070038
E00F0070
E00F0070
E01F00E0
E01F00E0
F01F01C0
F03F01C0
F0370380
F0770380
F0770700
70E70700
70E70E00
71C78E00
71C79C00
71879C00
7387B800
7387B800
7707F800
7707F000
7E07F000
7E03E000
7C03E000
7C03C000
7803C000
78038000
ENDCHAR
STARTCHAR wgrave
ENCODING 7809
SWIDTH 795 0
DWIDTH 27 0
BBX 25 24 4 0
BITMAP
00F00000
00700000
00380000
00380000
001C0000
00000000
E03C0380
E03C0700
E07C0700
E07C0E00
E0FC0E00
F0EC1C00
71EE1C00
71CE3800
73CE7800
738E7000
738EF000
770EE000
770FE000
7E0FC000
7E0FC000
7C0F8000
7C0F8000
380F0000
ENDCHAR
STARTCHAR Wacute
ENCODING 7810
SWIDTH 886 0
DWIDTH 30 0
BBX 29 31 6 0
BITMAP
0001E000
00038000
00070000
000E0000
001C0000
00000000
E0070038
E00F0070
E00F0070
E01F00E0
E01F00E0
F01F01C0
F03F01C0
F0370380
F0770380
F0770700
70E70700
70E70E00
71C78E00
71C79C00
71879C00
7387B800
7387B800
7707F800
7707F000
7E07F000
7E03E000
7C03E000
7C03C000
7803C000
78038000
ENDCHAR
STARTCHAR wacute
ENCODING 7811
SWIDTH 795 0
DWIDTH 27 0
BBX 25 24 4 0
BITMAP
00078000
000E0000
001C0000
00380000
00700000
00000000
E03C0380
E03C0700
E07C0700
E07C0E00
E0FC0E00
F0EC1C00
71EE1C00
71CE3800
73CE7800
738E7000
738EF000
770EE000
770FE000
7E0FC000
7E0FC000
7C0F8000
7C0F8000
380F0000
ENDCHAR
STARTCHAR Wdieresis
ENCODING 7812
SWIDTH 886 0
DWIDTH 30 0
BBX 29 29 6 0
BITMAP
0030E000
0070E000
0071C000
00000000
E0070038
E00F0070
E00F0070
E01F00E0
E01F00E0
F01F01C0
F03F01C0
F0370380
F0770380
F0770700
70E70700
70E70E00
71C78E00
71C79C00
71879C00
7387B800
7387B800
7707F800
7707F000
7E07F000
7E03E000
7C03E000
7C03C000
7803C000
78038000
ENDCHAR
STARTCHAR wdieresis
ENCODING 7813
SWIDTH 795 0
DWIDTH 27 0
BBX 25 22 4 0
BITMAP
00C38000
01C38000
01C70000
00000000
E03C0380
E03C0700
E07C0700
E07C0E00
E0FC0E00
F0EC1C00
71EE1C00
71CE3800
73CE7800
738E7000
738EF000
770EE000
770FE000
7E0FC000
7E0FC000
7C0F8000
7C0F8000
380F0000
ENDCHAR
STARTCHAR uni1E86
ENCODING 7814
SWIDTH 886 0
DWIDTH 30 0
BBX 29 29 6 0
BITMAP
00070000
000F0000
000E0000
00000000
E0070038
E00F0070
E00F0070
E01F00E0
E01F00E0
F01F01C0
F03F01C0
F0370380
F0770380
F0770700
70E70700
70E70E00
71C78E00
71C79C00
71879C00
7387B800
7387B800
7707F800
7707F000
7E07F000
7E03E000
7C03E000
7C03C000
7803C000
78038000
ENDCHAR
STARTCHAR uni1E87
ENCODING 7815
SWIDTH 795 0
DWIDTH 27 0
BBX 25 22 4 0
BITMAP
001C0000
003C0000
00380000
00000000
E03C0380
E03C0700
E07C0700
E07C0E00
E0FC0E00
F0EC1C00
71EE1C00
71CE3800
73CE7800
738E7000
738EF000
770EE000
770FE000
7E0FC000
7E0FC000
7C0F8000
7C0F8000
380F0000
ENDCHAR
STARTCHAR uni1E88
ENCODING 7816
SWIDTH 886 0
DWIDTH 30 0
BBX 29 29 6 -4
BITMAP
E0070038
E00F0070
E00F0070
E01F00E0
E01F00E0
F01F01C0
F03F01C0
F0370380
F0770380
F0770700
70E70700
70E70E00
71C78E00
71C79C00
71879C00
7387B800
7387B800
7707F800
7707F000
7E07F000
7E03E000
7C03E000
7C03C000
7803C000
78038000
00000000
00380000
00780000
00700000
ENDCHAR
STARTCHAR uni1E89
ENCODING 7817
SWIDTH 795 0
DWIDTH 27 0
BBX 25 22 4 -4
BITMAP
E03C0380
E03C0700
E07C0700
E07C0E00
E0FC0E00
F0EC1C00
71EE1C00
71CE3800
73CE7800
738E7000
738EF000
770EE000
770FE000
7E0FC000
7E0FC000
7C0F8000
7C0F8000
380F0000
00000000
00700000
00F00000
00E00000
ENDCHAR
STARTCHAR uni1E8A
ENCODING 7818
SWIDTH 620 0
DWIDTH 21 0
BBX 25 29 0 0
BITMAP
00070000
000F0000
000E0000
00000000
03C00780
03C00F00
01E01E00
01E03C00
00E07800
00F07000
0070E000
0079E000
007BC000
003F8000
003F0000
001E0000
001E0000
003F0000
007F0000
00F78000
01E78000
03C38000
0383C000
0701C000
0F01E000
1E01E000
3C00F000
7800F000
F0007800
ENDCHAR
STARTCHAR uni1E8B
ENCODING 7819
SWIDTH 541 0
DWIDTH 18 0
BBX 20 22 1 0
BITMAP
001C00
003C00
003800
000000
0F00F0
0701E0
0383C0
038380
01C700
01CE00
00FC00
00F800
007000
00F800
01F800
03BC00
071C00
0E1E00
1E0E00
3C0F00
780700
F00780
ENDCHAR
STARTCHAR uni1E8C
ENCODING 7820
SWIDTH 620 0
DWIDTH 21 0
BBX 25 29 0 0
BITMAP
0030E000
0070E000
0071C000
00000000
03C00780
03C00F00
01E01E00
01E03C00
00E07800
00F07000
0070E000
0079E000
007BC000
003F8000
003F0000
001E0000
001E0000
003F0000
007F0000
00F78000
01E78000
03C38000
0383C000
0701C000
0F01E000
1E01E000
3C00F000
7800F000
F0007800
ENDCHAR
STARTCHAR uni1E8D
ENCODING 7821
SWIDTH 541 0
DWIDTH 18 0
BBX 20 22 1 0
BITMAP
00C380
01C380
01C700
000000
0F00F0
0701E0
0383C0
038380
01C700
01CE00
00FC00
00F800
007000
00F800
01F800
03BC00
071C00
0E1E00
1E0E00
3C0F00
780700
F00780
ENDCHAR
STARTCHAR uni1E8E
ENCODING 7822
SWIDTH 608 0
DWIDTH 21 0
BBX 20 29 5 0
BITMAP
007000
00F000
00E000
000000
F000F0
7001E0
7803C0
780380
3C0780
3C0F00
1C1E00
1E3C00
0E3800
0F7800
0FF000
07E000
07C000
03C000
038000
078000
078000
078000
070000
070000
0F0000
0F0000
0E0000
0E0000
1E0000
ENDCHAR
STARTCHAR uni1E8F
ENCODING 7823
SWIDTH 548 0
DWIDTH 19 0
BBX 19 29 3 -7
BITMAP
007000
00F000
00E000
000000
7801E0
7801C0
3803C0
380780
380700
380F00
3C0E00
3C1C00
1C3C00
1C3800
1C7800
1EF000
1EE000
1FE000
0FC000
0F8000
0F8000
0F0000
0F0000
0E0000
1C0000
1C0000
380000
700000
F00000
ENDCHAR
STARTCHAR uni1E90
ENCODING 7824
SWIDTH 578 0
DWIDTH 20 0
BBX 22 31 1 0
BITMAP
000780
000F80
0019C0
0031C0
00E0E0
000000
03FFFC
07FFFC
07FFFC
000078
0000F0
0001E0
0003C0
000780
000F80
001F00
001E00
003C00
007800
00F000
01E000
03E000
07C000
0F8000
0F0000
1E0000
3C0000
780000
FFFFC0
FFFFC0
FFFFC0
ENDCHAR
STARTCHAR uni1E91
ENCODING 7825
SWIDTH 536 0
DWIDTH 18 0
BBX 18 24 2 0
BITMAP
003C00
007C00
00CE00
018E00
070700
000000
0FFFC0
0FFFC0
1FFF80
000F80
001F00
003E00
007C00
00F800
01F000
03E000
07C000
0F8000
1F0000
3E0000
7C0000
7FFF00
FFFF00
FFFE00
ENDCHAR
STARTCHAR uni1E92
ENCODING 7826
SWIDTH 578 0
DWIDTH 20 0
BBX 22 29 1 -4
BITMAP
03FFFC
07FFFC
07FFFC
000078
0000F0
0001E0
0003C0
000780
000F80
001F00
001E00
003C00
007800
00F000
01E000
03E000
07C000
0F8000
0F0000
1E0000
3C0000
780000
FFFFC0
FFFFC0
FFFFC0
000000
00E000
01E000
01C000
ENDCHAR
STARTCHAR uni1E93
ENCODING 7827
SWIDTH 536 0
DWIDTH 18 0
BBX 18 22 2 -4
BITMAP
0FFFC0
0FFFC0
1FFF80
000F80
001F00
003E00
007C00
00F800
01F000
03E000
07C000
0F8000
1F0000
3E0000
7C0000
7FFF00
FFFF00
FFFE00
000000
01C000
03C000
038000
ENDCHAR
STARTCHAR uni1E94
ENCODING 7828
SWIDTH 578 0
DWIDTH 20 0
BBX 22 29 1 -4
BITMAP
03FFFC
07FFFC
07FFFC
000078
0000F0
0001E0
0003C0
000780
000F80
001F00
001E00
003C00
007800
00F000
01E000
03E000
07C000
0F8000
0F0000
1E0000
3C0000
780000
FFFFC0
FFFFC0
FFFFC0
000000
0FFC00
0FFC00
0FFC00
ENDCHAR
STARTCHAR uni1E95
ENCODING 7829
SWIDTH 536 0
DWIDTH 18 0
BBX 18 22 2 -4
BITMAP
0FFFC0
0FFFC0
1FFF80
000F80
001F00
003E00
007C00
00F800
01F000
03E000
07C000
0F8000
1F0000
3E0000
7C0000
7FFF00
FFFF00
FFFE00
000000
1FF800
1FF800
1FF800
ENDCHAR
STARTCHAR uni1E96
ENCODING 7830
SWIDTH 620 0
DWIDTH 21 0
BBX 18 30 3 -4
BITMAP
078000
070000
070000
070000
0F0000
0F0000
0E0000
0E0000
0E0F80
1E3FC0
1E7FC0
1CF3C0
1DE1C0
1FC3C0
3F83C0
3F8380
3F0380
3E0380
3C0780
780780
780700
700700
700700
700F00
F00F00
E00E00
000000
0FFC00
0FFC00
0FFC00
ENDCHAR
STARTCHAR uni1E97
ENCODING 7831
SWIDTH 383 0
DWIDTH 13 0
BBX 11 27 4 0
BITMAP
30E0
70E0
71C0
0000
0E00
0E00
0E00
0E00
1E00
FFE0
FFE0
FFE0
1C00
1C00
3C00
3800
3800
3800
3800
7000
7000
7000
7000
7800
7F00
7F00
1E00
ENDCHAR
STARTCHAR uni1E98
ENCODING 7832
SWIDTH 795 0
DWIDTH 27 0
BBX 25 24 4 0
BITMAP
00380000
006C0000
00440000
006C0000
00380000
00000000
E03C0380
E03C0700
E07C0700
E07C0E00
E0FC0E00
F0EC1C00
71EE1C00
71CE3800
73CE7800
738E7000
738EF000
770EE000
770FE000
7E0FC000
7E0FC000
7C0F8000
7C0F8000
380F0000
ENDCHAR
STARTCHAR uni1E99
ENCODING 7833
SWIDTH 548 0
DWIDTH 19 0
BBX 19 31 3 -7
BITMAP
00E000
01B000
011000
01B000
00E000
000000
7801E0
7801C0
3803C0
380780
380700
380F00
3C0E00
3C1C00
1C3C00
1C3800
1C7800
1EF000
1EE000
1FE000
0FC000
0F8000
0F8000
0F0000
0F0000
0E0000
1C0000
1C0000
380000
700000
F00000
ENDCHAR
STARTCHAR uni1EA0
ENCODING 7840
SWIDTH 687 0
DWIDTH 23 0
BBX 22 29 1 -4
BITMAP
000380
0007C0
000FC0
000FC0
001FC0
001DC0
003DE0
0039E0
0071E0
0070E0
00E0E0
01E0E0
01C0F0
03C0F0
038070
078070
07FFF0
0FFFF8
0FFFF8
1C0078
3C0078
380038
78003C
70003C
E0003C
000000
003800
007800
007000
ENDCHAR
STARTCHAR uni1EA1
ENCODING 7841
SWIDTH 608 0
DWIDTH 21 0
BBX 18 22 3 -4
BITMAP
007FC0
01FFC0
03FFC0
078380
0F0380
1E0380
3C0780
380780
780F00
701F00
F03F00
F07F00
F0FF00
F1FE00
F3EE00
FFCE00
7F1E00
3C1E00
000000
01C000
03C000
038000
ENDCHAR
STARTCHAR uni1EA4
ENCODING 7844
SWIDTH 687 0
DWIDTH 23 0
BBX 22 38 1 0
BITMAP
0000F0
0001C0
000380
000700
000E00
000000
0001E0
0003E0
000670
000C70
003838
000000
000000
000380
0007C0
000FC0
000FC0
001FC0
001DC0
003DE0
0039E0
0071E0
0070E0
00E0E0
01E0E0
01C0F0
03C0F0
038070
078070
07FFF0
0FFFF8
0FFFF8
1C0078
3C0078
380038
78003C
70003C
E0003C
ENDCHAR
STARTCHAR uni1EA5
ENCODING 7845
SWIDTH 608 0
DWIDTH 21 0
BBX 18 31 3 0
BITMAP
000780
000E00
001C00
003800
007000
000000
000F00
001F00
003380
006380
01C1C0
000000
000000
007FC0
01FFC0
03FFC0
078380
0F0380
1E0380
3C0780
380780
780F00
701F00
F03F00
F07F00
F0FF00
F1FE00
F3EE00
FFCE00
7F1E00
3C1E00
ENDCHAR
STARTCHAR uni1EA6
ENCODING 7846
SWIDTH 687 0
DWIDTH 23 0
BBX 22 38 1 0
BITMAP
001E00
000E00
000700
000700
000380
000000
0001E0
0003E0
000670
000C70
003838
000000
000000
000380
0007C0
000FC0
000FC0
001FC0
001DC0
003DE0
0039E0
0071E0
0070E0
00E0E0
01E0E0
01C0F0
03C0F0
038070
078070
07FFF0
0FFFF8
0FFFF8
1C0078
3C0078
380038
78003C
70003C
E0003C
ENDCHAR
STARTCHAR uni1EA7
ENCODING 7847
SWIDTH 608 0
DWIDTH 21 0
BBX 18 31 3 0
BITMAP
00F000
007000
003800
003800
001C00
000000
000F00
001F00
003380
006380
01C1C0
000000
000000
007FC0
01FFC0
03FFC0
078380
0F0380
1E0380
3C0780
380780
780F00
701F00
F03F00
F07F00
F0FF00
F1FE00
F3EE00
FFCE00
7F1E00
3C1E00
ENDCHAR
STARTCHAR uni1EAA
ENCODING 7850
SWIDTH 687 0
DWIDTH 23 0
BBX 22 36 1 0
BITMAP
001E30
003FE0
0063C0
000000
0001E0
0003E0
000670
000C70
003838
000000
000000
000380
0007C0
000FC0
000FC0
001FC0
001DC0
003DE0
0039E0
0071E0
0070E0
00E0E0
01E0E0
01C0F0
03C0F0
038070
078070
07FFF0
0FFFF8
0FFFF8
1C0078
3C0078
380038
78003C
70003C
E0003C
ENDCHAR
STARTCHAR uni1EAB
ENCODING 7851
SWIDTH 608 0
DWIDTH 21 0
BBX 18 29 3 0
BITMAP
0078C0
00FF80
018F00
000000
000F00
001F00
003380
006380
01C1C0
000000
000000
007FC0
01FFC0
03FFC0
078380
0F0380
1E0380
3C0780
380780
780F00
701F00
F03F00
F07F00
F0FF00
F1FE00
F3EE00
FFCE00
7F1E00
3C1E00
ENDCHAR
STARTCHAR uni1EAC
ENCODING 7852
SWIDTH 687 0
DWIDTH 23 0
BBX 22 35 1 -4
BITMAP
000780
000F80
0019C0
0031C0
00E0E0
000000
000380
0007C0
000FC0
000FC0
001FC0
001DC0
003DE0
0039E0
0071E0
0070E0
00E0E0
01E0E0
01C0F0
03C0F0
038070
078070
07FFF0
0FFFF8
0FFFF8
1C0078
3C0078
380038
78003C
70003C
E0003C
000000
003800
007800
007000
ENDCHAR
STARTCHAR uni1EAD
ENCODING 7853
SWIDTH 608 0
DWIDTH 21 0
BBX 18 28 3 -4
BITMAP
003C00
007C00
00CE00
018E00
070700
000000
007FC0
01FFC0
03FFC0
078380
0F0380
1E0380
3C0780
380780
780F00
701F00
F03F00
F07F00
F0FF00
F1FE00
F3EE00
FFCE00
7F1E00
3C1E00
000000
01C000
03C000
038000
ENDCHAR
STARTCHAR uni1EAE
ENCODING 7854
SWIDTH 687 0
DWIDTH 23 0
BBX 22 37 1 0
BITMAP
0001E0
000380
000700
000E00
001C00
000000
006030
006060
0070E0
003FC0
001F00
000000
000380
0007C0
000FC0
000FC0
001FC0
001DC0
003DE0
0039E0
0071E0
0070E0
00E0E0
01E0E0
01C0F0
03C0F0
038070
078070
07FFF0
0FFFF8
0FFFF8
1C0078
3C0078
380038
78003C
70003C
E0003C
ENDCHAR
STARTCHAR uni1EAF
ENCODING 7855
SWIDTH 608 0
DWIDTH 21 0
BBX 18 30 3 0
BITMAP
000F00
001C00
003800
007000
00E000
000000
030180
030300
038700
01FE00
00F800
000000
007FC0
01FFC0
03FFC0
078380
0F0380
1E0380
3C0780
380780
780F00
701F00
F03F00
F07F00
F0FF00
F1FE00
F3EE00
FFCE00
7F1E00
3C1E00
ENDCHAR
STARTCHAR uni1EB0
ENCODING 7856
SWIDTH 687 0
DWIDTH 23 0
BBX 22 37 1 0
BITMAP
003C00
001C00
000E00
000E00
000700
000000
006030
006060
0070E0
003FC0
001F00
000000
000380
0007C0
000FC0
000FC0
001FC0
001DC0
003DE0
0039E0
0071E0
0070E0
00E0E0
01E0E0
01C0F0
03C0F0
038070
078070
07FFF0
0FFFF8
0FFFF8
1C0078
3C0078
380038
78003C
70003C
E0003C
ENDCHAR
STARTCHAR uni1EB1
ENCODING 7857
SWIDTH 608 0
DWIDTH 21 0
BBX 18 30 3 0
BITMAP
01E000
00E000
007000
007000
003800
000000
030180
030300
038700
01FE00
00F800
000000
007FC0
01FFC0
03FFC0
078380
0F0380
1E0380
3C0780
380780
780F00
701F00
F03F00
F07F00
F0FF00
F1FE00
F3EE00
FFCE00
7F1E00
3C1E00
ENDCHAR
STARTCHAR uni1EB4
ENCODING 7860
SWIDTH 687 0
DWIDTH 23 0
BBX 22 35 1 0
BITMAP
003C60
007FC0
00C780
000000
006030
006060
0070E0
003FC0
001F00
000000
000380
0007C0
000FC0
000FC0
001FC0
001DC0
003DE0
0039E0
0071E0
0070E0
00E0E0
01E0E0
01C0F0
03C0F0
038070
078070
07FFF0
0FFFF8
0FFFF8
1C0078
3C0078
380038
78003C
70003C
E0003C
ENDCHAR
STARTCHAR uni1EB5
ENCODING 7861
SWIDTH 608 0
DWIDTH 21 0
BBX 18 28 3 0
BITMAP
00F180
01FF00
031E00
000000
030180
030300
038700
01FE00
00F800
000000
007FC0
01FFC0
03FFC0
078380
0F0380
1E0380
3C0780
380780
780F00
701F00
F03F00
F07F00
F0FF00
F1FE00
F3EE00
FFCE00
7F1E00
3C1E00
ENDCHAR
STARTCHAR uni1EB6
ENCODING 7862
SWIDTH 687 0
DWIDTH 23 0
BBX 22 35 1 -4
BITMAP
006030
006060
0070E0
003FC0
001F00
000000
000380
0007C0
000FC0
000FC0
001FC0
001DC0
003DE0
0039E0
0071E0
0070E0
00E0E0
01E0E0
01C0F0
03C0F0
038070
078070
07FFF0
0FFFF8
0FFFF8
1C0078
3C0078
380038
78003C
70003C
E0003C
000000
003800
007800
007000
ENDCHAR
STARTCHAR uni1EB7
ENCODING 7863
SWIDTH 608 0
DWIDTH 21 0
BBX 18 28 3 -4
BITMAP
030180
030300
038700
01FE00
00F800
000000
007FC0
01FFC0
03FFC0
078380
0F0380
1E0380
3C0780
380780
780F00
701F00
F03F00
F07F00
F0FF00
F1FE00
F3EE00
FFCE00
7F1E00
3C1E00
000000
01C000
03C000
038000
ENDCHAR
STARTCHAR uni1EB8
ENCODING 7864
SWIDTH 547 0
DWIDTH 19 0
BBX 19 29 3 -4
BITMAP
07FFE0
07FFE0
0FFFE0
0F0000
0F0000
0F0000
0E0000
1E0000
1E0000
1E0000
1E0000
1FFE00
3FFE00
3FFE00
3C0000
3C0000
380000
780000
780000
780000
700000
700000
FFFE00
FFFE00
FFFE00
000000
038000
078000
070000
ENDCHAR
STARTCHAR uni1EB9
ENCODING 7865
SWIDTH 529 0
DWIDTH 18 0
BBX 15 22 3 -4
BITMAP
00F8
03FC
0FFE
1F1E
1C0E
381C
781C
7078
71F0
FFC0
FE00
E000
E002
F00C
F83C
7FFC
3FF0
1FC0
0000
0380
0780
0700
ENDCHAR
STARTCHAR uni1EBC
ENCODING 7868
SWIDTH 547 0
DWIDTH 19 0
BBX 19 29 3 0
BITMAP
01E300
03FE00
063C00
000000
07FFE0
07FFE0
0FFFE0
0F0000
0F0000
0F0000
0E0000
1E0000
1E0000
1E0000
1E0000
1FFE00
3FFE00
3FFE00
3C0000
3C0000
380000
780000
780000
780000
700000
700000
FFFE00
FFFE00
FFFE00
ENDCHAR
STARTCHAR uni1EBD
ENCODING 7869
SWIDTH 529 0
DWIDTH 18 0
BBX 15 22 3 0
BITMAP
03C6
07FC
0C78
0000
00F8
03FC
0FFE
1F1E
1C0E
381C
781C
7078
71F0
FFC0
FE00
E000
E002
F00C
F83C
7FFC
3FF0
1FC0
ENDCHAR
STARTCHAR uni1EBE
ENCODING 7870
SWIDTH 547 0
DWIDTH 19 0
BBX 19 38 3 0
BITMAP
000F00
001C00
003800
007000
00E000
000000
003C00
007C00
00CE00
018E00
070700
000000
000000
07FFE0
07FFE0
0FFFE0
0F0000
0F0000
0F0000
0E0000
1E0000
1E0000
1E0000
1E0000
1FFE00
3FFE00
3FFE00
3C0000
3C0000
380000
780000
780000
780000
700000
700000
FFFE00
FFFE00
FFFE00
ENDCHAR
STARTCHAR uni1EBF
ENCODING 7871
SWIDTH 529 0
DWIDTH 18 0
BBX 16 31 3 0
BITMAP
000F
001C
0038
0070
00E0
0000
003C
007C
00CE
018E
0707
0000
0000
00F8
03FC
0FFE
1F1E
1C0E
381C
781C
7078
71F0
FFC0
FE00
E000
E002
F00C
F83C
7FFC
3FF0
1FC0
ENDCHAR
STARTCHAR uni1EC0
ENCODING 7872
SWIDTH 547 0
DWIDTH 19 0
BBX 19 38 3 0
BITMAP
01E000
00E000
007000
007000
003800
000000
003C00
007C00
00CE00
018E00
070700
000000
000000
07FFE0
07FFE0
0FFFE0
0F0000
0F0000
0F0000
0E0000
1E0000
1E0000
1E0000
1E0000
1FFE00
3FFE00
3FFE00
3C0000
3C0000
380000
780000
780000
780000
700000
700000
FFFE00
FFFE00
FFFE00
ENDCHAR
STARTCHAR uni1EC1
ENCODING 7873
SWIDTH 529 0
DWIDTH 18 0
BBX 16 31 3 0
BITMAP
01E0
00E0
0070
0070
0038
0000
003C
007C
00CE
018E
0707
0000
0000
00F8
03FC
0FFE
1F1E
1C0E
381C
781C
7078
71F0
FFC0
FE00
E000
E002
F00C
F83C
7FFC
3FF0
1FC0
ENDCHAR
STARTCHAR uni1EC4
ENCODING 7876
SWIDTH 547 0
DWIDTH 19 0
BBX 19 36 3 0
BITMAP
00F180
01FF00
031E00
000000
003C00
007C00
00CE00
018E00
070700
000000
000000
07FFE0
07FFE0
0FFFE0
0F0000
0F0000
0F0000
0E0000
1E0000
1E0000
1E0000
1E0000
1FFE00
3FFE00
3FFE00
3C0000
3C0000
380000
780000
780000
780000
700000
700000
FFFE00
FFFE00
FFFE00
ENDCHAR
STARTCHAR uni1EC5
ENCODING 7877
SWIDTH 529 0
DWIDTH 18 0
BBX 16 29 3 0
BITMAP
01E3
03FE
063C
0000
003C
007C
00CE
018E
0707
0000
0000
00F8
03FC
0FFE
1F1E
1C0E
381C
781C
7078
71F0
FFC0
FE00
E000
E002
F00C
F83C
7FFC
3FF0
1FC0
ENDCHAR
STARTCHAR uni1EC6
ENCODING 7878
SWIDTH 547 0
DWIDTH 19 0
BBX 19 35 3 -4
BITMAP
007800
00F800
019C00
031C00
0E0E00
000000
07FFE0
07FFE0
0FFFE0
0F0000
0F0000
0F0000
0E0000
1E0000
1E0000
1E0000
1E0000
1FFE00
3FFE00
3FFE00
3C0000
3C0000
380000
780000
780000
780000
700000
700000
FFFE00
FFFE00
FFFE00
000000
038000
078000
070000
ENDCHAR
STARTCHAR uni1EC7
ENCODING 7879
SWIDTH 529 0
DWIDTH 18 0
BBX 15 28 3 -4
BITMAP
00F0
01F0
0338
0638
1C1C
0000
00F8
03FC
0FFE
1F1E
1C0E
381C
781C
7078
71F0
FFC0
FE00
E000
E002
F00C
F83C
7FFC
3FF0
1FC0
0000
0380
0780
0700
ENDCHAR
STARTCHAR uni1ECA
ENCODING 7882
SWIDTH 289 0
DWIDTH 10 0
BBX 8 29 3 -4
BITMAP
0F
0F
0F
0E
0E
0E
1E
1E
1C
1C
1C
3C
3C
3C
38
38
38
78
78
70
70
70
F0
F0
F0
00
38
78
70
ENDCHAR
STARTCHAR uni1ECB
ENCODING 7883
SWIDTH 289 0
DWIDTH 10 0
BBX 8 29 3 -4
BITMAP
07
0F
0E
00
00
00
00
1E
1C
1C
1C
1C
3C
38
38
38
38
78
78
70
70
70
F0
F0
E0
00
38
78
70
ENDCHAR
STARTCHAR uni1ECC
ENCODING 7884
SWIDTH 777 0
DWIDTH 26 0
BBX 24 29 4 -4
BITMAP
001FC0
007FF8
01FFFC
03F07E
07C01E
0F001E
1E000F
3C000F
3C000F
78000F
78000F
70000F
F0000F
F0000E
F0001E
F0001E
F0003C
F0003C
F00078
7800F0
7C03E0
7E0FC0
3FFF80
1FFE00
03F800
000000
007000
00F000
00E000
ENDCHAR
STARTCHAR uni1ECD
ENCODING 7885
SWIDTH 566 0
DWIDTH 19 0
BBX 17 22 3 -4
BITMAP
00F800
03FE00
0FFF00
1F0F00
1C0780
380780
780780
700780
700700
F00700
F00700
F00E00
F01E00
F03C00
F07800
7FF000
3FE000
1F8000
000000
038000
078000
070000
ENDCHAR
STARTCHAR uni1ED0
ENCODING 7888
SWIDTH 777 0
DWIDTH 26 0
BBX 24 38 4 0
BITMAP
0001E0
000380
000700
000E00
001C00
000000
0003C0
0007C0
000CE0
0018E0
007070
000000
000000
001FC0
007FF8
01FFFC
03F07E
07C01E
0F001E
1E000F
3C000F
3C000F
78000F
78000F
70000F
F0000F
F0000E
F0001E
F0001E
F0003C
F0003C
F00078
7800F0
7C03E0
7E0FC0
3FFF80
1FFE00
03F800
ENDCHAR
STARTCHAR uni1ED1
ENCODING 7889
SWIDTH 566 0
DWIDTH 19 0
BBX 17 31 3 0
BITMAP
000F00
001C00
003800
007000
00E000
000000
001E00
003E00
006700
00C700
038380
000000
000000
00F800
03FE00
0FFF00
1F0F00
1C0780
380780
780780
700780
700700
F00700
F00700
F00E00
F01E00
F03C00
F07800
7FF000
3FE000
1F8000
ENDCHAR
STARTCHAR uni1ED2
ENCODING 7890
SWIDTH 777 0
DWIDTH 26 0
BBX 24 38 4 0
BITMAP
003C00
001C00
000E00
000E00
000700
000000
0003C0
0007C0
000CE0
0018E0
007070
000000
000000
001FC0
007FF8
01FFFC
03F07E
07C01E
0F001E
1E000F
3C000F
3C000F
78000F
78000F
70000F
F0000F
F0000E
F0001E
F0001E
F0003C
F0003C
F00078
7800F0
7C03E0
7E0FC0
3FFF80
1FFE00
03F800
ENDCHAR
STARTCHAR uni1ED3
ENCODING 7891
SWIDTH 566 0
DWIDTH 19 0
BBX 17 31 3 0
BITMAP
01E000
00E000
007000
007000
003800
000000
001E00
003E00
006700
00C700
038380
000000
000000
00F800
03FE00
0FFF00
1F0F00
1C0780
380780
780780
700780
700700
F00700
F00700
F00E00
F01E00
F03C00
F07800
7FF000
3FE000
1F8000
ENDCHAR
STARTCHAR uni1ED6
ENCODING 7894
SWIDTH 777 0
DWIDTH 26 0
BBX 24 36 4 0
BITMAP
001E30
003FE0
0063C0
000000
0003C0
0007C0
000CE0
0018E0
007070
000000
000000
001FC0
007FF8
01FFFC
03F07E
07C01E
0F001E
1E000F
3C000F
3C000F
78000F
78000F
70000F
F0000F
F0000E
F0001E
F0001E
F0003C
F0003C
F00078
7800F0
7C03E0
7E0FC0
3FFF80
1FFE00
03F800
ENDCHAR
STARTCHAR uni1ED7
ENCODING 7895
SWIDTH 566 0
DWIDTH 19 0
BBX 17 29 3 0
BITMAP
00F180
01FF00
031E00
000000
001E00
003E00
006700
00C700
038380
000000
000000
00F800
03FE00
0FFF00
1F0F00
1C0780
380780
780780
700780
700700
F00700
F00700
F00E00
F01E00
F03C00
F07800
7FF000
3FE000
1F8000
ENDCHAR
STARTCHAR uni1ED8
ENCODING 7896
SWIDTH 777 0
DWIDTH 26 0
BBX 24 35 4 -4
BITMAP
000780
000F80
0019C0
0031C0
00E0E0
000000
001FC0
007FF8
01FFFC
03F07E
07C01E
0F001E
1E000F
3C000F
3C000F
78000F
78000F
70000F
F0000F
F0000E
F0001E
F0001E
F0003C
F0003C
F00078
7800F0
7C03E0
7E0FC0
3FFF80
1FFE00
03F800
000000
007000
00F000
00E000
ENDCHAR
STARTCHAR uni1ED9
ENCODING 7897
SWIDTH 566 0
DWIDTH 19 0
BBX 17 28 3 -4
BITMAP
007800
00F800
019C00
031C00
0E0E00
000000
00F800
03FE00
0FFF00
1F0F00
1C0780
380780
780780
700780
700700
F00700
F00700
F00E00
F01E00
F03C00
F07800
7FF000
3FE000
1F8000
000000
038000
078000
070000
ENDCHAR
STARTCHAR uni1EDA
ENCODING 7898
SWIDTH 777 0
DWIDTH 26 0
BBX 28 31 4 0
BITMAP
00003C00
00007000
0000E000
0001C000
00038000
00000000
001FC0F0
007FF8F0
01FFFDF0
03F07FF0
07C01EE0
0F001EE0
1E000FE0
3C000FC0
3C000FC0
78000F80
78000F00
70000F00
F0000F00
F0000E00
F0001E00
F0001E00
F0003C00
F0003C00
F0007800
7800F000
7C03E000
7E0FC000
3FFF8000
1FFE0000
03F80000
ENDCHAR
STARTCHAR uni1EDB
ENCODING 7899
SWIDTH 566 0
DWIDTH 19 0
BBX 21 24 3 0
BITMAP
000780
000E00
001C00
003800
007000
000000
00F878
03FE78
0FFFF8
1F0FF8
1C07F0
3807F0
7807F0
7007E0
7007E0
F007C0
F00700
F00E00
F01E00
F03C00
F07800
7FF000
3FE000
1F8000
ENDCHAR
STARTCHAR uni1EDC
ENCODING 7900
SWIDTH 777 0
DWIDTH 26 0
BBX 28 31 4 0
BITMAP
00078000
00038000
0001C000
0001C000
0000E000
00000000
001FC0F0
007FF8F0
01FFFDF0
03F07FF0
07C01EE0
0F001EE0
1E000FE0
3C000FC0
3C000FC0
78000F80
78000F00
70000F00
F0000F00
F0000E00
F0001E00
F0001E00
F0003C00
F0003C00
F0007800
7800F000
7C03E000
7E0FC000
3FFF8000
1FFE0000
03F80000
ENDCHAR
STARTCHAR uni1EDD
ENCODING 7901
SWIDTH 566 0
DWIDTH 19 0
BBX 21 24 3 0
BITMAP
00F000
007000
003800
003800
001C00
000000
00F878
03FE78
0FFFF8
1F0FF8
1C07F0
3807F0
7807F0
7007E0
7007E0
F007C0
F00700
F00E00
F01E00
F03C00
F07800
7FF000
3FE000
1F8000
ENDCHAR
STARTCHAR uni1EE0
ENCODING 7904
SWIDTH 777 0
DWIDTH 26 0
BBX 28 29 4 0
BITMAP
00078C00
000FF800
0018F000
00000000
001FC0F0
007FF8F0
01FFFDF0
03F07FF0
07C01EE0
0F001EE0
1E000FE0
3C000FC0
3C000FC0
78000F80
78000F00
70000F00
F0000F00
F0000E00
F0001E00
F0001E00
F0003C00
F0003C00
F0007800
7800F000
7C03E000
7E0FC000
3FFF8000
1FFE0000
03F80000
ENDCHAR
STARTCHAR uni1EE1
ENCODING 7905
SWIDTH 566 0
DWIDTH 19 0
BBX 21 22 3 0
BITMAP
0078C0
00FF80
018F00
000000
00F878
03FE78
0FFFF8
1F0FF8
1C07F0
3807F0
7807F0
7007E0
7007E0
F007C0
F00700
F00E00
F01E00
F03C00
F07800
7FF000
3FE000
1F8000
ENDCHAR
STARTCHAR uni1EE2
ENCODING 7906
SWIDTH 777 0
DWIDTH 26 0
BBX 28 29 4 -4
BITMAP
001FC0F0
007FF8F0
01FFFDF0
03F07FF0
07C01EE0
0F001EE0
1E000FE0
3C000FC0
3C000FC0
78000F80
78000F00
70000F00
F0000F00
F0000E00
F0001E00
F0001E00
F0003C00
F0003C00
F0007800
7800F000
7C03E000
7E0FC000
3FFF8000
1FFE0000
03F80000
00000000
00380000
00780000
00700000
ENDCHAR
STARTCHAR uni1EE3
ENCODING 7907
SWIDTH 566 0
DWIDTH 19 0
BBX 21 22 3 -4
BITMAP
00F878
03FE78
0FFFF8
1F0FF8
1C07F0
3807F0
7807F0
7007E0
7007E0
F007C0
F00700
F00E00
F01E00
F03C00
F07800
7FF000
3FE000
1F8000
000000
01C000
03C000
038000
ENDCHAR
STARTCHAR uni1EE4
ENCODING 7908
SWIDTH 693 0
DWIDTH 24 0
BBX 21 29 4 -4
BITMAP
1E0038
1E0038
1E0078
1C0070
3C0070
3C0070
3C0070
3C00F0
3800E0
7800E0
7800E0
7800E0
7801E0
7001C0
F001C0
F001C0
F001C0
F00380
F00380
F00780
F80700
7C1E00
7FFE00
3FF800
0FE000
000000
01C000
03C000
038000
ENDCHAR
STARTCHAR uni1EE5
ENCODING 7909
SWIDTH 620 0
DWIDTH 21 0
BBX 17 22 4 -4
BITMAP
1C0380
1C0780
380780
380700
380700
380700
380F00
701F00
703E00
703E00
707E00
70FE00
E1FE00
E1FC00
F3DC00
FF9C00
FE1C00
7C3C00
000000
038000
078000
070000
ENDCHAR
STARTCHAR uni1EE8
ENCODING 7912
SWIDTH 693 0
DWIDTH 24 0
BBX 25 31 4 0
BITMAP
0000F000
0001C000
00038000
00070000
000E0000
00000000
1E003F80
1E003F80
1E007F80
1C007F80
3C007700
3C007700
3C007700
3C00FE00
3800FE00
7800FC00
7800E000
7800E000
7801E000
7001C000
F001C000
F001C000
F001C000
F0038000
F0038000
F0078000
F8070000
7C1E0000
7FFE0000
3FF80000
0FE00000
ENDCHAR
STARTCHAR uni1EE9
ENCODING 7913
SWIDTH 620 0
DWIDTH 21 0
BBX 21 24 4 0
BITMAP
0003C0
000700
000E00
001C00
003800
000000
1C03F8
1C07F8
3807F8
3807F8
380770
380770
380F70
701FE0
703FE0
703FC0
707E00
70FE00
E1FE00
E1FC00
F3DC00
FF9C00
FE1C00
7C3C00
ENDCHAR
STARTCHAR uni1EEA
ENCODING 7914
SWIDTH 693 0
DWIDTH 24 0
BBX 25 31 4 0
BITMAP
001E0000
000E0000
00070000
00070000
00038000
00000000
1E003F80
1E003F80
1E007F80
1C007F80
3C007700
3C007700
3C007700
3C00FE00
3800FE00
7800FC00
7800E000
7800E000
7801E000
7001C000
F001C000
F001C000
F001C000
F0038000
F0038000
F0078000
F8070000
7C1E0000
7FFE0000
3FF80000
0FE00000
ENDCHAR
STARTCHAR uni1EEB
ENCODING 7915
SWIDTH 620 0
DWIDTH 21 0
BBX 21 24 4 0
BITMAP
007800
003800
001C00
001C00
000E00
000000
1C03F8
1C07F8
3807F8
3807F8
380770
380770
380F70
701FE0
703FE0
703FC0
707E00
70FE00
E1FE00
E1FC00
F3DC00
FF9C00
FE1C00
7C3C00
ENDCHAR
STARTCHAR uni1EEE
ENCODING 7918
SWIDTH 693 0
DWIDTH 24 0
BBX 25 29 4 0
BITMAP
001E3000
003FE000
0063C000
00000000
1E003F80
1E003F80
1E007F80
1C007F80
3C007700
3C007700
3C007700
3C00FE00
3800FE00
7800FC00
7800E000
7800E000
7801E000
7001C000
F001C000
F001C000
F001C000
F0038000
F0038000
F0078000
F8070000
7C1E0000
7FFE0000
3FF80000
0FE00000
ENDCHAR
STARTCHAR uni1EEF
ENCODING 7919
SWIDTH 620 0
DWIDTH 21 0
BBX 21 22 4 0
BITMAP
0078C0
00FF80
018F00
000000
1C03F8
1C07F8
3807F8
3807F8
380770
380770
380F70
701FE0
703FE0
703FC0
707E00
70FE00
E1FE00
E1FC00
F3DC00
FF9C00
FE1C00
7C3C00
ENDCHAR
STARTCHAR uni1EF0
ENCODING 7920
SWIDTH 693 0
DWIDTH 24 0
BBX 25 29 4 -4
BITMAP
1E003F80
1E003F80
1E007F80
1C007F80
3C007700
3C007700
3C007700
3C00FE00
3800FE00
7800FC00
7800E000
7800E000
7801E000
7001C000
F001C000
F001C000
F001C000
F0038000
F0038000
F0078000
F8070000
7C1E0000
7FFE0000
3FF80000
0FE00000
00000000
00E00000
01E00000
01C00000
ENDCHAR
STARTCHAR uni1EF1
ENCODING 7921
SWIDTH 620 0
DWIDTH 21 0
BBX 21 22 4 -4
BITMAP
1C03F8
1C07F8
3807F8
3807F8
380770
380770
380F70
701FE0
703FE0
703FC0
707E00
70FE00
E1FE00
E1FC00
F3DC00
FF9C00
FE1C00
7C3C00
000000
01C000
03C000
038000
ENDCHAR
STARTCHAR Ygrave
ENCODING 7922
SWIDTH 608 0
DWIDTH 21 0
BBX 20 31 5 0
BITMAP
03C000
01C000
00E000
00E000
007000
000000
F000F0
7001E0
7803C0
780380
3C0780
3C0F00
1C1E00
1E3C00
0E3800
0F7800
0FF000
07E000
07C000
03C000
038000
078000
078000
078000
070000
070000
0F0000
0F0000
0E0000
0E0000
1E0000
ENDCHAR
STARTCHAR ygrave
ENCODING 7923
SWIDTH 548 0
DWIDTH 19 0
BBX 19 31 3 -7
BITMAP
03C000
01C000
00E000
00E000
007000
000000
7801E0
7801C0
3803C0
380780
380700
380F00
3C0E00
3C1C00
1C3C00
1C3800
1C7800
1EF000
1EE000
1FE000
0FC000
0F8000
0F8000
0F0000
0F0000
0E0000
1C0000
1C0000
380000
700000
F00000
ENDCHAR
STARTCHAR uni1EF4
ENCODING 7924
SWIDTH 608 0
DWIDTH 21 0
BBX 20 29 5 -4
BITMAP
F000F0
7001E0
7803C0
780380
3C0780
3C0F00
1C1E00
1E3C00
0E3800
0F7800
0FF000
07E000
07C000
03C000
038000
078000
078000
078000
070000
070000
0F0000
0F0000
0E0000
0E0000
1E0000
000000
038000
078000
070000
ENDCHAR
STARTCHAR uni1EF5
ENCODING 7925
SWIDTH 548 0
DWIDTH 19 0
BBX 19 29 3 -11
BITMAP
7801E0
7801C0
3803C0
380780
380700
380F00
3C0E00
3C1C00
1C3C00
1C3800
1C7800
1EF000
1EE000
1FE000
0FC000
0F8000
0F8000
0F0000
0F0000
0E0000
1C0000
1C0000
380000
700000
F00000
000000
070000
0F0000
0E0000
ENDCHAR
STARTCHAR uni1EF8
ENCODING 7928
SWIDTH 608 0
DWIDTH 21 0
BBX 20 29 5 0
BITMAP
01E300
03FE00
063C00
000000
F000F0
7001E0
7803C0
780380
3C0780
3C0F00
1C1E00
1E3C00
0E3800
0F7800
0FF000
07E000
07C000
03C000
038000
078000
078000
078000
070000
070000
0F0000
0F0000
0E0000
0E0000
1E0000
ENDCHAR
STARTCHAR uni1EF9
ENCODING 7929
SWIDTH 548 0
DWIDTH 19 0
BBX 19 29 3 -7
BITMAP
03C600
07FC00
0C7800
000000
7801E0
7801C0
3803C0
380780
380700
380F00
3C0E00
3C1C00
1C3C00
1C3800
1C7800
1EF000
1EE000
1FE000
0FC000
0F8000
0F8000
0F0000
0F0000
0E0000
1C0000
1C0000
380000
700000
F00000
ENDCHAR
STARTCHAR uni2000
ENCODING 8192
SWIDTH 500 0
DWIDTH 17 0
BBX 1 1 0 0
BITMAP
00
ENDCHAR
STARTCHAR uni2001
ENCODING 8193
SWIDTH 1000 0
DWIDTH 33 0
BBX 1 1 0 0
BITMAP
00
ENDCHAR
STARTCHAR uni2002
ENCODING 8194
SWIDTH 500 0
DWIDTH 17 0
BBX 1 1 0 0
BITMAP
00
ENDCHAR
STARTCHAR uni2003
ENCODING 8195
SWIDTH 1000 0
DWIDTH 33 0
BBX 1 1 0 0
BITMAP
00
ENDCHAR
STARTCHAR uni2004
ENCODING 8196
SWIDTH 333 0
DWIDTH 11 0
BBX 1 1 0 0
BITMAP
00
ENDCHAR
STARTCHAR uni2005
ENCODING 8197
SWIDTH 250 0
DWIDTH 8 0
BBX 1 1 0 0
BITMAP
00
ENDCHAR
STARTCHAR uni2006
ENCODING 8198
SWIDTH 167 0
DWIDTH 6 0
BBX 1 1 0 0
BITMAP
00
ENDCHAR
STARTCHAR uni2007
ENCODING 8199
SWIDTH 633 0
DWIDTH 21 0
BBX 1 1 0 0
BITMAP
00
ENDCHAR
STARTCHAR uni2008
ENCODING 8200
SWIDTH 316 0
DWIDTH 11 0
BBX 1 1 0 0
BITMAP
00
ENDCHAR
STARTCHAR uni2009
ENCODING 8201
SWIDTH 200 0
DWIDTH 7 0
BBX 1 1 0 0
BITMAP
00
ENDCHAR
STARTCHAR uni200A
ENCODING 8202
SWIDTH 100 0
DWIDTH 3 0
BBX 1 1 0 0
BITMAP
00
ENDCHAR
STARTCHAR uni200B
ENCODING 8203
SWIDTH 0 0
DWIDTH 0 0
BBX 1 1 0 0
BITMAP
00
ENDCHAR
STARTCHAR uni2010
ENCODING 8208
SWIDTH 313 0
DWIDTH 11 0
BBX 8 3 3 9
BITMAP
FF
FF
FF
ENDCHAR
STARTCHAR uni2011
ENCODING 8209
SWIDTH 313 0
DWIDTH 11 0
BBX 8 3 3 9
BITMAP
FF
FF
FF
ENDCHAR
STARTCHAR figuredash
ENCODING 8210
SWIDTH 500 0
DWIDTH 17 0
BBX 14 3 3 9
BITMAP
FFFC
FFFC
FFFC
ENDCHAR
STARTCHAR endash
ENCODING 8211
SWIDTH 500 0
DWIDTH 17 0
BBX 14 3 3 9
BITMAP
FFFC
FFFC
FFFC
ENDCHAR
STARTCHAR emdash
ENCODING 8212
SWIDTH 1000 0
DWIDTH 34 0
BBX 31 2 3 9
BITMAP
FFFFFFFE
FFFFFFFE
ENDCHAR
STARTCHAR afii00208
ENCODING 8213
SWIDTH 1000 0
DWIDTH 34 0
BBX 31 2 3 9
BITMAP
FFFFFFFE
FFFFFFFE
ENDCHAR
STARTCHAR quoteleft
ENCODING 8216
SWIDTH 217 0
DWIDTH 7 0
BBX 6 10 5 16
BITMAP
0C
38
30
70
60
60
78
F8
F0
F0
ENDCHAR
STARTCHAR quoteright
ENCODING 8217
SWIDTH 217 0
DWIDTH 7 0
BBX 6 10 5 16
BITMAP
3C
3C
7C
7C
38
38
38
70
F0
E0
ENDCHAR
STARTCHAR quotesinglbase
ENCODING 8218
SWIDTH 217 0
DWIDTH 7 0
BBX 6 11 1 -6
BITMAP
3C
3C
7C
78
78
38
38
38
30
70
C0
ENDCHAR
STARTCHAR quotereversed
ENCODING 8219
SWIDTH 217 0
DWIDTH 7 0
BBX 6 10 5 16
BITMAP
F0
F0
F8
F8
70
70
70
38
3C
1C
ENDCHAR
STARTCHAR quotedblleft
ENCODING 8220
SWIDTH 361 0
DWIDTH 12 0
BBX 11 9 5 17
BITMAP
0820
38C0
31C0
6180
6380
6380
F3C0
F380
E780
ENDCHAR
STARTCHAR quotedblright
ENCODING 8221
SWIDTH 361 0
DWIDTH 12 0
BBX 11 9 5 17
BITMAP
39E0
79C0
71C0
30C0
30C0
3080
6180
E300
8200
ENDCHAR
STARTCHAR quotedblbase
ENCODING 8222
SWIDTH 361 0
DWIDTH 12 0
BBX 11 11 1 -7
BITMAP
39E0
79E0
79C0
71C0
30C0
30C0
30C0
2180
6180
C300
8200
ENDCHAR
STARTCHAR uni201F
ENCODING 8223
SWIDTH 361 0
DWIDTH 12 0
BBX 11 9 5 17
BITMAP
F380
73C0
71C0
6180
6180
2180
30C0
18E0
0820
ENDCHAR
STARTCHAR dagger
ENCODING 8224
SWIDTH 633 0
DWIDTH 21 0
BBX 15 31 6 -6
BITMAP
00E0
00E0
01E0
01C0
01C0
01C0
01C0
0180
0180
FFFE
FFFE
0300
0300
0300
0700
0700
0700
0600
0E00
0E00
0E00
0E00
0E00
1C00
1C00
1C00
1C00
1C00
3C00
3800
3800
ENDCHAR
STARTCHAR daggerdbl
ENCODING 8225
SWIDTH 633 0
DWIDTH 21 0
BBX 17 31 4 -6
BITMAP
003800
003800
007800
007000
007000
007000
007000
006000
006000
3FFF80
3FFF80
00E000
01E000
01C000
01C000
01C000
01C000
03C000
038000
FFFE00
FFFE00
030000
030000
070000
070000
070000
070000
070000
0E0000
0E0000
0E0000
ENDCHAR
STARTCHAR bullet
ENCODING 8226
SWIDTH 633 0
DWIDTH 21 0
BBX 12 10 7 6
BITMAP
3FF0
3FF0
7FE0
7FE0
7FE0
7FE0
7FE0
FFC0
FFC0
FFC0
ENDCHAR
STARTCHAR ellipsis
ENCODING 8230
SWIDTH 1000 0
DWIDTH 34 0
BBX 26 3 4 0
BITMAP
700E01C0
F01E03C0
E01C0380
ENDCHAR
STARTCHAR perthousand
ENCODING 8240
SWIDTH 1027 0
DWIDTH 35 0
BBX 35 25 2 0
BITMAP
03E0038000
07F0070000
0FF80E0000
1E381C0000
1C18180000
3818300000
3838700000
3830E00000
3871C00000
1FE3800000
1FE7000000
0F8E000000
001C780780
0039FC1FC0
0033FE3FE0
00678E78E0
00C7067060
01C6066060
038E066060
070E06E0E0
0E0E0EE0E0
1C0F1CF1C0
3807FC7F80
7007F87F80
E003E01E00
ENDCHAR
STARTCHAR guilsinglleft
ENCODING 8249
SWIDTH 328 0
DWIDTH 11 0
BBX 10 16 3 1
BITMAP
0080
01C0
0380
0700
1E00
3C00
7800
F000
F000
7000
3800
3800
1C00
0C00
0E00
0400
ENDCHAR
STARTCHAR guilsinglright
ENCODING 8250
SWIDTH 328 0
DWIDTH 11 0
BBX 10 16 2 1
BITMAP
0800
1C00
1E00
0E00
0F00
0780
0380
03C0
03C0
0780
0F00
1E00
3800
7000
E000
4000
ENDCHAR
STARTCHAR fraction
ENCODING 8260
SWIDTH 117 0
DWIDTH 4 0
BBX 26 25 -8 0
BITMAP
000003C0
00000780
00000F00
00001E00
00001C00
00003800
00007000
0000E000
0001C000
00038000
00070000
000F0000
001E0000
003C0000
00380000
00700000
00E00000
01C00000
03800000
07000000
0E000000
1E000000
3C000000
78000000
F0000000
ENDCHAR
STARTCHAR oneinferior
ENCODING 8321
SWIDTH 392 0
DWIDTH 13 0
BBX 5 15 -22 -8
BITMAP
78
F8
18
30
30
30
30
30
60
60
60
60
60
C0
C0
ENDCHAR
STARTCHAR twoinferior
ENCODING 8322
SWIDTH 392 0
DWIDTH 13 0
BBX 11 15 -19 -8
BITMAP
0F80
1FC0
10E0
0060
0060
00C0
00C0
0380
0700
0C00
1800
3000
6000
FF80
FF80
ENDCHAR
STARTCHAR threeinferior
ENCODING 8323
SWIDTH 392 0
DWIDTH 13 0
BBX 10 15 -19 -8
BITMAP
1F80
1FC0
10C0
00C0
00C0
0180
1F00
1F00
0380
0180
0180
0180
8380
FF00
FC00
ENDCHAR
STARTCHAR uni20A5
ENCODING 8357
SWIDTH 934 0
DWIDTH 32 0
BBX 28 32 3 -7
BITMAP
00000380
00000700
00000700
00000E00
00001C00
00001C00
00003800
0E0F39E0
1E3FF7F0
1C7FFFF0
1CF7FEF0
1DE3FC70
1FC7F8F0
3F87F0F0
3F07E0E0
3E07C0E0
3E0FC0E0
3C0F81E0
781F01C0
783E01C0
703E01C0
707E01C0
707E03C0
E0FE0380
E1DC0380
01C00000
03800000
03800000
07000000
0E000000
0E000000
1C000000
ENDCHAR
STARTCHAR uni20A6
ENCODING 8358
SWIDTH 741 0
DWIDTH 25 0
BBX 24 25 3 0
BITMAP
078007
078007
0F8007
0FC00E
0FC00E
0FE00E
0EE00E
1CF00E
1FFFFE
1FFFFE
1FFFFE
1C381C
383C1C
381C38
3FFFFC
3FFFFC
3FFFFC
700F38
700770
7007F0
7003F0
7003F0
E001F0
E001E0
E001E0
ENDCHAR
STARTCHAR uni20A9
ENCODING 8361
SWIDTH 886 0
DWIDTH 30 0
BBX 29 25 6 0
BITMAP
E0070038
E00F0070
E00F0070
E01F00E0
E01F00E0
F01F01C0
F03F01C0
F0370380
F7FFFF80
F7FFFF80
77FFFF80
70E70E00
71C78E00
71C79C00
7FFFFF00
7FFFFF00
7FFFFF00
7707F800
7707F000
7E07F000
7E03E000
7C03E000
7C03C000
7803C000
78038000
ENDCHAR
STARTCHAR Euro
ENCODING 8364
SWIDTH 679 0
DWIDTH 23 0
BBX 28 25 -2 0
BITMAP
00007FC0
0001FFF0
0007FFF0
000F8030
003F0000
003C0000
00780000
00F80000
7FFFF800
7FFFF800
7FFFF800
01C00000
03C00000
03C00000
FFFFF000
FFFFF000
FFFFF000
03C00000
03C00000
03E00000
01E00100
01F80F00
00FFFF00
007FFC00
000FE000
ENDCHAR
STARTCHAR uni20AD
ENCODING 8365
SWIDTH 635 0
DWIDTH 22 0
BBX 21 25 3 0
BITMAP
070078
0700F0
0F01E0
0F03C0
0E0780
0E0F00
0E1E00
1E3C00
1E7800
1CF000
1DE000
FFFFF8
FFFFF8
FFFFF8
38E000
38F000
387000
787800
783C00
781C00
701E00
700F00
F00700
F00780
F003C0
ENDCHAR
STARTCHAR uni2103
ENCODING 8451
SWIDTH 935 0
DWIDTH 32 0
BBX 29 25 6 0
BITMAP
78003FE0
F800FFF8
CC03FFF8
CC07C018
F81F8000
781E0000
003C0000
007C0000
00780000
00F00000
00F00000
00E00000
01E00000
01E00000
01E00000
01E00000
01E00000
01E00000
01E00000
01F00000
00F00080
00FC0780
007FFF80
003FFE00
0007F000
ENDCHAR
STARTCHAR uni2109
ENCODING 8457
SWIDTH 792 0
DWIDTH 27 0
BBX 25 25 6 0
BITMAP
781FFF80
F81FFF80
CC3FFF80
CC3C0000
F83C0000
78380000
00380000
00780000
00780000
00780000
00700000
007FF800
00FFF800
00FFF000
00F00000
00E00000
00E00000
01E00000
01E00000
01E00000
01C00000
01C00000
03C00000
03C00000
03C00000
ENDCHAR
STARTCHAR trademark
ENCODING 8482
SWIDTH 801 0
DWIDTH 27 0
BBX 26 13 5 12
BITMAP
FFE783C0
FFE783C0
FFE787C0
0E07C780
0E07CF80
0C07CF80
1C0FDB80
1C0FDB80
1C0CF300
1C0CE700
180CE700
381CC700
381C0700
ENDCHAR
STARTCHAR uni212A
ENCODING 8490
SWIDTH 635 0
DWIDTH 22 0
BBX 21 25 3 0
BITMAP
070078
0700F0
0F01E0
0F03C0
0E0780
0E0F00
0E1E00
1E3C00
1E7800
1CF000
1DE000
1FC000
3FC000
3DC000
38E000
38F000
387000
787800
783C00
781C00
701E00
700F00
F00700
F00780
F003C0
ENDCHAR
STARTCHAR uni212B
ENCODING 8491
SWIDTH 687 0
DWIDTH 23 0
BBX 22 32 1 0
BITMAP
0001C0
000360
000220
000360
0001C0
000000
000000
000380
0007C0
000FC0
000FC0
001FC0
001DC0
003DE0
0039E0
0071E0
0070E0
00E0E0
01E0E0
01C0F0
03C0F0
038070
078070
07FFF0
0FFFF8
0FFFF8
1C0078
3C0078
380038
78003C
70003C
E0003C
ENDCHAR
STARTCHAR uni2132
ENCODING 8498
SWIDTH 536 0
DWIDTH 18 0
BBX 19 25 3 0
BITMAP
0001E0
0001E0
0001E0
0001C0
0001C0
0003C0
0003C0
0003C0
000380
000380
000780
07FF80
0FFF80
0FFF00
000700
000F00
000F00
000F00
000E00
000E00
001E00
001E00
FFFE00
FFFC00
FFFC00
ENDCHAR
STARTCHAR minus
ENCODING 8722
SWIDTH 633 0
DWIDTH 21 0
BBX 20 3 3 9
BITMAP
FFFFF0
FFFFF0
FFFFF0
ENDCHAR
STARTCHAR fraction
ENCODING 8725
SWIDTH 117 0
DWIDTH 4 0
BBX 26 25 -8 0
BITMAP
000003C0
00000780
00000F00
00001E00
00001C00
00003800
00007000
0000E000
0001C000
00038000
00070000
000F0000
001E0000
003C0000
00380000
00700000
00E00000
01C00000
03800000
07000000
0E000000
1E000000
3C000000
78000000
F0000000
ENDCHAR
STARTCHAR periodcentered
ENCODING 8729
SWIDTH 316 0
DWIDTH 21 0
BBX 5 4 10 9
BITMAP
78
78
F0
F0
ENDCHAR
STARTCHAR uni2236
ENCODING 8758
SWIDTH 316 0
DWIDTH 11 0
BBX 7 18 4 0
BITMAP
0E
1E
1C
00
00
00
00
00
00
00
00
00
00
00
00
70
F0
E0
ENDCHAR
STARTCHAR uni2259
ENCODING 8793
SWIDTH 633 0
DWIDTH 21 0
BBX 21 15 2 5
BITMAP
003C00
007C00
00CE00
018E00
070700
000000
7FFFF8
7FFFF8
7FFFF8
000000
000000
000000
FFFFF0
FFFFF0
FFFFF0
ENDCHAR
STARTCHAR uni225A
ENCODING 8794
SWIDTH 633 0
DWIDTH 21 0
BBX 21 15 2 5
BITMAP
070700
038E00
039C00
01F800
01F000
000000
7FFFF8
7FFFF8
7FFFF8
000000
000000
000000
FFFFF0
FFFFF0
FFFFF0
ENDCHAR
STARTCHAR notequal
ENCODING 8800
SWIDTH 633 0
DWIDTH 21 0
BBX 22 32 2 -6
BITMAP
00001C
000038
000038
000070
0000E0
0000E0
0001C0
0001C0
000380
000700
000700
000E00
7FFFF8
7FFFF8
7FFFF8
003800
007000
007000
FFFFF0
FFFFF0
FFFFF0
038000
038000
070000
0E0000
0E0000
1C0000
1C0000
380000
700000
700000
E00000
ENDCHAR
STARTCHAR equivalence
ENCODING 8801
SWIDTH 633 0
DWIDTH 21 0
BBX 21 11 0 5
BITMAP
FFFFF8
FFFFF8
FFFFF8
000000
FFFFF8
FFFFF8
FFFFF8
000000
FFFFF8
FFFFF8
FFFFF8
ENDCHAR
STARTCHAR uni2262
ENCODING 8802
SWIDTH 633 0
DWIDTH 21 0
BBX 22 32 0 -5
BITMAP
00001C
000038
000038
000070
0000E0
0000E0
0001C0
0001C0
000380
000700
000700
FFFFF8
FFFFF8
FFFFF8
003800
FFFFF8
FFFFF8
FFFFF8
00E000
FFFFF8
FFFFF8
FFFFF8
038000
070000
0E0000
0E0000
1C0000
1C0000
380000
700000
700000
E00000
ENDCHAR
STARTCHAR lessequal
ENCODING 8804
SWIDTH 633 0
DWIDTH 21 0
BBX 22 25 3 -4
BITMAP
000004
00001C
00007C
0001F8
0007C0
001F00
007C00
03F000
0FC000
3F0000
FC0000
7E0000
1F8000
07E000
03F000
00FC00
003F00
001F80
0007E0
0001C0
000040
000000
FFFFFC
FFFFFC
FFFFFC
ENDCHAR
STARTCHAR greaterequal
ENCODING 8805
SWIDTH 633 0
DWIDTH 21 0
BBX 22 25 1 -4
BITMAP
080000
0E0000
1F8000
07C000
03F000
00FC00
003F00
001F80
0007E0
0001F8
0000FC
0003F0
000FC0
003F00
00FC00
03E000
0F8000
3E0000
780000
E00000
800000
000000
FFFFFC
FFFFFC
FFFFFC
ENDCHAR
STARTCHAR uni226E
ENCODING 8814
SWIDTH 633 0
DWIDTH 21 0
BBX 22 32 3 -5
BITMAP
00001C
000038
000038
000070
0000E0
0000E0
0001C4
0001DC
0003FC
0007F8
0007C0
001F00
007E00
03FC00
0FF800
3F3800
FC7000
7E7000
1FE000
07E000
03F000
03FC00
03BF00
071F80
0E07E0
0E01C0
1C0040
1C0000
380000
700000
700000
E00000
ENDCHAR
STARTCHAR uni226F
ENCODING 8815
SWIDTH 633 0
DWIDTH 21 0
BBX 22 32 1 -5
BITMAP
00001C
000038
000038
000070
0000E0
0000E0
0801C0
0E01C0
1F8380
07C700
03F700
00FE00
003F00
001F80
003FE0
0039F8
0070FC
0073F0
00EFC0
01FF00
01FC00
03E000
0F8000
3F0000
7E0000
EE0000
9C0000
1C0000
380000
700000
700000
E00000
ENDCHAR
STARTCHAR uni2270
ENCODING 8816
SWIDTH 633 0
DWIDTH 21 0
BBX 22 32 3 -7
BITMAP
00001C
000038
000038
000070
0000E4
0000FC
0001FC
0001F8
0007C0
001F00
007F00
03FE00
0FCE00
3F1C00
FC3800
7E3800
1FF000
07F000
03F000
01FC00
01FF00
039F80
0387E0
0701C0
0E0040
0E0000
FFFFFC
FFFFFC
FFFFFC
700000
700000
E00000
ENDCHAR
STARTCHAR uni2271
ENCODING 8817
SWIDTH 633 0
DWIDTH 21 0
BBX 22 32 1 -7
BITMAP
00001C
000038
000038
000070
0800E0
0E00E0
1F81C0
07C1C0
03F380
00FF00
003F00
001F80
000FE0
001DF8
0038FC
003BF0
007FC0
007F00
00FC00
03E000
0FC000
3F8000
7B8000
E70000
8E0000
0E0000
FFFFFC
FFFFFC
FFFFFC
700000
700000
E00000
ENDCHAR
STARTCHAR fi
ENCODING -1
SWIDTH 639 0
DWIDTH 22 0
BBX 21 34 2 -7
BITMAP
001F00
007F00
00FF38
01E178
01C070
038000
038000
078000
070000
3FFFF0
3FFFE0
3FFFE0
0F00E0
0E00E0
0E01E0
0E01C0
0E01C0
1E01C0
1C01C0
1C03C0
1C0380
1C0380
3C0380
380380
380780
380700
380700
780000
700000
700000
700000
700000
F00000
E00000
ENDCHAR
STARTCHAR fl
ENCODING -1
SWIDTH 639 0
DWIDTH 22 0
BBX 21 34 3 -7
BITMAP
001FF8
007FF8
00FFF8
01E0F0
03C070
038070
078070
0700F0
0700E0
3FF8E0
3FF0E0
3FF0E0
0F01E0
0E01C0
0E01C0
0E01C0
1E01C0
1E03C0
1C0380
1C0380
1C0380
3C0380
3C0780
380780
380700
380700
780700
780000
700000
700000
700000
F00000
F00000
E00000
ENDCHAR
ENDFONT
